<?xml version="1.0" encoding="utf-8" standalone="no"?>
<!DOCTYPE svg PUBLIC "-//W3C//DTD SVG 1.1//EN"
  "http://www.w3.org/Graphics/SVG/1.1/DTD/svg11.dtd">
<svg xmlns:xlink="http://www.w3.org/1999/xlink" width="432pt" height="288pt" viewBox="0 0 432 288" xmlns="http://www.w3.org/2000/svg" version="1.1">
 <metadata>
  <rdf:RDF xmlns:dc="http://purl.org/dc/elements/1.1/" xmlns:cc="http://creativecommons.org/ns#" xmlns:rdf="http://www.w3.org/1999/02/22-rdf-syntax-ns#">
   <cc:Work>
    <dc:type rdf:resource="http://purl.org/dc/dcmitype/StillImage"/>
    <dc:date>2022-05-13T15:01:39.063513</dc:date>
    <dc:format>image/svg+xml</dc:format>
    <dc:creator>
     <cc:Agent>
      <dc:title>Matplotlib v3.5.1, https://matplotlib.org/</dc:title>
     </cc:Agent>
    </dc:creator>
   </cc:Work>
  </rdf:RDF>
 </metadata>
 <defs>
  <style type="text/css">*{stroke-linejoin: round; stroke-linecap: butt}</style>
 </defs>
 <g id="figure_1">
  <g id="patch_1">
   <path d="M 0 288 
L 432 288 
L 432 0 
L 0 0 
L 0 288 
z
" style="fill: none"/>
  </g>
  <g id="axes_1">
   <g id="patch_2">
    <path d="M 221.175 261.2 
L 421.2 261.2 
L 421.2 10.8 
L 221.175 10.8 
z
" style="fill: #ffffff"/>
   </g>
   <g id="PolyCollection_1">
    <defs>
     <path id="m4d478f3c14" d="M 231.957017 -47.033452 
L 231.957017 -46.941739 
L 232.52034 -46.941739 
L 233.083664 -46.941739 
L 233.646988 -46.941739 
L 234.210312 -46.941739 
L 234.773636 -46.941739 
L 235.336959 -46.941739 
L 235.900283 -46.941739 
L 236.463607 -46.941739 
L 237.026931 -46.941739 
L 237.590254 -46.941739 
L 238.153578 -46.941739 
L 238.716902 -46.941739 
L 239.280226 -46.941739 
L 239.843549 -46.941739 
L 240.406873 -46.941739 
L 240.970197 -46.941739 
L 241.533521 -46.941739 
L 242.096844 -46.941739 
L 242.660168 -46.941739 
L 243.223492 -46.941739 
L 243.786816 -46.941739 
L 244.350139 -46.941739 
L 244.913463 -46.941739 
L 245.476787 -46.941739 
L 246.040111 -46.941739 
L 246.603434 -46.941739 
L 247.166758 -46.941739 
L 247.730082 -46.941739 
L 248.293406 -46.941739 
L 248.856729 -46.941739 
L 249.420053 -46.941739 
L 249.983377 -46.941739 
L 250.546701 -46.941739 
L 251.110025 -46.941739 
L 251.673348 -46.941739 
L 252.236672 -46.941739 
L 252.799996 -46.941739 
L 253.36332 -46.941739 
L 253.926643 -46.941739 
L 253.926643 -47.132412 
L 253.926643 -47.132412 
L 253.36332 -47.264657 
L 252.799996 -47.62812 
L 252.236672 -47.970535 
L 251.673348 -48.180246 
L 251.110025 -48.957685 
L 250.546701 -49.819722 
L 249.983377 -50.450807 
L 249.420053 -52.727819 
L 248.856729 -54.793181 
L 248.293406 -54.022227 
L 247.730082 -54.390234 
L 247.166758 -55.692308 
L 246.603434 -54.235977 
L 246.040111 -53.557245 
L 245.476787 -54.157938 
L 244.913463 -52.505398 
L 244.350139 -51.031385 
L 243.786816 -50.871631 
L 243.223492 -49.795552 
L 242.660168 -48.737976 
L 242.096844 -48.461029 
L 241.533521 -47.950693 
L 240.970197 -47.391364 
L 240.406873 -47.18249 
L 239.843549 -47.082232 
L 239.280226 -47.004163 
L 238.716902 -46.976374 
L 238.153578 -46.959913 
L 237.590254 -46.94462 
L 237.026931 -46.941739 
L 236.463607 -46.944599 
L 235.900283 -46.959357 
L 235.336959 -46.969193 
L 234.773636 -46.959364 
L 234.210312 -46.944784 
L 233.646988 -46.941849 
L 233.083664 -46.959486 
L 232.52034 -47.003939 
L 231.957017 -47.033452 
z
" style="stroke: #6ebbd5; stroke-opacity: 0.3"/>
    </defs>
    <g clip-path="url(#p55f33f3152)">
     <use xlink:href="#m4d478f3c14" x="0" y="288" style="fill: #6ebbd5; fill-opacity: 0.3; stroke: #6ebbd5; stroke-opacity: 0.3"/>
    </g>
   </g>
   <g id="PolyCollection_2">
    <defs>
     <path id="m5f2c361537" d="M 231.957017 -89.223337 
L 231.957017 -82.133391 
L 232.17368 -82.133391 
L 232.390343 -82.133391 
L 232.607006 -82.133391 
L 232.823669 -82.133391 
L 233.040332 -82.133391 
L 233.256995 -82.133391 
L 233.473658 -82.133391 
L 233.690321 -82.133391 
L 233.906984 -82.133391 
L 234.123647 -82.133391 
L 234.34031 -82.133391 
L 234.556973 -82.133391 
L 234.773636 -82.133391 
L 234.990299 -82.133391 
L 235.206961 -82.133391 
L 235.423624 -82.133391 
L 235.640287 -82.133391 
L 235.85695 -82.133391 
L 236.073613 -82.133391 
L 236.290276 -82.133391 
L 236.506939 -82.133391 
L 236.723602 -82.133391 
L 236.940265 -82.133391 
L 237.156928 -82.133391 
L 237.373591 -82.133391 
L 237.590254 -82.133391 
L 237.806917 -82.133391 
L 238.02358 -82.133391 
L 238.240243 -82.133391 
L 238.456906 -82.133391 
L 238.673569 -82.133391 
L 238.890232 -82.133391 
L 239.106895 -82.133391 
L 239.323558 -82.133391 
L 239.540221 -82.133391 
L 239.756884 -82.133391 
L 239.973547 -82.133391 
L 240.19021 -82.133391 
L 240.406873 -82.133391 
L 240.406873 -82.133391 
L 240.406873 -82.133391 
L 240.19021 -82.133391 
L 239.973547 -82.133391 
L 239.756884 -82.133391 
L 239.540221 -82.133391 
L 239.323558 -82.133391 
L 239.106895 -82.228896 
L 238.890232 -82.342499 
L 238.673569 -82.375392 
L 238.456906 -82.307074 
L 238.240243 -82.196838 
L 238.02358 -82.145139 
L 237.806917 -82.24409 
L 237.590254 -82.539524 
L 237.373591 -82.965792 
L 237.156928 -83.311473 
L 236.940265 -83.350793 
L 236.723602 -83.067654 
L 236.506939 -82.70672 
L 236.290276 -82.615682 
L 236.073613 -83.090384 
L 235.85695 -84.233706 
L 235.640287 -85.716659 
L 235.423624 -86.744054 
L 235.206961 -86.623021 
L 234.990299 -85.468449 
L 234.773636 -84.151615 
L 234.556973 -83.624159 
L 234.34031 -84.450786 
L 234.123647 -86.609895 
L 233.906984 -89.217844 
L 233.690321 -90.713287 
L 233.473658 -90.039614 
L 233.256995 -87.698613 
L 233.040332 -85.263629 
L 232.823669 -84.052079 
L 232.607006 -84.50873 
L 232.390343 -86.286679 
L 232.17368 -88.32172 
L 231.957017 -89.223337 
z
" style="stroke: #6ebbd5; stroke-opacity: 0.3"/>
    </defs>
    <g clip-path="url(#p55f33f3152)">
     <use xlink:href="#m5f2c361537" x="0" y="288" style="fill: #6ebbd5; fill-opacity: 0.3; stroke: #6ebbd5; stroke-opacity: 0.3"/>
    </g>
   </g>
   <g id="PolyCollection_3">
    <defs>
     <path id="m72e3f87cbe" d="M 230.267045 -117.086145 
L 230.267045 -116.98733 
L 230.787037 -116.98733 
L 231.307028 -116.98733 
L 231.827019 -116.98733 
L 232.34701 -116.98733 
L 232.867001 -116.98733 
L 233.386992 -116.98733 
L 233.906984 -116.98733 
L 234.426975 -116.98733 
L 234.946966 -116.98733 
L 235.466957 -116.98733 
L 235.986948 -116.98733 
L 236.506939 -116.98733 
L 237.026931 -116.98733 
L 237.546922 -116.98733 
L 238.066913 -116.98733 
L 238.586904 -116.98733 
L 239.106895 -116.98733 
L 239.626886 -116.98733 
L 240.146878 -116.98733 
L 240.666869 -116.98733 
L 241.18686 -116.98733 
L 241.706851 -116.98733 
L 242.226842 -116.98733 
L 242.746833 -116.98733 
L 243.266824 -116.98733 
L 243.786816 -116.98733 
L 244.306807 -116.98733 
L 244.826798 -116.98733 
L 245.346789 -116.98733 
L 245.86678 -116.98733 
L 246.386771 -116.98733 
L 246.906763 -116.98733 
L 247.426754 -116.98733 
L 247.946745 -116.98733 
L 248.466736 -116.98733 
L 248.986727 -116.98733 
L 249.506718 -116.98733 
L 250.02671 -116.98733 
L 250.546701 -116.98733 
L 250.546701 -117.454412 
L 250.546701 -117.454412 
L 250.02671 -117.598536 
L 249.506718 -117.868711 
L 248.986727 -118.226987 
L 248.466736 -118.662036 
L 247.946745 -119.507552 
L 247.426754 -120.611868 
L 246.906763 -121.35912 
L 246.386771 -122.277434 
L 245.86678 -123.873036 
L 245.346789 -124.769591 
L 244.826798 -124.65054 
L 244.306807 -125.140177 
L 243.786816 -125.734266 
L 243.266824 -125.111132 
L 242.746833 -124.592374 
L 242.226842 -124.768503 
L 241.706851 -124.219385 
L 241.18686 -123.377893 
L 240.666869 -123.239314 
L 240.146878 -122.685525 
L 239.626886 -121.3222 
L 239.106895 -120.325449 
L 238.586904 -119.740511 
L 238.066913 -118.965429 
L 237.546922 -118.269829 
L 237.026931 -117.903836 
L 236.506939 -117.636894 
L 235.986948 -117.40417 
L 235.466957 -117.276786 
L 234.946966 -117.197708 
L 234.426975 -117.125346 
L 233.906984 -117.081421 
L 233.386992 -117.053687 
L 232.867001 -117.021912 
L 232.34701 -116.997399 
L 231.827019 -116.995226 
L 231.307028 -117.020671 
L 230.787037 -117.063375 
L 230.267045 -117.086145 
z
" style="stroke: #6ebbd5; stroke-opacity: 0.3"/>
    </defs>
    <g clip-path="url(#p55f33f3152)">
     <use xlink:href="#m72e3f87cbe" x="0" y="288" style="fill: #6ebbd5; fill-opacity: 0.3; stroke: #6ebbd5; stroke-opacity: 0.3"/>
    </g>
   </g>
   <g id="PolyCollection_4">
    <defs>
     <path id="m7d926b3dfa" d="M 231.538757 -152.066456 
L 231.538757 -152.002299 
L 232.635477 -152.002299 
L 233.732197 -152.002299 
L 234.828918 -152.002299 
L 235.925638 -152.002299 
L 237.022359 -152.002299 
L 238.119079 -152.002299 
L 239.215799 -152.002299 
L 240.31252 -152.002299 
L 241.40924 -152.002299 
L 242.505961 -152.002299 
L 243.602681 -152.002299 
L 244.699402 -152.002299 
L 245.796122 -152.002299 
L 246.892842 -152.002299 
L 247.989563 -152.002299 
L 249.086283 -152.002299 
L 250.183004 -152.002299 
L 251.279724 -152.002299 
L 252.376444 -152.002299 
L 253.473165 -152.002299 
L 254.569885 -152.002299 
L 255.666606 -152.002299 
L 256.763326 -152.002299 
L 257.860047 -152.002299 
L 258.956767 -152.002299 
L 260.053487 -152.002299 
L 261.150208 -152.002299 
L 262.246928 -152.002299 
L 263.343649 -152.002299 
L 264.440369 -152.002299 
L 265.53709 -152.002299 
L 266.63381 -152.002299 
L 267.73053 -152.002299 
L 268.827251 -152.002299 
L 269.923971 -152.002299 
L 271.020692 -152.002299 
L 272.117412 -152.002299 
L 273.214132 -152.002299 
L 274.310853 -152.002299 
L 274.310853 -152.057923 
L 274.310853 -152.057923 
L 273.214132 -152.066725 
L 272.117412 -152.08347 
L 271.020692 -152.178296 
L 269.923971 -152.387225 
L 268.827251 -152.659262 
L 267.73053 -152.908419 
L 266.63381 -153.187369 
L 265.53709 -153.58925 
L 264.440369 -154.169107 
L 263.343649 -155.010452 
L 262.246928 -156.12191 
L 261.150208 -157.305066 
L 260.053487 -158.33741 
L 258.956767 -159.176943 
L 257.860047 -159.968772 
L 256.763326 -160.621208 
L 255.666606 -160.755245 
L 254.569885 -160.036352 
L 253.473165 -158.730537 
L 252.376444 -157.558044 
L 251.279724 -156.627936 
L 250.183004 -155.724832 
L 249.086283 -154.753911 
L 247.989563 -153.75045 
L 246.892842 -152.999373 
L 245.796122 -152.588029 
L 244.699402 -152.336286 
L 243.602681 -152.18253 
L 242.505961 -152.121489 
L 241.40924 -152.092691 
L 240.31252 -152.060464 
L 239.215799 -152.045075 
L 238.119079 -152.061002 
L 237.022359 -152.064125 
L 235.925638 -152.034228 
L 234.828918 -152.010976 
L 233.732197 -152.016034 
L 232.635477 -152.045858 
L 231.538757 -152.066456 
z
" style="stroke: #6ebbd5; stroke-opacity: 0.3"/>
    </defs>
    <g clip-path="url(#p55f33f3152)">
     <use xlink:href="#m7d926b3dfa" x="0" y="288" style="fill: #6ebbd5; fill-opacity: 0.3; stroke: #6ebbd5; stroke-opacity: 0.3"/>
    </g>
   </g>
   <g id="PolyCollection_5">
    <defs>
     <path id="m20a546a23e" d="M 259.393066 -187.108381 
L 259.393066 -187.023902 
L 262.979504 -187.023902 
L 266.565943 -187.023902 
L 270.152382 -187.023902 
L 273.738821 -187.023902 
L 277.32526 -187.023902 
L 280.911698 -187.023902 
L 284.498137 -187.023902 
L 288.084576 -187.023902 
L 291.671015 -187.023902 
L 295.257453 -187.023902 
L 298.843892 -187.023902 
L 302.430331 -187.023902 
L 306.01677 -187.023902 
L 309.603208 -187.023902 
L 313.189647 -187.023902 
L 316.776086 -187.023902 
L 320.362525 -187.023902 
L 323.948964 -187.023902 
L 327.535402 -187.023902 
L 331.121841 -187.023902 
L 334.70828 -187.023902 
L 338.294719 -187.023902 
L 341.881157 -187.023902 
L 345.467596 -187.023902 
L 349.054035 -187.023902 
L 352.640474 -187.023902 
L 356.226913 -187.023902 
L 359.813351 -187.023902 
L 363.39979 -187.023902 
L 366.986229 -187.023902 
L 370.572668 -187.023902 
L 374.159106 -187.023902 
L 377.745545 -187.023902 
L 381.331984 -187.023902 
L 384.918423 -187.023902 
L 388.504862 -187.023902 
L 392.0913 -187.023902 
L 395.677739 -187.023902 
L 399.264178 -187.023902 
L 399.264178 -187.088812 
L 399.264178 -187.088812 
L 395.677739 -187.055262 
L 392.0913 -187.025405 
L 388.504862 -187.023902 
L 384.918423 -187.023902 
L 381.331984 -187.023902 
L 377.745545 -187.023902 
L 374.159106 -187.023902 
L 370.572668 -187.023902 
L 366.986229 -187.023902 
L 363.39979 -187.023902 
L 359.813351 -187.023902 
L 356.226913 -187.023902 
L 352.640474 -187.023902 
L 349.054035 -187.028598 
L 345.467596 -187.049978 
L 341.881157 -187.049375 
L 338.294719 -187.033277 
L 334.70828 -187.065981 
L 331.121841 -187.191981 
L 327.535402 -187.422714 
L 323.948964 -187.767801 
L 320.362525 -188.28995 
L 316.776086 -189.156386 
L 313.189647 -190.46436 
L 309.603208 -191.782058 
L 306.01677 -193.036219 
L 302.430331 -194.505527 
L 298.843892 -195.7759 
L 295.257453 -195.776224 
L 291.671015 -195.165575 
L 288.084576 -194.113736 
L 284.498137 -192.096102 
L 280.911698 -190.255076 
L 277.32526 -188.854485 
L 273.738821 -187.885859 
L 270.152382 -187.413692 
L 266.565943 -187.226945 
L 262.979504 -187.173162 
L 259.393066 -187.108381 
z
" style="stroke: #6ebbd5; stroke-opacity: 0.3"/>
    </defs>
    <g clip-path="url(#p55f33f3152)">
     <use xlink:href="#m20a546a23e" x="0" y="288" style="fill: #6ebbd5; fill-opacity: 0.3; stroke: #6ebbd5; stroke-opacity: 0.3"/>
    </g>
   </g>
   <g id="PolyCollection_6">
    <defs>
     <path id="m138d3011c3" d="M 230.394217 -222.158167 
L 230.394217 -222.045325 
L 232.035768 -222.045325 
L 233.67732 -222.045325 
L 235.318871 -222.045325 
L 236.960423 -222.045325 
L 238.601975 -222.045325 
L 240.243526 -222.045325 
L 241.885078 -222.045325 
L 243.526629 -222.045325 
L 245.168181 -222.045325 
L 246.809733 -222.045325 
L 248.451284 -222.045325 
L 250.092836 -222.045325 
L 251.734388 -222.045325 
L 253.375939 -222.045325 
L 255.017491 -222.045325 
L 256.659042 -222.045325 
L 258.300594 -222.045325 
L 259.942146 -222.045325 
L 261.583697 -222.045325 
L 263.225249 -222.045325 
L 264.8668 -222.045325 
L 266.508352 -222.045325 
L 268.149904 -222.045325 
L 269.791455 -222.045325 
L 271.433007 -222.045325 
L 273.074558 -222.045325 
L 274.71611 -222.045325 
L 276.357662 -222.045325 
L 277.999213 -222.045325 
L 279.640765 -222.045325 
L 281.282317 -222.045325 
L 282.923868 -222.045325 
L 284.56542 -222.045325 
L 286.206971 -222.045325 
L 287.848523 -222.045325 
L 289.490075 -222.045325 
L 291.131626 -222.045325 
L 292.773178 -222.045325 
L 294.414729 -222.045325 
L 294.414729 -222.089025 
L 294.414729 -222.089025 
L 292.773178 -222.120984 
L 291.131626 -222.211865 
L 289.490075 -222.395711 
L 287.848523 -222.66269 
L 286.206971 -222.99581 
L 284.56542 -223.431002 
L 282.923868 -224.028263 
L 281.282317 -224.734721 
L 279.640765 -225.36199 
L 277.999213 -225.800523 
L 276.357662 -226.28221 
L 274.71611 -227.10973 
L 273.074558 -228.082038 
L 271.433007 -228.816812 
L 269.791455 -229.451835 
L 268.149904 -230.22619 
L 266.508352 -230.797203 
L 264.8668 -230.770602 
L 263.225249 -230.34586 
L 261.583697 -229.783668 
L 259.942146 -229.034231 
L 258.300594 -228.122533 
L 256.659042 -227.131262 
L 255.017491 -226.090953 
L 253.375939 -225.123654 
L 251.734388 -224.268062 
L 250.092836 -223.463424 
L 248.451284 -222.808731 
L 246.809733 -222.412086 
L 245.168181 -222.215777 
L 243.526629 -222.122814 
L 241.885078 -222.088967 
L 240.243526 -222.08196 
L 238.601975 -222.073454 
L 236.960423 -222.068053 
L 235.318871 -222.084231 
L 233.67732 -222.121762 
L 232.035768 -222.157624 
L 230.394217 -222.158167 
z
" style="stroke: #6ebbd5; stroke-opacity: 0.3"/>
    </defs>
    <g clip-path="url(#p55f33f3152)">
     <use xlink:href="#m138d3011c3" x="0" y="288" style="fill: #6ebbd5; fill-opacity: 0.3; stroke: #6ebbd5; stroke-opacity: 0.3"/>
    </g>
   </g>
   <g id="PolyCollection_7">
    <defs>
     <path id="m755018eacf" d="M 231.538757 -257.125452 
L 231.538757 -257.066763 
L 233.666629 -257.066763 
L 235.794501 -257.066763 
L 237.922373 -257.066763 
L 240.050245 -257.066763 
L 242.178117 -257.066763 
L 244.305989 -257.066763 
L 246.433861 -257.066763 
L 248.561733 -257.066763 
L 250.689605 -257.066763 
L 252.817477 -257.066763 
L 254.945349 -257.066763 
L 257.073221 -257.066763 
L 259.201093 -257.066763 
L 261.328965 -257.066763 
L 263.456837 -257.066763 
L 265.584709 -257.066763 
L 267.712581 -257.066763 
L 269.840453 -257.066763 
L 271.968325 -257.066763 
L 274.096197 -257.066763 
L 276.224069 -257.066763 
L 278.351941 -257.066763 
L 280.479813 -257.066763 
L 282.607685 -257.066763 
L 284.735557 -257.066763 
L 286.863429 -257.066763 
L 288.991301 -257.066763 
L 291.119173 -257.066763 
L 293.247045 -257.066763 
L 295.374917 -257.066763 
L 297.502789 -257.066763 
L 299.630661 -257.066763 
L 301.758533 -257.066763 
L 303.886405 -257.066763 
L 306.014277 -257.066763 
L 308.142149 -257.066763 
L 310.270021 -257.066763 
L 312.397893 -257.066763 
L 314.525765 -257.066763 
L 314.525765 -257.25546 
L 314.525765 -257.25546 
L 312.397893 -257.686473 
L 310.270021 -258.602743 
L 308.142149 -260.005706 
L 306.014277 -261.905367 
L 303.886405 -264.091495 
L 301.758533 -265.551509 
L 299.630661 -265.818182 
L 297.502789 -265.407915 
L 295.374917 -264.589841 
L 293.247045 -263.238743 
L 291.119173 -261.862736 
L 288.991301 -260.876206 
L 286.863429 -259.957308 
L 284.735557 -259.1449 
L 282.607685 -258.482474 
L 280.479813 -257.930458 
L 278.351941 -257.578265 
L 276.224069 -257.411543 
L 274.096197 -257.291604 
L 271.968325 -257.159508 
L 269.840453 -257.08361 
L 267.712581 -257.066763 
L 265.584709 -257.070776 
L 263.456837 -257.088553 
L 261.328965 -257.091709 
L 259.201093 -257.073941 
L 257.073221 -257.066763 
L 254.945349 -257.066763 
L 252.817477 -257.066763 
L 250.689605 -257.071584 
L 248.561733 -257.089606 
L 246.433861 -257.091661 
L 244.305989 -257.080509 
L 242.178117 -257.08954 
L 240.050245 -257.091932 
L 237.922373 -257.074655 
L 235.794501 -257.071668 
L 233.666629 -257.099482 
L 231.538757 -257.125452 
z
" style="stroke: #6ebbd5; stroke-opacity: 0.3"/>
    </defs>
    <g clip-path="url(#p55f33f3152)">
     <use xlink:href="#m755018eacf" x="0" y="288" style="fill: #6ebbd5; fill-opacity: 0.3; stroke: #6ebbd5; stroke-opacity: 0.3"/>
    </g>
   </g>
   <g id="PolyCollection_8">
    <defs>
     <path id="m73cd53eee8" d="M 240.227491 -46.974544 
L 240.227491 -46.054229 
L 240.563248 -45.700983 
L 240.899005 -45.27018 
L 241.234762 -44.789545 
L 241.57052 -44.307602 
L 241.906277 -43.879938 
L 242.242034 -43.546604 
L 242.577791 -43.311078 
L 242.913549 -43.132994 
L 243.249306 -42.940929 
L 243.585063 -42.660714 
L 243.92082 -42.245992 
L 244.256577 -41.696628 
L 244.592335 -41.057463 
L 244.928092 -40.399947 
L 245.263849 -39.796284 
L 245.599606 -39.297058 
L 245.935364 -38.919928 
L 246.271121 -38.651892 
L 246.606878 -38.462791 
L 246.942635 -38.324151 
L 247.278392 -38.225578 
L 247.61415 -38.181818 
L 247.949907 -38.227659 
L 248.285664 -38.40352 
L 248.621421 -38.738737 
L 248.957179 -39.239593 
L 249.292936 -39.885633 
L 249.628693 -40.633533 
L 249.96445 -41.425639 
L 250.300207 -42.200644 
L 250.635965 -42.904731 
L 250.971722 -43.501435 
L 251.307479 -43.977785 
L 251.643236 -44.344538 
L 251.978994 -44.630166 
L 252.314751 -44.870742 
L 252.650508 -45.099217 
L 252.986265 -45.337296 
L 253.322022 -45.591766 
L 253.322022 -46.974544 
L 253.322022 -46.974544 
L 252.986265 -46.974544 
L 252.650508 -46.974544 
L 252.314751 -46.974544 
L 251.978994 -46.974544 
L 251.643236 -46.974544 
L 251.307479 -46.974544 
L 250.971722 -46.974544 
L 250.635965 -46.974544 
L 250.300207 -46.974544 
L 249.96445 -46.974544 
L 249.628693 -46.974544 
L 249.292936 -46.974544 
L 248.957179 -46.974544 
L 248.621421 -46.974544 
L 248.285664 -46.974544 
L 247.949907 -46.974544 
L 247.61415 -46.974544 
L 247.278392 -46.974544 
L 246.942635 -46.974544 
L 246.606878 -46.974544 
L 246.271121 -46.974544 
L 245.935364 -46.974544 
L 245.599606 -46.974544 
L 245.263849 -46.974544 
L 244.928092 -46.974544 
L 244.592335 -46.974544 
L 244.256577 -46.974544 
L 243.92082 -46.974544 
L 243.585063 -46.974544 
L 243.249306 -46.974544 
L 242.913549 -46.974544 
L 242.577791 -46.974544 
L 242.242034 -46.974544 
L 241.906277 -46.974544 
L 241.57052 -46.974544 
L 241.234762 -46.974544 
L 240.899005 -46.974544 
L 240.563248 -46.974544 
L 240.227491 -46.974544 
z
" style="stroke: #0c8066; stroke-opacity: 0.3"/>
    </defs>
    <g clip-path="url(#p55f33f3152)">
     <use xlink:href="#m73cd53eee8" x="0" y="288" style="fill: #0c8066; fill-opacity: 0.3; stroke: #0c8066; stroke-opacity: 0.3"/>
    </g>
   </g>
   <g id="PolyCollection_9">
    <defs>
     <path id="mb3fbb61b4c" d="M 233.646988 -81.998814 
L 233.646988 -80.476161 
L 234.036981 -79.987585 
L 234.426975 -79.400897 
L 234.816968 -78.713133 
L 235.206961 -77.93223 
L 235.596955 -77.084234 
L 235.986948 -76.218687 
L 236.376942 -75.4053 
L 236.766935 -74.716966 
L 237.156928 -74.203747 
L 237.546922 -73.872243 
L 237.936915 -73.684168 
L 238.326908 -73.57585 
L 238.716902 -73.487422 
L 239.106895 -73.386916 
L 239.496889 -73.279938 
L 239.886882 -73.202797 
L 240.276875 -73.202816 
L 240.666869 -73.31493 
L 241.056862 -73.546572 
L 241.446855 -73.878438 
L 241.836849 -74.278254 
L 242.226842 -74.717105 
L 242.616836 -75.179438 
L 243.006829 -75.664565 
L 243.396822 -76.181668 
L 243.786816 -76.740663 
L 244.176809 -77.342121 
L 244.566802 -77.971306 
L 244.956796 -78.600349 
L 245.346789 -79.197178 
L 245.736783 -79.735047 
L 246.126776 -80.197319 
L 246.516769 -80.577134 
L 246.906763 -80.875216 
L 247.296756 -81.098476 
L 247.686749 -81.259382 
L 248.076743 -81.374629 
L 248.466736 -81.462247 
L 248.856729 -81.537747 
L 248.856729 -81.998814 
L 248.856729 -81.998814 
L 248.466736 -81.998814 
L 248.076743 -81.998814 
L 247.686749 -81.998814 
L 247.296756 -81.998814 
L 246.906763 -81.998814 
L 246.516769 -81.998814 
L 246.126776 -81.998814 
L 245.736783 -81.998814 
L 245.346789 -81.998814 
L 244.956796 -81.998814 
L 244.566802 -81.998814 
L 244.176809 -81.998814 
L 243.786816 -81.998814 
L 243.396822 -81.998814 
L 243.006829 -81.998814 
L 242.616836 -81.998814 
L 242.226842 -81.998814 
L 241.836849 -81.998814 
L 241.446855 -81.998814 
L 241.056862 -81.998814 
L 240.666869 -81.998814 
L 240.276875 -81.998814 
L 239.886882 -81.998814 
L 239.496889 -81.998814 
L 239.106895 -81.998814 
L 238.716902 -81.998814 
L 238.326908 -81.998814 
L 237.936915 -81.998814 
L 237.546922 -81.998814 
L 237.156928 -81.998814 
L 236.766935 -81.998814 
L 236.376942 -81.998814 
L 235.986948 -81.998814 
L 235.596955 -81.998814 
L 235.206961 -81.998814 
L 234.816968 -81.998814 
L 234.426975 -81.998814 
L 234.036981 -81.998814 
L 233.646988 -81.998814 
z
" style="stroke: #0c8066; stroke-opacity: 0.3"/>
    </defs>
    <g clip-path="url(#p55f33f3152)">
     <use xlink:href="#mb3fbb61b4c" x="0" y="288" style="fill: #0c8066; fill-opacity: 0.3; stroke: #0c8066; stroke-opacity: 0.3"/>
    </g>
   </g>
   <g id="PolyCollection_10">
    <defs>
     <path id="m384502b7c5" d="M 243.786816 -117.059501 
L 243.786816 -113.998484 
L 247.340089 -113.112889 
L 250.893362 -112.153653 
L 254.446634 -111.174555 
L 257.999907 -110.240456 
L 261.55318 -109.420325 
L 265.106453 -108.778972 
L 268.659726 -108.368939 
L 272.212999 -108.223776 
L 275.766272 -108.353435 
L 279.319545 -108.742162 
L 282.872818 -109.349302 
L 286.426091 -110.11366 
L 289.979364 -110.961771 
L 293.532637 -111.819328 
L 297.08591 -112.623421 
L 300.639183 -113.33216 
L 304.192456 -113.928607 
L 307.745728 -114.417791 
L 311.299001 -114.818162 
L 314.852274 -115.150922 
L 318.405547 -115.431298 
L 321.95882 -115.664788 
L 325.512093 -115.849075 
L 329.065366 -115.979822 
L 332.618639 -116.056907 
L 336.171912 -116.087793 
L 339.725185 -116.086449 
L 343.278458 -116.068761 
L 346.831731 -116.047223 
L 350.385004 -116.027878 
L 353.938277 -116.010982 
L 357.49155 -115.994607 
L 361.044823 -115.978872 
L 364.598095 -115.968394 
L 368.151368 -115.971787 
L 371.704641 -115.998715 
L 375.257914 -116.056074 
L 378.811187 -116.145064 
L 382.36446 -116.260279 
L 382.36446 -117.059501 
L 382.36446 -117.059501 
L 378.811187 -117.059501 
L 375.257914 -117.059501 
L 371.704641 -117.059501 
L 368.151368 -117.059501 
L 364.598095 -117.059501 
L 361.044823 -117.059501 
L 357.49155 -117.059501 
L 353.938277 -117.059501 
L 350.385004 -117.059501 
L 346.831731 -117.059501 
L 343.278458 -117.059501 
L 339.725185 -117.059501 
L 336.171912 -117.059501 
L 332.618639 -117.059501 
L 329.065366 -117.059501 
L 325.512093 -117.059501 
L 321.95882 -117.059501 
L 318.405547 -117.059501 
L 314.852274 -117.059501 
L 311.299001 -117.059501 
L 307.745728 -117.059501 
L 304.192456 -117.059501 
L 300.639183 -117.059501 
L 297.08591 -117.059501 
L 293.532637 -117.059501 
L 289.979364 -117.059501 
L 286.426091 -117.059501 
L 282.872818 -117.059501 
L 279.319545 -117.059501 
L 275.766272 -117.059501 
L 272.212999 -117.059501 
L 268.659726 -117.059501 
L 265.106453 -117.059501 
L 261.55318 -117.059501 
L 257.999907 -117.059501 
L 254.446634 -117.059501 
L 250.893362 -117.059501 
L 247.340089 -117.059501 
L 243.786816 -117.059501 
z
" style="stroke: #0c8066; stroke-opacity: 0.3"/>
    </defs>
    <g clip-path="url(#p55f33f3152)">
     <use xlink:href="#m384502b7c5" x="0" y="288" style="fill: #0c8066; fill-opacity: 0.3; stroke: #0c8066; stroke-opacity: 0.3"/>
    </g>
   </g>
   <g id="PolyCollection_11">
    <defs>
     <path id="me387c255dd" d="M 236.181945 -152.041884 
L 236.181945 -150.371029 
L 237.85025 -149.507143 
L 239.518555 -148.389635 
L 241.18686 -147.082636 
L 242.855165 -145.729496 
L 244.52347 -144.525775 
L 246.191775 -143.659402 
L 247.86008 -143.244755 
L 249.528385 -143.284123 
L 251.19669 -143.675297 
L 252.864995 -144.258807 
L 254.5333 -144.879043 
L 256.201605 -145.430383 
L 257.86991 -145.872181 
L 259.538215 -146.215898 
L 261.20652 -146.500575 
L 262.874825 -146.771552 
L 264.54313 -147.066722 
L 266.211434 -147.407323 
L 267.879739 -147.792264 
L 269.548044 -148.199807 
L 271.216349 -148.598968 
L 272.884654 -148.965569 
L 274.552959 -149.293253 
L 276.221264 -149.593495 
L 277.889569 -149.886511 
L 279.557874 -150.189501 
L 281.226179 -150.507881 
L 282.894484 -150.832328 
L 284.562789 -151.142163 
L 286.231094 -151.413359 
L 287.899399 -151.62734 
L 289.567704 -151.776273 
L 291.236009 -151.863004 
L 292.904314 -151.89739 
L 294.572619 -151.892512 
L 296.240924 -151.862985 
L 297.909229 -151.824654 
L 299.577534 -151.793355 
L 301.245839 -151.781529 
L 301.245839 -152.041884 
L 301.245839 -152.041884 
L 299.577534 -152.041884 
L 297.909229 -152.041884 
L 296.240924 -152.041884 
L 294.572619 -152.041884 
L 292.904314 -152.041884 
L 291.236009 -152.041884 
L 289.567704 -152.041884 
L 287.899399 -152.041884 
L 286.231094 -152.041884 
L 284.562789 -152.041884 
L 282.894484 -152.041884 
L 281.226179 -152.041884 
L 279.557874 -152.041884 
L 277.889569 -152.041884 
L 276.221264 -152.041884 
L 274.552959 -152.041884 
L 272.884654 -152.041884 
L 271.216349 -152.041884 
L 269.548044 -152.041884 
L 267.879739 -152.041884 
L 266.211434 -152.041884 
L 264.54313 -152.041884 
L 262.874825 -152.041884 
L 261.20652 -152.041884 
L 259.538215 -152.041884 
L 257.86991 -152.041884 
L 256.201605 -152.041884 
L 254.5333 -152.041884 
L 252.864995 -152.041884 
L 251.19669 -152.041884 
L 249.528385 -152.041884 
L 247.86008 -152.041884 
L 246.191775 -152.041884 
L 244.52347 -152.041884 
L 242.855165 -152.041884 
L 241.18686 -152.041884 
L 239.518555 -152.041884 
L 237.85025 -152.041884 
L 236.181945 -152.041884 
z
" style="stroke: #0c8066; stroke-opacity: 0.3"/>
    </defs>
    <g clip-path="url(#p55f33f3152)">
     <use xlink:href="#me387c255dd" x="0" y="288" style="fill: #0c8066; fill-opacity: 0.3; stroke: #0c8066; stroke-opacity: 0.3"/>
    </g>
   </g>
   <g id="PolyCollection_12">
    <defs>
     <path id="mca9803fc40" d="M 252.067675 -187.10967 
L 252.067675 -184.402745 
L 255.031625 -183.702132 
L 257.995574 -182.938906 
L 260.959524 -182.143442 
L 263.923473 -181.352038 
L 266.887423 -180.602615 
L 269.851373 -179.929742 
L 272.815322 -179.360134 
L 275.779272 -178.90974 
L 278.743221 -178.583102 
L 281.707171 -178.375027 
L 284.671121 -178.273927 
L 287.63507 -178.265734 
L 290.59902 -178.337277 
L 293.56297 -178.478237 
L 296.526919 -178.681373 
L 299.490869 -178.941231 
L 302.454818 -179.251924 
L 305.418768 -179.604771 
L 308.382718 -179.986491 
L 311.346667 -180.378533 
L 314.310617 -180.757941 
L 317.274567 -181.099915 
L 320.238516 -181.381914 
L 323.202466 -181.588573 
L 326.166415 -181.716205 
L 329.130365 -181.775363 
L 332.094315 -181.790161 
L 335.058264 -181.793979 
L 338.022214 -181.822396 
L 340.986163 -181.905329 
L 343.950113 -182.060826 
L 346.914063 -182.292475 
L 349.878012 -182.591051 
L 352.841962 -182.93945 
L 355.805912 -183.318751 
L 358.769861 -183.713059 
L 361.733811 -184.111547 
L 364.69776 -184.507575 
L 367.66171 -184.896059 
L 367.66171 -187.10967 
L 367.66171 -187.10967 
L 364.69776 -187.10967 
L 361.733811 -187.10967 
L 358.769861 -187.10967 
L 355.805912 -187.10967 
L 352.841962 -187.10967 
L 349.878012 -187.10967 
L 346.914063 -187.10967 
L 343.950113 -187.10967 
L 340.986163 -187.10967 
L 338.022214 -187.10967 
L 335.058264 -187.10967 
L 332.094315 -187.10967 
L 329.130365 -187.10967 
L 326.166415 -187.10967 
L 323.202466 -187.10967 
L 320.238516 -187.10967 
L 317.274567 -187.10967 
L 314.310617 -187.10967 
L 311.346667 -187.10967 
L 308.382718 -187.10967 
L 305.418768 -187.10967 
L 302.454818 -187.10967 
L 299.490869 -187.10967 
L 296.526919 -187.10967 
L 293.56297 -187.10967 
L 290.59902 -187.10967 
L 287.63507 -187.10967 
L 284.671121 -187.10967 
L 281.707171 -187.10967 
L 278.743221 -187.10967 
L 275.779272 -187.10967 
L 272.815322 -187.10967 
L 269.851373 -187.10967 
L 266.887423 -187.10967 
L 263.923473 -187.10967 
L 260.959524 -187.10967 
L 257.995574 -187.10967 
L 255.031625 -187.10967 
L 252.067675 -187.10967 
z
" style="stroke: #0c8066; stroke-opacity: 0.3"/>
    </defs>
    <g clip-path="url(#p55f33f3152)">
     <use xlink:href="#mca9803fc40" x="0" y="288" style="fill: #0c8066; fill-opacity: 0.3; stroke: #0c8066; stroke-opacity: 0.3"/>
    </g>
   </g>
   <g id="PolyCollection_13">
    <defs>
     <path id="meda97fba59" d="M 236.553739 -222.100496 
L 236.553739 -219.744477 
L 239.428423 -218.816001 
L 242.303108 -217.733832 
L 245.177792 -216.566817 
L 248.052476 -215.42466 
L 250.927161 -214.439839 
L 253.801845 -213.729357 
L 256.67653 -213.352113 
L 259.551214 -213.286713 
L 262.425899 -213.445125 
L 265.300583 -213.714778 
L 268.175268 -214.004307 
L 271.049952 -214.269828 
L 273.924637 -214.515163 
L 276.799321 -214.775218 
L 279.674006 -215.095711 
L 282.54869 -215.516803 
L 285.423375 -216.061523 
L 288.298059 -216.728055 
L 291.172744 -217.486769 
L 294.047428 -218.284138 
L 296.922112 -219.053918 
L 299.796797 -219.732565 
L 302.671481 -220.273717 
L 305.546166 -220.657045 
L 308.42085 -220.889379 
L 311.295535 -220.999047 
L 314.170219 -221.026544 
L 317.044904 -221.015031 
L 319.919588 -221.002904 
L 322.794273 -221.018758 
L 325.668957 -221.078013 
L 328.543642 -221.181001 
L 331.418326 -221.313742 
L 334.293011 -221.452909 
L 337.167695 -221.574624 
L 340.04238 -221.663776 
L 342.917064 -221.719216 
L 345.791748 -221.752046 
L 348.666433 -221.778266 
L 348.666433 -222.100496 
L 348.666433 -222.100496 
L 345.791748 -222.100496 
L 342.917064 -222.100496 
L 340.04238 -222.100496 
L 337.167695 -222.100496 
L 334.293011 -222.100496 
L 331.418326 -222.100496 
L 328.543642 -222.100496 
L 325.668957 -222.100496 
L 322.794273 -222.100496 
L 319.919588 -222.100496 
L 317.044904 -222.100496 
L 314.170219 -222.100496 
L 311.295535 -222.100496 
L 308.42085 -222.100496 
L 305.546166 -222.100496 
L 302.671481 -222.100496 
L 299.796797 -222.100496 
L 296.922112 -222.100496 
L 294.047428 -222.100496 
L 291.172744 -222.100496 
L 288.298059 -222.100496 
L 285.423375 -222.100496 
L 282.54869 -222.100496 
L 279.674006 -222.100496 
L 276.799321 -222.100496 
L 273.924637 -222.100496 
L 271.049952 -222.100496 
L 268.175268 -222.100496 
L 265.300583 -222.100496 
L 262.425899 -222.100496 
L 259.551214 -222.100496 
L 256.67653 -222.100496 
L 253.801845 -222.100496 
L 250.927161 -222.100496 
L 248.052476 -222.100496 
L 245.177792 -222.100496 
L 242.303108 -222.100496 
L 239.428423 -222.100496 
L 236.553739 -222.100496 
z
" style="stroke: #0c8066; stroke-opacity: 0.3"/>
    </defs>
    <g clip-path="url(#p55f33f3152)">
     <use xlink:href="#meda97fba59" x="0" y="288" style="fill: #0c8066; fill-opacity: 0.3; stroke: #0c8066; stroke-opacity: 0.3"/>
    </g>
   </g>
   <g id="PolyCollection_14">
    <defs>
     <path id="mfb6d897ee4" d="M 245.814781 -257.085183 
L 245.814781 -256.245683 
L 250.078709 -255.694245 
L 254.342636 -254.873212 
L 258.606564 -253.766394 
L 262.870491 -252.439454 
L 267.134419 -251.045498 
L 271.398346 -249.788914 
L 275.662274 -248.858881 
L 279.926201 -248.364691 
L 284.190129 -248.307692 
L 288.454056 -248.603015 
L 292.717984 -249.13183 
L 296.981911 -249.787399 
L 301.245839 -250.491279 
L 305.509766 -251.187663 
L 309.773694 -251.840603 
L 314.037622 -252.443237 
L 318.301549 -253.022313 
L 322.565477 -253.619506 
L 326.829404 -254.255576 
L 331.093332 -254.905032 
L 335.357259 -255.503725 
L 339.621187 -255.984575 
L 343.885114 -256.314069 
L 348.149042 -256.504629 
L 352.412969 -256.599897 
L 356.676897 -256.648743 
L 360.940824 -256.685238 
L 365.204752 -256.722028 
L 369.468679 -256.755873 
L 373.732607 -256.780029 
L 377.996534 -256.795184 
L 382.260462 -256.810607 
L 386.524389 -256.83482 
L 390.788317 -256.865463 
L 395.052244 -256.889379 
L 399.316172 -256.893741 
L 403.5801 -256.878224 
L 407.844027 -256.857384 
L 412.107955 -256.851053 
L 412.107955 -257.085183 
L 412.107955 -257.085183 
L 407.844027 -257.085183 
L 403.5801 -257.085183 
L 399.316172 -257.085183 
L 395.052244 -257.085183 
L 390.788317 -257.085183 
L 386.524389 -257.085183 
L 382.260462 -257.085183 
L 377.996534 -257.085183 
L 373.732607 -257.085183 
L 369.468679 -257.085183 
L 365.204752 -257.085183 
L 360.940824 -257.085183 
L 356.676897 -257.085183 
L 352.412969 -257.085183 
L 348.149042 -257.085183 
L 343.885114 -257.085183 
L 339.621187 -257.085183 
L 335.357259 -257.085183 
L 331.093332 -257.085183 
L 326.829404 -257.085183 
L 322.565477 -257.085183 
L 318.301549 -257.085183 
L 314.037622 -257.085183 
L 309.773694 -257.085183 
L 305.509766 -257.085183 
L 301.245839 -257.085183 
L 296.981911 -257.085183 
L 292.717984 -257.085183 
L 288.454056 -257.085183 
L 284.190129 -257.085183 
L 279.926201 -257.085183 
L 275.662274 -257.085183 
L 271.398346 -257.085183 
L 267.134419 -257.085183 
L 262.870491 -257.085183 
L 258.606564 -257.085183 
L 254.342636 -257.085183 
L 250.078709 -257.085183 
L 245.814781 -257.085183 
z
" style="stroke: #0c8066; stroke-opacity: 0.3"/>
    </defs>
    <g clip-path="url(#p55f33f3152)">
     <use xlink:href="#mfb6d897ee4" x="0" y="288" style="fill: #0c8066; fill-opacity: 0.3; stroke: #0c8066; stroke-opacity: 0.3"/>
    </g>
   </g>
   <g id="matplotlib.axis_1">
    <g id="xtick_1">
     <g id="line2d_1">
      <defs>
       <path id="mf9d87b4daa" d="M 0 0 
L 0 3.5 
" style="stroke: #000000; stroke-width: 0.8"/>
      </defs>
      <g>
       <use xlink:href="#mf9d87b4daa" x="230.267045" y="261.2" style="stroke: #000000; stroke-width: 0.8"/>
      </g>
     </g>
     <g id="text_1">
      <text style="font: 10px 'serif'; text-anchor: middle" x="230.267045" y="275.798437" transform="rotate(-0, 230.267045, 275.798437)">0</text>
     </g>
    </g>
    <g id="xtick_2">
     <g id="line2d_2">
      <g>
       <use xlink:href="#mf9d87b4daa" x="264.066471" y="261.2" style="stroke: #000000; stroke-width: 0.8"/>
      </g>
     </g>
     <g id="text_2">
      <text style="font: 10px 'serif'; text-anchor: middle" x="264.066471" y="275.798437" transform="rotate(-0, 264.066471, 275.798437)">20</text>
     </g>
    </g>
    <g id="xtick_3">
     <g id="line2d_3">
      <g>
       <use xlink:href="#mf9d87b4daa" x="297.865896" y="261.2" style="stroke: #000000; stroke-width: 0.8"/>
      </g>
     </g>
     <g id="text_3">
      <text style="font: 10px 'serif'; text-anchor: middle" x="297.865896" y="275.798437" transform="rotate(-0, 297.865896, 275.798437)">40</text>
     </g>
    </g>
    <g id="xtick_4">
     <g id="line2d_4">
      <g>
       <use xlink:href="#mf9d87b4daa" x="331.665322" y="261.2" style="stroke: #000000; stroke-width: 0.8"/>
      </g>
     </g>
     <g id="text_4">
      <text style="font: 10px 'serif'; text-anchor: middle" x="331.665322" y="275.798437" transform="rotate(-0, 331.665322, 275.798437)">60</text>
     </g>
    </g>
    <g id="xtick_5">
     <g id="line2d_5">
      <g>
       <use xlink:href="#mf9d87b4daa" x="365.464747" y="261.2" style="stroke: #000000; stroke-width: 0.8"/>
      </g>
     </g>
     <g id="text_5">
      <text style="font: 10px 'serif'; text-anchor: middle" x="365.464747" y="275.798437" transform="rotate(-0, 365.464747, 275.798437)">80</text>
     </g>
    </g>
    <g id="xtick_6">
     <g id="line2d_6">
      <g>
       <use xlink:href="#mf9d87b4daa" x="399.264173" y="261.2" style="stroke: #000000; stroke-width: 0.8"/>
      </g>
     </g>
     <g id="text_6">
      <text style="font: 10px 'serif'; text-anchor: middle" x="399.264173" y="275.798437" transform="rotate(-0, 399.264173, 275.798437)">100</text>
     </g>
    </g>
   </g>
   <g id="matplotlib.axis_2">
    <g id="ytick_1">
     <g id="text_7">
      <text style="font: 10px 'serif'; text-anchor: end" x="214.175" y="244.862156" transform="rotate(-0, 214.175, 244.862156)">No. of connections</text>
     </g>
    </g>
    <g id="ytick_2">
     <g id="text_8">
      <text style="font: 10px 'serif'; text-anchor: end" x="214.175" y="209.841177" transform="rotate(-0, 214.175, 209.841177)">No. of stems</text>
     </g>
    </g>
    <g id="ytick_3">
     <g id="text_9">
      <text style="font: 10px 'serif'; text-anchor: end" x="214.175" y="174.820198" transform="rotate(-0, 214.175, 174.820198)">No. of branches</text>
     </g>
    </g>
    <g id="ytick_4">
     <g id="text_10">
      <text style="font: 10px 'serif'; text-anchor: end" x="214.175" y="139.799219" transform="rotate(-0, 214.175, 139.799219)">Dendritic reach ($\mu{}m$) x0.1</text>
     </g>
    </g>
    <g id="ytick_5">
     <g id="text_11">
      <text style="font: 10px 'serif'; text-anchor: end" x="214.175" y="104.77824" transform="rotate(-0, 214.175, 104.77824)">Straightness x100.0</text>
     </g>
    </g>
    <g id="ytick_6">
     <g id="text_12">
      <text style="font: 10px 'serif'; text-anchor: end" x="214.175" y="69.757261" transform="rotate(-0, 214.175, 69.757261)">Dendrite total length ($\mu{}m$) x0.01</text>
     </g>
    </g>
    <g id="ytick_7">
     <g id="text_13">
      <text style="font: 10px 'serif'; text-anchor: end" x="214.175" y="34.736282" transform="rotate(-0, 214.175, 34.736282)">Dendrite longest path ($\mu{}m$) x0.1</text>
     </g>
    </g>
   </g>
   <g id="legend_1">
    <g id="patch_3">
     <path d="M 283.876562 256.2 
L 414.2 256.2 
Q 416.2 256.2 416.2 254.2 
L 416.2 225.84375 
Q 416.2 223.84375 414.2 223.84375 
L 283.876562 223.84375 
Q 281.876562 223.84375 281.876562 225.84375 
L 281.876562 254.2 
Q 281.876562 256.2 283.876562 256.2 
z
" style="fill: #ffffff; opacity: 0.8; stroke: #cccccc; stroke-linejoin: miter"/>
    </g>
    <g id="patch_4">
     <path d="M 285.876562 235.442187 
L 305.876562 235.442187 
L 305.876562 228.442187 
L 285.876562 228.442187 
z
" style="fill: #6ebbd5; opacity: 0.5; stroke: #6ebbd5; stroke-linejoin: miter"/>
    </g>
    <g id="text_14">
     <text style="font: 10px 'serif'; text-anchor: start" x="313.876562" y="235.442187" transform="rotate(-0, 313.876562, 235.442187)">Generated network</text>
    </g>
    <g id="patch_5">
     <path d="M 285.876562 250.120313 
L 305.876562 250.120313 
L 305.876562 243.120313 
L 285.876562 243.120313 
z
" style="fill: #0c8066; opacity: 0.5; stroke: #0c8066; stroke-linejoin: miter"/>
    </g>
    <g id="text_15">
     <text style="font: 10px 'serif'; text-anchor: start" x="313.876562" y="250.120313" transform="rotate(-0, 313.876562, 250.120313)">Literature</text>
    </g>
   </g>
  </g>
 </g>
 <defs>
  <clipPath id="p55f33f3152">
   <rect x="221.175" y="10.8" width="200.025" height="250.4"/>
  </clipPath>
 </defs>
</svg>
