<?xml version="1.0" encoding="utf-8" standalone="no"?>
<!DOCTYPE svg PUBLIC "-//W3C//DTD SVG 1.1//EN"
  "http://www.w3.org/Graphics/SVG/1.1/DTD/svg11.dtd">
<svg xmlns:xlink="http://www.w3.org/1999/xlink" width="432pt" height="288pt" viewBox="0 0 432 288" xmlns="http://www.w3.org/2000/svg" version="1.1">
 <metadata>
  <rdf:RDF xmlns:dc="http://purl.org/dc/elements/1.1/" xmlns:cc="http://creativecommons.org/ns#" xmlns:rdf="http://www.w3.org/1999/02/22-rdf-syntax-ns#">
   <cc:Work>
    <dc:type rdf:resource="http://purl.org/dc/dcmitype/StillImage"/>
    <dc:date>2022-05-19T15:48:15.556689</dc:date>
    <dc:format>image/svg+xml</dc:format>
    <dc:creator>
     <cc:Agent>
      <dc:title>Matplotlib v3.5.1, https://matplotlib.org/</dc:title>
     </cc:Agent>
    </dc:creator>
   </cc:Work>
  </rdf:RDF>
 </metadata>
 <defs>
  <style type="text/css">*{stroke-linejoin: round; stroke-linecap: butt}</style>
 </defs>
 <g id="figure_1">
  <g id="patch_1">
   <path d="M 0 288 
L 432 288 
L 432 0 
L 0 0 
L 0 288 
z
" style="fill: none"/>
  </g>
  <g id="axes_1">
   <g id="patch_2">
    <path d="M 43.675 248.075 
L 421.2 248.075 
L 421.2 26.8 
L 43.675 26.8 
z
" style="fill: #ffffff"/>
   </g>
   <g id="PolyCollection_1">
    <defs>
     <path id="m1b97394795" d="M 78.274582 -183.762113 
L 74.596285 -183.762113 
L 74.538895 -184.404092 
L 74.483586 -185.046071 
L 74.430139 -185.68805 
L 74.378266 -186.330029 
L 74.327622 -186.972008 
L 74.277812 -187.613987 
L 74.228405 -188.255967 
L 74.178941 -188.897946 
L 74.128945 -189.539925 
L 74.077935 -190.181904 
L 74.025436 -190.823883 
L 73.970986 -191.465862 
L 73.914147 -192.107841 
L 73.854508 -192.74982 
L 73.791696 -193.3918 
L 73.725376 -194.033779 
L 73.655253 -194.675758 
L 73.581074 -195.317737 
L 73.502626 -195.959716 
L 73.419734 -196.601695 
L 73.332256 -197.243674 
L 73.240079 -197.885653 
L 73.143112 -198.527633 
L 73.041278 -199.169612 
L 72.934508 -199.811591 
L 72.822728 -200.45357 
L 72.705853 -201.095549 
L 72.583776 -201.737528 
L 72.456359 -202.379507 
L 72.323422 -203.021486 
L 72.184736 -203.663466 
L 72.040011 -204.305445 
L 71.888895 -204.947424 
L 71.730967 -205.589403 
L 71.565734 -206.231382 
L 71.392632 -206.873361 
L 71.211031 -207.51534 
L 71.020245 -208.157319 
L 70.819537 -208.799299 
L 70.608142 -209.441278 
L 70.385285 -210.083257 
L 70.150203 -210.725236 
L 69.902178 -211.367215 
L 69.640563 -212.009194 
L 69.36482 -212.651173 
L 69.074553 -213.293152 
L 68.769544 -213.935132 
L 68.449788 -214.577111 
L 68.115525 -215.21909 
L 67.76727 -215.861069 
L 67.405838 -216.503048 
L 67.032357 -217.145027 
L 66.648282 -217.787006 
L 66.255398 -218.428985 
L 65.855806 -219.070965 
L 65.451916 -219.712944 
L 65.046409 -220.354923 
L 64.642211 -220.996902 
L 64.242445 -221.638881 
L 63.850378 -222.28086 
L 63.469364 -222.922839 
L 63.102786 -223.564818 
L 62.753986 -224.206798 
L 62.426204 -224.848777 
L 62.122518 -225.490756 
L 61.845777 -226.132735 
L 61.598558 -226.774714 
L 61.383114 -227.416693 
L 61.201342 -228.058672 
L 61.054754 -228.700651 
L 60.944464 -229.342631 
L 60.871184 -229.98461 
L 60.835227 -230.626589 
L 60.836528 -231.268568 
L 60.874664 -231.910547 
L 60.94889 -232.552526 
L 61.058176 -233.194505 
L 61.201248 -233.836484 
L 61.376631 -234.478464 
L 61.582694 -235.120443 
L 61.817692 -235.762422 
L 62.079802 -236.404401 
L 62.367159 -237.04638 
L 62.677884 -237.688359 
L 63.010104 -238.330338 
L 63.36197 -238.972317 
L 63.731665 -239.614297 
L 64.117408 -240.256276 
L 64.517454 -240.898255 
L 64.930088 -241.540234 
L 65.353618 -242.182213 
L 65.786365 -242.824192 
L 66.226656 -243.466171 
L 66.672812 -244.10815 
L 67.123145 -244.75013 
L 67.575953 -245.392109 
L 68.029519 -246.034088 
L 68.482116 -246.676067 
L 68.932012 -247.318046 
L 83.938856 -247.318046 
L 83.938856 -247.318046 
L 84.388751 -246.676067 
L 84.841348 -246.034088 
L 85.294915 -245.392109 
L 85.747723 -244.75013 
L 86.198056 -244.10815 
L 86.644212 -243.466171 
L 87.084503 -242.824192 
L 87.51725 -242.182213 
L 87.94078 -241.540234 
L 88.353414 -240.898255 
L 88.75346 -240.256276 
L 89.139203 -239.614297 
L 89.508898 -238.972317 
L 89.860764 -238.330338 
L 90.192984 -237.688359 
L 90.503709 -237.04638 
L 90.791066 -236.404401 
L 91.053176 -235.762422 
L 91.288174 -235.120443 
L 91.494237 -234.478464 
L 91.66962 -233.836484 
L 91.812691 -233.194505 
L 91.921977 -232.552526 
L 91.996204 -231.910547 
L 92.03434 -231.268568 
L 92.03564 -230.626589 
L 91.999684 -229.98461 
L 91.926403 -229.342631 
L 91.816114 -228.700651 
L 91.669526 -228.058672 
L 91.487753 -227.416693 
L 91.27231 -226.774714 
L 91.025091 -226.132735 
L 90.74835 -225.490756 
L 90.444663 -224.848777 
L 90.116882 -224.206798 
L 89.768082 -223.564818 
L 89.401504 -222.922839 
L 89.02049 -222.28086 
L 88.628422 -221.638881 
L 88.228656 -220.996902 
L 87.824459 -220.354923 
L 87.418952 -219.712944 
L 87.015061 -219.070965 
L 86.61547 -218.428985 
L 86.222586 -217.787006 
L 85.838511 -217.145027 
L 85.46503 -216.503048 
L 85.103597 -215.861069 
L 84.755343 -215.21909 
L 84.42108 -214.577111 
L 84.101324 -213.935132 
L 83.796315 -213.293152 
L 83.506047 -212.651173 
L 83.230305 -212.009194 
L 82.96869 -211.367215 
L 82.720665 -210.725236 
L 82.485583 -210.083257 
L 82.262726 -209.441278 
L 82.051331 -208.799299 
L 81.850623 -208.157319 
L 81.659836 -207.51534 
L 81.478236 -206.873361 
L 81.305134 -206.231382 
L 81.139901 -205.589403 
L 80.981973 -204.947424 
L 80.830857 -204.305445 
L 80.686132 -203.663466 
L 80.547445 -203.021486 
L 80.414509 -202.379507 
L 80.287092 -201.737528 
L 80.165015 -201.095549 
L 80.04814 -200.45357 
L 79.93636 -199.811591 
L 79.82959 -199.169612 
L 79.727756 -198.527633 
L 79.630789 -197.885653 
L 79.538612 -197.243674 
L 79.451134 -196.601695 
L 79.368242 -195.959716 
L 79.289794 -195.317737 
L 79.215615 -194.675758 
L 79.145492 -194.033779 
L 79.079172 -193.3918 
L 79.01636 -192.74982 
L 78.956721 -192.107841 
L 78.899881 -191.465862 
L 78.845431 -190.823883 
L 78.792932 -190.181904 
L 78.741923 -189.539925 
L 78.691927 -188.897946 
L 78.642463 -188.255967 
L 78.593056 -187.613987 
L 78.543246 -186.972008 
L 78.492602 -186.330029 
L 78.440728 -185.68805 
L 78.387281 -185.046071 
L 78.331973 -184.404092 
L 78.274582 -183.762113 
z
" style="stroke: #6ebbd5; stroke-opacity: 0.3"/>
    </defs>
    <g clip-path="url(#p85b4070e43)">
     <use xlink:href="#m1b97394795" x="0" y="288" style="fill: #6ebbd5; fill-opacity: 0.3; stroke: #6ebbd5; stroke-opacity: 0.3"/>
    </g>
   </g>
   <g id="PolyCollection_2">
    <defs>
     <path id="m78b9e69d1f" d="M 142.960472 -190.452211 
L 134.712049 -190.452211 
L 134.514893 -191.060402 
L 134.317648 -191.668592 
L 134.120853 -192.276783 
L 133.925022 -192.884974 
L 133.730632 -193.493165 
L 133.538115 -194.101355 
L 133.34785 -194.709546 
L 133.160153 -195.317737 
L 132.975267 -195.925928 
L 132.793356 -196.534118 
L 132.614497 -197.142309 
L 132.438674 -197.7505 
L 132.265773 -198.358691 
L 132.095582 -198.966881 
L 131.927786 -199.575072 
L 131.761972 -200.183263 
L 131.597635 -200.791454 
L 131.434177 -201.399644 
L 131.270925 -202.007835 
L 131.107141 -202.616026 
L 130.942031 -203.224217 
L 130.774772 -203.832407 
L 130.604524 -204.440598 
L 130.430455 -205.048789 
L 130.251761 -205.65698 
L 130.067693 -206.26517 
L 129.87758 -206.873361 
L 129.68085 -207.481552 
L 129.477056 -208.089743 
L 129.265894 -208.697933 
L 129.047225 -209.306124 
L 128.821084 -209.914315 
L 128.5877 -210.522506 
L 128.347494 -211.130696 
L 128.10109 -211.738887 
L 127.849304 -212.347078 
L 127.593142 -212.955269 
L 127.333784 -213.563459 
L 127.072565 -214.17165 
L 126.810952 -214.779841 
L 126.550514 -215.388032 
L 126.292891 -215.996222 
L 126.039756 -216.604413 
L 125.792782 -217.212604 
L 125.553594 -217.820795 
L 125.323738 -218.428985 
L 125.104637 -219.037176 
L 124.897559 -219.645367 
L 124.703578 -220.253558 
L 124.523553 -220.861748 
L 124.358102 -221.469939 
L 124.207585 -222.07813 
L 124.072099 -222.686321 
L 123.951473 -223.294511 
L 123.845283 -223.902702 
L 123.752859 -224.510893 
L 123.673317 -225.119084 
L 123.605586 -225.727274 
L 123.548449 -226.335465 
L 123.500584 -226.943656 
L 123.460616 -227.551847 
L 123.427166 -228.160037 
L 123.398904 -228.768228 
L 123.374603 -229.376419 
L 123.353188 -229.98461 
L 123.33378 -230.5928 
L 123.315742 -231.200991 
L 123.298708 -231.809182 
L 123.282612 -232.417373 
L 123.267704 -233.025563 
L 123.254555 -233.633754 
L 123.244055 -234.241945 
L 123.237396 -234.850136 
L 123.236054 -235.458326 
L 123.241747 -236.066517 
L 123.2564 -236.674708 
L 123.282091 -237.282899 
L 123.321002 -237.891089 
L 123.375351 -238.49928 
L 123.447338 -239.107471 
L 123.539082 -239.715662 
L 123.652558 -240.323852 
L 123.789543 -240.932043 
L 123.951561 -241.540234 
L 124.139842 -242.148425 
L 124.355279 -242.756615 
L 124.598402 -243.364806 
L 124.869357 -243.972997 
L 125.167894 -244.581188 
L 125.493369 -245.189378 
L 125.844752 -245.797569 
L 126.220646 -246.40576 
L 126.619308 -247.013951 
L 127.038689 -247.622141 
L 127.476473 -248.230332 
L 127.930114 -248.838523 
L 128.396893 -249.446714 
L 128.873963 -250.054904 
L 129.3584 -250.663095 
L 148.314121 -250.663095 
L 148.314121 -250.663095 
L 148.798558 -250.054904 
L 149.275628 -249.446714 
L 149.742407 -248.838523 
L 150.196048 -248.230332 
L 150.633831 -247.622141 
L 151.053213 -247.013951 
L 151.451875 -246.40576 
L 151.827768 -245.797569 
L 152.179152 -245.189378 
L 152.504627 -244.581188 
L 152.803164 -243.972997 
L 153.074118 -243.364806 
L 153.317242 -242.756615 
L 153.532679 -242.148425 
L 153.72096 -241.540234 
L 153.882978 -240.932043 
L 154.019963 -240.323852 
L 154.133439 -239.715662 
L 154.225182 -239.107471 
L 154.29717 -238.49928 
L 154.351519 -237.891089 
L 154.390429 -237.282899 
L 154.416121 -236.674708 
L 154.430774 -236.066517 
L 154.436467 -235.458326 
L 154.435124 -234.850136 
L 154.428466 -234.241945 
L 154.417965 -233.633754 
L 154.404816 -233.025563 
L 154.389909 -232.417373 
L 154.373813 -231.809182 
L 154.356779 -231.200991 
L 154.338741 -230.5928 
L 154.319333 -229.98461 
L 154.297917 -229.376419 
L 154.273616 -228.768228 
L 154.245355 -228.160037 
L 154.211905 -227.551847 
L 154.171937 -226.943656 
L 154.124072 -226.335465 
L 154.066934 -225.727274 
L 153.999204 -225.119084 
L 153.919662 -224.510893 
L 153.827238 -223.902702 
L 153.721047 -223.294511 
L 153.600422 -222.686321 
L 153.464935 -222.07813 
L 153.314418 -221.469939 
L 153.148967 -220.861748 
L 152.968943 -220.253558 
L 152.774962 -219.645367 
L 152.567883 -219.037176 
L 152.348783 -218.428985 
L 152.118927 -217.820795 
L 151.879739 -217.212604 
L 151.632764 -216.604413 
L 151.37963 -215.996222 
L 151.122007 -215.388032 
L 150.861569 -214.779841 
L 150.599956 -214.17165 
L 150.338737 -213.563459 
L 150.079379 -212.955269 
L 149.823217 -212.347078 
L 149.571431 -211.738887 
L 149.325026 -211.130696 
L 149.084821 -210.522506 
L 148.851436 -209.914315 
L 148.625296 -209.306124 
L 148.406627 -208.697933 
L 148.195465 -208.089743 
L 147.991671 -207.481552 
L 147.794941 -206.873361 
L 147.604828 -206.26517 
L 147.42076 -205.65698 
L 147.242066 -205.048789 
L 147.067996 -204.440598 
L 146.897748 -203.832407 
L 146.730489 -203.224217 
L 146.56538 -202.616026 
L 146.401595 -202.007835 
L 146.238344 -201.399644 
L 146.074886 -200.791454 
L 145.910548 -200.183263 
L 145.744735 -199.575072 
L 145.576939 -198.966881 
L 145.406747 -198.358691 
L 145.233847 -197.7505 
L 145.058023 -197.142309 
L 144.879164 -196.534118 
L 144.697253 -195.925928 
L 144.512367 -195.317737 
L 144.32467 -194.709546 
L 144.134406 -194.101355 
L 143.941889 -193.493165 
L 143.747499 -192.884974 
L 143.551668 -192.276783 
L 143.354873 -191.668592 
L 143.157628 -191.060402 
L 142.960472 -190.452211 
z
" style="stroke: #6ebbd5; stroke-opacity: 0.3"/>
    </defs>
    <g clip-path="url(#p85b4070e43)">
     <use xlink:href="#m78b9e69d1f" x="0" y="288" style="fill: #6ebbd5; fill-opacity: 0.3; stroke: #6ebbd5; stroke-opacity: 0.3"/>
    </g>
   </g>
   <g id="PolyCollection_3">
    <defs>
     <path id="m88bbb9e78d" d="M 210.143742 -163.691818 
L 192.330431 -163.691818 
L 191.857688 -164.097278 
L 191.385393 -164.502739 
L 190.916026 -164.908199 
L 190.452148 -165.31366 
L 189.996373 -165.71912 
L 189.551345 -166.124581 
L 189.119698 -166.530041 
L 188.704029 -166.935502 
L 188.306861 -167.340962 
L 187.930607 -167.746423 
L 187.577538 -168.151883 
L 187.249743 -168.557344 
L 186.949103 -168.962804 
L 186.677255 -169.368265 
L 186.435567 -169.773725 
L 186.22511 -170.179186 
L 186.046641 -170.584646 
L 185.900584 -170.990107 
L 185.78702 -171.395567 
L 185.705682 -171.801028 
L 185.655955 -172.206488 
L 185.63688 -172.611949 
L 185.647169 -173.017409 
L 185.685218 -173.42287 
L 185.749137 -173.82833 
L 185.836773 -174.233791 
L 185.945744 -174.639251 
L 186.073481 -175.044712 
L 186.217264 -175.450172 
L 186.374269 -175.855633 
L 186.541617 -176.261093 
L 186.716414 -176.666554 
L 186.895807 -177.072014 
L 187.077025 -177.477475 
L 187.257429 -177.882935 
L 187.434551 -178.288396 
L 187.606136 -178.693856 
L 187.770178 -179.099317 
L 187.924947 -179.504777 
L 188.069017 -179.910238 
L 188.201283 -180.315698 
L 188.320976 -180.721159 
L 188.427663 -181.126619 
L 188.521251 -181.53208 
L 188.601977 -181.93754 
L 188.670392 -182.343001 
L 188.727342 -182.748461 
L 188.773939 -183.153922 
L 188.811531 -183.559382 
L 188.841663 -183.964843 
L 188.86604 -184.370303 
L 188.886482 -184.775764 
L 188.904879 -185.181224 
L 188.92315 -185.586685 
L 188.943193 -185.992145 
L 188.966848 -186.397606 
L 188.995851 -186.803066 
L 189.031802 -187.208527 
L 189.076127 -187.613987 
L 189.130056 -188.019448 
L 189.1946 -188.424908 
L 189.27053 -188.830369 
L 189.358376 -189.235829 
L 189.458417 -189.64129 
L 189.570691 -190.04675 
L 189.694997 -190.452211 
L 189.830919 -190.857671 
L 189.977842 -191.263132 
L 190.134977 -191.668592 
L 190.301392 -192.074053 
L 190.476041 -192.479513 
L 190.657801 -192.884974 
L 190.845502 -193.290434 
L 191.037963 -193.695895 
L 191.234024 -194.101355 
L 191.432578 -194.506816 
L 191.632594 -194.912276 
L 191.833146 -195.317737 
L 192.033427 -195.723197 
L 192.23277 -196.128658 
L 192.430652 -196.534118 
L 192.626701 -196.939579 
L 192.820698 -197.345039 
L 193.012567 -197.7505 
L 193.202371 -198.15596 
L 193.390294 -198.561421 
L 193.576628 -198.966881 
L 193.76175 -199.372342 
L 193.946104 -199.777802 
L 194.130176 -200.183263 
L 194.31447 -200.588723 
L 194.499491 -200.994184 
L 194.685714 -201.399644 
L 194.873573 -201.805105 
L 195.063437 -202.210565 
L 195.255597 -202.616026 
L 195.450255 -203.021486 
L 195.64751 -203.426947 
L 195.847358 -203.832407 
L 206.626816 -203.832407 
L 206.626816 -203.832407 
L 206.826664 -203.426947 
L 207.023919 -203.021486 
L 207.218576 -202.616026 
L 207.410736 -202.210565 
L 207.600601 -201.805105 
L 207.788459 -201.399644 
L 207.974683 -200.994184 
L 208.159703 -200.588723 
L 208.343998 -200.183263 
L 208.528069 -199.777802 
L 208.712423 -199.372342 
L 208.897546 -198.966881 
L 209.08388 -198.561421 
L 209.271803 -198.15596 
L 209.461607 -197.7505 
L 209.653476 -197.345039 
L 209.847472 -196.939579 
L 210.043522 -196.534118 
L 210.241403 -196.128658 
L 210.440746 -195.723197 
L 210.641028 -195.317737 
L 210.841579 -194.912276 
L 211.041595 -194.506816 
L 211.240149 -194.101355 
L 211.436211 -193.695895 
L 211.628672 -193.290434 
L 211.816373 -192.884974 
L 211.998133 -192.479513 
L 212.172782 -192.074053 
L 212.339196 -191.668592 
L 212.496331 -191.263132 
L 212.643254 -190.857671 
L 212.779177 -190.452211 
L 212.903483 -190.04675 
L 213.015756 -189.64129 
L 213.115798 -189.235829 
L 213.203643 -188.830369 
L 213.279574 -188.424908 
L 213.344117 -188.019448 
L 213.398047 -187.613987 
L 213.442372 -187.208527 
L 213.478322 -186.803066 
L 213.507326 -186.397606 
L 213.53098 -185.992145 
L 213.551024 -185.586685 
L 213.569294 -185.181224 
L 213.587692 -184.775764 
L 213.608133 -184.370303 
L 213.63251 -183.964843 
L 213.662642 -183.559382 
L 213.700234 -183.153922 
L 213.746831 -182.748461 
L 213.803781 -182.343001 
L 213.872197 -181.93754 
L 213.952923 -181.53208 
L 214.046511 -181.126619 
L 214.153198 -180.721159 
L 214.27289 -180.315698 
L 214.405157 -179.910238 
L 214.549227 -179.504777 
L 214.703996 -179.099317 
L 214.868037 -178.693856 
L 215.039623 -178.288396 
L 215.216745 -177.882935 
L 215.397149 -177.477475 
L 215.578367 -177.072014 
L 215.75776 -176.666554 
L 215.932557 -176.261093 
L 216.099904 -175.855633 
L 216.25691 -175.450172 
L 216.400693 -175.044712 
L 216.528429 -174.639251 
L 216.637401 -174.233791 
L 216.725036 -173.82833 
L 216.788955 -173.42287 
L 216.827005 -173.017409 
L 216.837293 -172.611949 
L 216.818219 -172.206488 
L 216.768491 -171.801028 
L 216.687154 -171.395567 
L 216.57359 -170.990107 
L 216.427533 -170.584646 
L 216.249063 -170.179186 
L 216.038607 -169.773725 
L 215.796918 -169.368265 
L 215.525071 -168.962804 
L 215.224431 -168.557344 
L 214.896636 -168.151883 
L 214.543566 -167.746423 
L 214.167313 -167.340962 
L 213.770145 -166.935502 
L 213.354476 -166.530041 
L 212.922829 -166.124581 
L 212.4778 -165.71912 
L 212.022026 -165.31366 
L 211.558147 -164.908199 
L 211.08878 -164.502739 
L 210.616486 -164.097278 
L 210.143742 -163.691818 
z
" style="stroke: #6ebbd5; stroke-opacity: 0.3"/>
    </defs>
    <g clip-path="url(#p85b4070e43)">
     <use xlink:href="#m88bbb9e78d" x="0" y="288" style="fill: #6ebbd5; fill-opacity: 0.3; stroke: #6ebbd5; stroke-opacity: 0.3"/>
    </g>
   </g>
   <g id="PolyCollection_4">
    <defs>
     <path id="m596b7657c2" d="M 268.980804 -100.135884 
L 258.295022 -100.135884 
L 257.981128 -100.338615 
L 257.665723 -100.541345 
L 257.350452 -100.744075 
L 257.037007 -100.946805 
L 256.727101 -101.149536 
L 256.422437 -101.352266 
L 256.124676 -101.554996 
L 255.835404 -101.757726 
L 255.556092 -101.960457 
L 255.288071 -102.163187 
L 255.032489 -102.365917 
L 254.79029 -102.568647 
L 254.562178 -102.771378 
L 254.348604 -102.974108 
L 254.149741 -103.176838 
L 253.96548 -103.379568 
L 253.795423 -103.582299 
L 253.638888 -103.785029 
L 253.49492 -103.987759 
L 253.362311 -104.190489 
L 253.239624 -104.39322 
L 253.125228 -104.59595 
L 253.017337 -104.79868 
L 252.914051 -105.00141 
L 252.813403 -105.204141 
L 252.713413 -105.406871 
L 252.612131 -105.609601 
L 252.507696 -105.812331 
L 252.398376 -106.015062 
L 252.282619 -106.217792 
L 252.159088 -106.420522 
L 252.026702 -106.623252 
L 251.884659 -106.825983 
L 251.732461 -107.028713 
L 251.569926 -107.231443 
L 251.397194 -107.434173 
L 251.214726 -107.636904 
L 251.023293 -107.839634 
L 250.823962 -108.042364 
L 250.618072 -108.245094 
L 250.407206 -108.447825 
L 250.193158 -108.650555 
L 249.977899 -108.853285 
L 249.763539 -109.056015 
L 249.552284 -109.258746 
L 249.346401 -109.461476 
L 249.148176 -109.664206 
L 248.959877 -109.866936 
L 248.78372 -110.069667 
L 248.621837 -110.272397 
L 248.476245 -110.475127 
L 248.348821 -110.677857 
L 248.241283 -110.880588 
L 248.155165 -111.083318 
L 248.09181 -111.286048 
L 248.05235 -111.488778 
L 248.037707 -111.691509 
L 248.048577 -111.894239 
L 248.085436 -112.096969 
L 248.148534 -112.299699 
L 248.237899 -112.50243 
L 248.353341 -112.70516 
L 248.494456 -112.90789 
L 248.660635 -113.11062 
L 248.851076 -113.313351 
L 249.064792 -113.516081 
L 249.300626 -113.718811 
L 249.557266 -113.921541 
L 249.833265 -114.124272 
L 250.127053 -114.327002 
L 250.436965 -114.529732 
L 250.761258 -114.732462 
L 251.098131 -114.935193 
L 251.445754 -115.137923 
L 251.802287 -115.340653 
L 252.165901 -115.543383 
L 252.534805 -115.746114 
L 252.907264 -115.948844 
L 253.281614 -116.151574 
L 253.656289 -116.354304 
L 254.029825 -116.557035 
L 254.400879 -116.759765 
L 254.768235 -116.962495 
L 255.130812 -117.165225 
L 255.487664 -117.367956 
L 255.837985 -117.570686 
L 256.181102 -117.773416 
L 256.516472 -117.976146 
L 256.843672 -118.178877 
L 257.162394 -118.381607 
L 257.47243 -118.584337 
L 257.773662 -118.787067 
L 258.066047 -118.989798 
L 258.349606 -119.192528 
L 258.624408 -119.395258 
L 258.890561 -119.597988 
L 259.148196 -119.800719 
L 259.397459 -120.003449 
L 259.638498 -120.206179 
L 267.637328 -120.206179 
L 267.637328 -120.206179 
L 267.878368 -120.003449 
L 268.127631 -119.800719 
L 268.385266 -119.597988 
L 268.651418 -119.395258 
L 268.926221 -119.192528 
L 269.209779 -118.989798 
L 269.502164 -118.787067 
L 269.803396 -118.584337 
L 270.113433 -118.381607 
L 270.432155 -118.178877 
L 270.759355 -117.976146 
L 271.094724 -117.773416 
L 271.437841 -117.570686 
L 271.788162 -117.367956 
L 272.145015 -117.165225 
L 272.507591 -116.962495 
L 272.874947 -116.759765 
L 273.246001 -116.557035 
L 273.619537 -116.354304 
L 273.994212 -116.151574 
L 274.368563 -115.948844 
L 274.741021 -115.746114 
L 275.109925 -115.543383 
L 275.47354 -115.340653 
L 275.830072 -115.137923 
L 276.177696 -114.935193 
L 276.514569 -114.732462 
L 276.838861 -114.529732 
L 277.148773 -114.327002 
L 277.442562 -114.124272 
L 277.71856 -113.921541 
L 277.975201 -113.718811 
L 278.211035 -113.516081 
L 278.42475 -113.313351 
L 278.615191 -113.11062 
L 278.781371 -112.90789 
L 278.922486 -112.70516 
L 279.037927 -112.50243 
L 279.127292 -112.299699 
L 279.190391 -112.096969 
L 279.22725 -111.894239 
L 279.23812 -111.691509 
L 279.223476 -111.488778 
L 279.184017 -111.286048 
L 279.120661 -111.083318 
L 279.034544 -110.880588 
L 278.927005 -110.677857 
L 278.799582 -110.475127 
L 278.65399 -110.272397 
L 278.492106 -110.069667 
L 278.31595 -109.866936 
L 278.127651 -109.664206 
L 277.929425 -109.461476 
L 277.723542 -109.258746 
L 277.512288 -109.056015 
L 277.297927 -108.853285 
L 277.082669 -108.650555 
L 276.868621 -108.447825 
L 276.657754 -108.245094 
L 276.451864 -108.042364 
L 276.252533 -107.839634 
L 276.0611 -107.636904 
L 275.878632 -107.434173 
L 275.7059 -107.231443 
L 275.543365 -107.028713 
L 275.391167 -106.825983 
L 275.249125 -106.623252 
L 275.116738 -106.420522 
L 274.993208 -106.217792 
L 274.87745 -106.015062 
L 274.76813 -105.812331 
L 274.663695 -105.609601 
L 274.562414 -105.406871 
L 274.462423 -105.204141 
L 274.361776 -105.00141 
L 274.258489 -104.79868 
L 274.150598 -104.59595 
L 274.036203 -104.39322 
L 273.913516 -104.190489 
L 273.780906 -103.987759 
L 273.636938 -103.785029 
L 273.480403 -103.582299 
L 273.310346 -103.379568 
L 273.126085 -103.176838 
L 272.927223 -102.974108 
L 272.713648 -102.771378 
L 272.485537 -102.568647 
L 272.243337 -102.365917 
L 271.987756 -102.163187 
L 271.719734 -101.960457 
L 271.440423 -101.757726 
L 271.15115 -101.554996 
L 270.853389 -101.352266 
L 270.548726 -101.149536 
L 270.238819 -100.946805 
L 269.925374 -100.744075 
L 269.610103 -100.541345 
L 269.294699 -100.338615 
L 268.980804 -100.135884 
z
" style="stroke: #6ebbd5; stroke-opacity: 0.3"/>
    </defs>
    <g clip-path="url(#p85b4070e43)">
     <use xlink:href="#m596b7657c2" x="0" y="288" style="fill: #6ebbd5; fill-opacity: 0.3; stroke: #6ebbd5; stroke-opacity: 0.3"/>
    </g>
   </g>
   <g id="PolyCollection_5">
    <defs>
     <path id="m260cfda255" d="M 328.619631 -73.375491 
L 323.457848 -73.375491 
L 323.344958 -73.476856 
L 323.227568 -73.578222 
L 323.105229 -73.679587 
L 322.977505 -73.780952 
L 322.843986 -73.882317 
L 322.704303 -73.983682 
L 322.558143 -74.085047 
L 322.405266 -74.186412 
L 322.245513 -74.287777 
L 322.078824 -74.389143 
L 321.905245 -74.490508 
L 321.724936 -74.591873 
L 321.538175 -74.693238 
L 321.345362 -74.794603 
L 321.147013 -74.895968 
L 320.943756 -74.997333 
L 320.736325 -75.098698 
L 320.52554 -75.200064 
L 320.312296 -75.301429 
L 320.097539 -75.402794 
L 319.882248 -75.504159 
L 319.667406 -75.605524 
L 319.453977 -75.706889 
L 319.242877 -75.808254 
L 319.034951 -75.909619 
L 318.830943 -76.010985 
L 318.631476 -76.11235 
L 318.43703 -76.213715 
L 318.247924 -76.31508 
L 318.064305 -76.416445 
L 317.886141 -76.51781 
L 317.713216 -76.619175 
L 317.545133 -76.72054 
L 317.381328 -76.821906 
L 317.221081 -76.923271 
L 317.063539 -77.024636 
L 316.90774 -77.126001 
L 316.752645 -77.227366 
L 316.597173 -77.328731 
L 316.440234 -77.430096 
L 316.280772 -77.531461 
L 316.117799 -77.632827 
L 315.950436 -77.734192 
L 315.777945 -77.835557 
L 315.599765 -77.936922 
L 315.415534 -78.038287 
L 315.225114 -78.139652 
L 315.028604 -78.241017 
L 314.826348 -78.342382 
L 314.618932 -78.443748 
L 314.40718 -78.545113 
L 314.192133 -78.646478 
L 313.975026 -78.747843 
L 313.757259 -78.849208 
L 313.540355 -78.950573 
L 313.325924 -79.051938 
L 313.11561 -79.153303 
L 312.911047 -79.254669 
L 312.713807 -79.356034 
L 312.525356 -79.457399 
L 312.347002 -79.558764 
L 312.179859 -79.660129 
L 312.024809 -79.761494 
L 311.882474 -79.862859 
L 311.753195 -79.964224 
L 311.637022 -80.06559 
L 311.533712 -80.166955 
L 311.442735 -80.26832 
L 311.363295 -80.369685 
L 311.29436 -80.47105 
L 311.234691 -80.572415 
L 311.182894 -80.67378 
L 311.137466 -80.775145 
L 311.096853 -80.876511 
L 311.059509 -80.977876 
L 311.02395 -81.079241 
L 310.988824 -81.180606 
L 310.952957 -81.281971 
L 310.915412 -81.383336 
L 310.875531 -81.484701 
L 310.832975 -81.586066 
L 310.787752 -81.687432 
L 310.740236 -81.788797 
L 310.691172 -81.890162 
L 310.641677 -81.991527 
L 310.59322 -82.092892 
L 310.547596 -82.194257 
L 310.506895 -82.295622 
L 310.473447 -82.396987 
L 310.449776 -82.498353 
L 310.438533 -82.599718 
L 310.442436 -82.701083 
L 310.464197 -82.802448 
L 310.506457 -82.903813 
L 310.571711 -83.005178 
L 310.662253 -83.106543 
L 310.780105 -83.207908 
L 310.926971 -83.309274 
L 311.104185 -83.410639 
L 340.973294 -83.410639 
L 340.973294 -83.410639 
L 341.150508 -83.309274 
L 341.297374 -83.207908 
L 341.415227 -83.106543 
L 341.505768 -83.005178 
L 341.571023 -82.903813 
L 341.613282 -82.802448 
L 341.635043 -82.701083 
L 341.638946 -82.599718 
L 341.627704 -82.498353 
L 341.604033 -82.396987 
L 341.570585 -82.295622 
L 341.529883 -82.194257 
L 341.48426 -82.092892 
L 341.435802 -81.991527 
L 341.386307 -81.890162 
L 341.337243 -81.788797 
L 341.289727 -81.687432 
L 341.244504 -81.586066 
L 341.201948 -81.484701 
L 341.162067 -81.383336 
L 341.124522 -81.281971 
L 341.088655 -81.180606 
L 341.053529 -81.079241 
L 341.017971 -80.977876 
L 340.980626 -80.876511 
L 340.940013 -80.775145 
L 340.894586 -80.67378 
L 340.842789 -80.572415 
L 340.78312 -80.47105 
L 340.714184 -80.369685 
L 340.634745 -80.26832 
L 340.543768 -80.166955 
L 340.440457 -80.06559 
L 340.324284 -79.964224 
L 340.195006 -79.862859 
L 340.052671 -79.761494 
L 339.897621 -79.660129 
L 339.730478 -79.558764 
L 339.552124 -79.457399 
L 339.363672 -79.356034 
L 339.166433 -79.254669 
L 338.961869 -79.153303 
L 338.751555 -79.051938 
L 338.537124 -78.950573 
L 338.320221 -78.849208 
L 338.102453 -78.747843 
L 337.885346 -78.646478 
L 337.670299 -78.545113 
L 337.458547 -78.443748 
L 337.251131 -78.342382 
L 337.048875 -78.241017 
L 336.852365 -78.139652 
L 336.661945 -78.038287 
L 336.477715 -77.936922 
L 336.299534 -77.835557 
L 336.127044 -77.734192 
L 335.959681 -77.632827 
L 335.796708 -77.531461 
L 335.637245 -77.430096 
L 335.480307 -77.328731 
L 335.324834 -77.227366 
L 335.16974 -77.126001 
L 335.013941 -77.024636 
L 334.856398 -76.923271 
L 334.696151 -76.821906 
L 334.532347 -76.72054 
L 334.364264 -76.619175 
L 334.191338 -76.51781 
L 334.013174 -76.416445 
L 333.829556 -76.31508 
L 333.64045 -76.213715 
L 333.446003 -76.11235 
L 333.246536 -76.010985 
L 333.042528 -75.909619 
L 332.834602 -75.808254 
L 332.623503 -75.706889 
L 332.410073 -75.605524 
L 332.195231 -75.504159 
L 331.97994 -75.402794 
L 331.765184 -75.301429 
L 331.551939 -75.200064 
L 331.341154 -75.098698 
L 331.133723 -74.997333 
L 330.930467 -74.895968 
L 330.732117 -74.794603 
L 330.539304 -74.693238 
L 330.352543 -74.591873 
L 330.172234 -74.490508 
L 329.998655 -74.389143 
L 329.831966 -74.287777 
L 329.672214 -74.186412 
L 329.519336 -74.085047 
L 329.373176 -73.983682 
L 329.233493 -73.882317 
L 329.099974 -73.780952 
L 328.97225 -73.679587 
L 328.849911 -73.578222 
L 328.732521 -73.476856 
L 328.619631 -73.375491 
z
" style="stroke: #6ebbd5; stroke-opacity: 0.3"/>
    </defs>
    <g clip-path="url(#p85b4070e43)">
     <use xlink:href="#m260cfda255" x="0" y="288" style="fill: #6ebbd5; fill-opacity: 0.3; stroke: #6ebbd5; stroke-opacity: 0.3"/>
    </g>
   </g>
   <g id="PolyCollection_6">
    <defs>
     <path id="m6183797e08" d="M 395.169021 -86.755688 
L 381.710112 -86.755688 
L 381.452864 -86.890841 
L 381.196089 -87.025995 
L 380.939329 -87.161148 
L 380.6821 -87.296302 
L 380.423931 -87.431455 
L 380.1644 -87.566609 
L 379.903171 -87.701762 
L 379.640024 -87.836916 
L 379.374886 -87.972069 
L 379.107842 -88.107223 
L 378.839156 -88.242376 
L 378.56926 -88.37753 
L 378.298754 -88.512683 
L 378.028385 -88.647837 
L 377.759017 -88.78299 
L 377.491603 -88.918144 
L 377.227141 -89.053297 
L 376.966634 -89.188451 
L 376.711043 -89.323604 
L 376.461251 -89.458758 
L 376.218022 -89.593911 
L 375.981972 -89.729065 
L 375.753552 -89.864218 
L 375.53303 -89.999372 
L 375.3205 -90.134525 
L 375.115895 -90.269679 
L 374.919011 -90.404832 
L 374.729544 -90.539986 
L 374.547141 -90.675139 
L 374.371448 -90.810293 
L 374.202172 -90.945446 
L 374.03914 -91.0806 
L 373.882352 -91.215753 
L 373.732037 -91.350907 
L 373.588688 -91.48606 
L 373.453102 -91.621214 
L 373.326386 -91.756367 
L 373.209964 -91.891521 
L 373.105555 -92.026674 
L 373.015146 -92.161828 
L 372.940938 -92.296981 
L 372.885284 -92.432135 
L 372.850617 -92.567288 
L 372.83936 -92.702442 
L 372.853843 -92.837595 
L 372.896212 -92.972749 
L 372.96834 -93.107902 
L 373.071748 -93.243056 
L 373.207535 -93.378209 
L 373.37632 -93.513363 
L 373.578203 -93.648516 
L 373.812742 -93.78367 
L 374.078947 -93.918823 
L 374.375297 -94.053977 
L 374.699769 -94.18913 
L 375.049889 -94.324284 
L 375.422796 -94.459437 
L 375.815311 -94.594591 
L 376.224026 -94.729744 
L 376.645386 -94.864898 
L 377.075779 -95.000051 
L 377.511622 -95.135205 
L 377.949439 -95.270358 
L 378.385936 -95.405512 
L 378.818062 -95.540665 
L 379.243059 -95.675819 
L 379.658496 -95.810972 
L 380.062298 -95.946126 
L 380.452755 -96.081279 
L 380.828518 -96.216433 
L 381.188589 -96.351586 
L 381.532299 -96.48674 
L 381.859282 -96.621893 
L 382.169435 -96.757047 
L 382.462888 -96.8922 
L 382.73996 -97.027354 
L 383.001126 -97.162507 
L 383.246978 -97.297661 
L 383.478193 -97.432814 
L 383.695507 -97.567968 
L 383.899692 -97.703121 
L 384.091533 -97.838275 
L 384.27182 -97.973428 
L 384.441335 -98.108582 
L 384.600847 -98.243735 
L 384.751108 -98.378889 
L 384.892858 -98.514042 
L 385.026818 -98.649196 
L 385.153695 -98.784349 
L 385.274184 -98.919503 
L 385.388966 -99.054656 
L 385.498708 -99.18981 
L 385.60406 -99.324963 
L 385.70565 -99.460117 
L 385.804083 -99.59527 
L 385.899929 -99.730424 
L 385.993719 -99.865577 
L 386.085934 -100.000731 
L 386.177004 -100.135884 
L 390.702128 -100.135884 
L 390.702128 -100.135884 
L 390.793198 -100.000731 
L 390.885414 -99.865577 
L 390.979203 -99.730424 
L 391.075049 -99.59527 
L 391.173482 -99.460117 
L 391.275073 -99.324963 
L 391.380424 -99.18981 
L 391.490166 -99.054656 
L 391.604948 -98.919503 
L 391.725437 -98.784349 
L 391.852314 -98.649196 
L 391.986274 -98.514042 
L 392.128024 -98.378889 
L 392.278286 -98.243735 
L 392.437797 -98.108582 
L 392.607312 -97.973428 
L 392.787599 -97.838275 
L 392.97944 -97.703121 
L 393.183625 -97.567968 
L 393.400939 -97.432814 
L 393.632155 -97.297661 
L 393.878006 -97.162507 
L 394.139172 -97.027354 
L 394.416244 -96.8922 
L 394.709697 -96.757047 
L 395.01985 -96.621893 
L 395.346833 -96.48674 
L 395.690543 -96.351586 
L 396.050614 -96.216433 
L 396.426377 -96.081279 
L 396.816834 -95.946126 
L 397.220636 -95.810972 
L 397.636074 -95.675819 
L 398.06107 -95.540665 
L 398.493196 -95.405512 
L 398.929693 -95.270358 
L 399.36751 -95.135205 
L 399.803353 -95.000051 
L 400.233746 -94.864898 
L 400.655106 -94.729744 
L 401.063821 -94.594591 
L 401.456336 -94.459437 
L 401.829243 -94.324284 
L 402.179363 -94.18913 
L 402.503835 -94.053977 
L 402.800185 -93.918823 
L 403.06639 -93.78367 
L 403.300929 -93.648516 
L 403.502813 -93.513363 
L 403.671598 -93.378209 
L 403.807384 -93.243056 
L 403.910792 -93.107902 
L 403.98292 -92.972749 
L 404.025289 -92.837595 
L 404.039773 -92.702442 
L 404.028516 -92.567288 
L 403.993848 -92.432135 
L 403.938194 -92.296981 
L 403.863986 -92.161828 
L 403.773577 -92.026674 
L 403.669169 -91.891521 
L 403.552746 -91.756367 
L 403.42603 -91.621214 
L 403.290444 -91.48606 
L 403.147096 -91.350907 
L 402.99678 -91.215753 
L 402.839992 -91.0806 
L 402.67696 -90.945446 
L 402.507685 -90.810293 
L 402.331992 -90.675139 
L 402.149588 -90.539986 
L 401.960121 -90.404832 
L 401.763237 -90.269679 
L 401.558632 -90.134525 
L 401.346103 -89.999372 
L 401.125581 -89.864218 
L 400.89716 -89.729065 
L 400.661111 -89.593911 
L 400.417882 -89.458758 
L 400.168089 -89.323604 
L 399.912499 -89.188451 
L 399.651991 -89.053297 
L 399.387529 -88.918144 
L 399.120115 -88.78299 
L 398.850748 -88.647837 
L 398.580378 -88.512683 
L 398.309872 -88.37753 
L 398.039976 -88.242376 
L 397.77129 -88.107223 
L 397.504247 -87.972069 
L 397.239108 -87.836916 
L 396.975961 -87.701762 
L 396.714732 -87.566609 
L 396.455201 -87.431455 
L 396.197032 -87.296302 
L 395.939804 -87.161148 
L 395.683043 -87.025995 
L 395.426268 -86.890841 
L 395.169021 -86.755688 
z
" style="stroke: #6ebbd5; stroke-opacity: 0.3"/>
    </defs>
    <g clip-path="url(#p85b4070e43)">
     <use xlink:href="#m6183797e08" x="0" y="288" style="fill: #6ebbd5; fill-opacity: 0.3; stroke: #6ebbd5; stroke-opacity: 0.3"/>
    </g>
   </g>
   <g id="PolyCollection_7">
    <defs>
     <path id="m98e74e308e" d="M 84.000861 -210.522506 
L 68.870007 -210.522506 
L 68.791461 -210.860389 
L 68.727798 -211.198273 
L 68.679083 -211.536157 
L 68.645254 -211.874041 
L 68.626118 -212.211924 
L 68.621347 -212.549808 
L 68.630486 -212.887692 
L 68.652953 -213.225576 
L 68.688043 -213.563459 
L 68.734934 -213.901343 
L 68.792696 -214.239227 
L 68.860295 -214.577111 
L 68.936606 -214.914994 
L 69.02042 -215.252878 
L 69.110455 -215.590762 
L 69.20537 -215.928646 
L 69.303773 -216.266529 
L 69.404234 -216.604413 
L 69.505299 -216.942297 
L 69.605499 -217.280181 
L 69.703367 -217.618064 
L 69.797443 -217.955948 
L 69.886293 -218.293832 
L 69.968514 -218.631716 
L 70.042751 -218.969599 
L 70.107701 -219.307483 
L 70.162127 -219.645367 
L 70.204863 -219.983251 
L 70.234827 -220.321134 
L 70.251025 -220.659018 
L 70.252556 -220.996902 
L 70.238625 -221.334786 
L 70.208539 -221.672669 
L 70.161716 -222.010553 
L 70.097691 -222.348437 
L 70.016112 -222.686321 
L 69.916749 -223.024204 
L 69.79949 -223.362088 
L 69.664345 -223.699972 
L 69.511445 -224.037856 
L 69.341041 -224.375739 
L 69.153503 -224.713623 
L 68.949319 -225.051507 
L 68.729093 -225.389391 
L 68.49354 -225.727274 
L 68.243486 -226.065158 
L 67.97986 -226.403042 
L 67.703694 -226.740926 
L 67.416117 -227.078809 
L 67.118345 -227.416693 
L 66.811684 -227.754577 
L 66.497515 -228.092461 
L 66.177293 -228.430344 
L 65.852537 -228.768228 
L 65.52482 -229.106112 
L 65.195768 -229.443996 
L 64.867042 -229.781879 
L 64.540336 -230.119763 
L 64.217361 -230.457647 
L 63.899842 -230.795531 
L 63.589501 -231.133414 
L 63.288048 -231.471298 
L 62.997174 -231.809182 
L 62.718534 -232.147066 
L 62.453739 -232.484949 
L 62.204344 -232.822833 
L 61.971837 -233.160717 
L 61.757631 -233.498601 
L 61.563046 -233.836484 
L 61.389309 -234.174368 
L 61.237537 -234.512252 
L 61.108731 -234.850136 
L 61.003769 -235.188019 
L 60.923397 -235.525903 
L 60.868228 -235.863787 
L 60.83873 -236.201671 
L 60.835227 -236.539554 
L 60.857898 -236.877438 
L 60.90677 -237.215322 
L 60.981727 -237.553206 
L 61.082501 -237.891089 
L 61.208686 -238.228973 
L 61.359733 -238.566857 
L 61.534961 -238.904741 
L 61.733561 -239.242624 
L 61.954602 -239.580508 
L 62.197046 -239.918392 
L 62.45975 -240.256276 
L 62.741481 -240.594159 
L 63.040924 -240.932043 
L 63.356696 -241.269927 
L 63.687354 -241.607811 
L 64.031411 -241.945694 
L 64.387345 -242.283578 
L 64.753613 -242.621462 
L 65.12866 -242.959346 
L 65.510933 -243.297229 
L 65.89889 -243.635113 
L 66.291013 -243.972997 
L 86.579855 -243.972997 
L 86.579855 -243.972997 
L 86.971978 -243.635113 
L 87.359935 -243.297229 
L 87.742208 -242.959346 
L 88.117255 -242.621462 
L 88.483523 -242.283578 
L 88.839457 -241.945694 
L 89.183514 -241.607811 
L 89.514172 -241.269927 
L 89.829944 -240.932043 
L 90.129387 -240.594159 
L 90.411117 -240.256276 
L 90.673822 -239.918392 
L 90.916266 -239.580508 
L 91.137307 -239.242624 
L 91.335906 -238.904741 
L 91.511134 -238.566857 
L 91.662181 -238.228973 
L 91.788366 -237.891089 
L 91.889141 -237.553206 
L 91.964097 -237.215322 
L 92.01297 -236.877438 
L 92.03564 -236.539554 
L 92.032138 -236.201671 
L 92.00264 -235.863787 
L 91.94747 -235.525903 
L 91.867099 -235.188019 
L 91.762137 -234.850136 
L 91.633331 -234.512252 
L 91.481559 -234.174368 
L 91.307822 -233.836484 
L 91.113237 -233.498601 
L 90.899031 -233.160717 
L 90.666524 -232.822833 
L 90.417129 -232.484949 
L 90.152334 -232.147066 
L 89.873694 -231.809182 
L 89.582819 -231.471298 
L 89.281367 -231.133414 
L 88.971026 -230.795531 
L 88.653506 -230.457647 
L 88.330532 -230.119763 
L 88.003826 -229.781879 
L 87.6751 -229.443996 
L 87.346047 -229.106112 
L 87.018331 -228.768228 
L 86.693574 -228.430344 
L 86.373352 -228.092461 
L 86.059184 -227.754577 
L 85.752523 -227.416693 
L 85.454751 -227.078809 
L 85.167173 -226.740926 
L 84.891008 -226.403042 
L 84.627382 -226.065158 
L 84.377327 -225.727274 
L 84.141775 -225.389391 
L 83.921548 -225.051507 
L 83.717365 -224.713623 
L 83.529827 -224.375739 
L 83.359423 -224.037856 
L 83.206522 -223.699972 
L 83.071378 -223.362088 
L 82.954119 -223.024204 
L 82.854756 -222.686321 
L 82.773177 -222.348437 
L 82.709152 -222.010553 
L 82.662329 -221.672669 
L 82.632243 -221.334786 
L 82.618311 -220.996902 
L 82.619843 -220.659018 
L 82.636041 -220.321134 
L 82.666005 -219.983251 
L 82.708741 -219.645367 
L 82.763167 -219.307483 
L 82.828117 -218.969599 
L 82.902354 -218.631716 
L 82.984575 -218.293832 
L 83.073425 -217.955948 
L 83.167501 -217.618064 
L 83.265368 -217.280181 
L 83.365569 -216.942297 
L 83.466634 -216.604413 
L 83.567095 -216.266529 
L 83.665497 -215.928646 
L 83.760412 -215.590762 
L 83.850448 -215.252878 
L 83.934262 -214.914994 
L 84.010573 -214.577111 
L 84.078172 -214.239227 
L 84.135934 -213.901343 
L 84.182825 -213.563459 
L 84.217915 -213.225576 
L 84.240382 -212.887692 
L 84.249521 -212.549808 
L 84.24475 -212.211924 
L 84.225613 -211.874041 
L 84.191785 -211.536157 
L 84.14307 -211.198273 
L 84.079406 -210.860389 
L 84.000861 -210.522506 
z
" style="stroke: #0c8066; stroke-opacity: 0.3"/>
    </defs>
    <g clip-path="url(#p85b4070e43)">
     <use xlink:href="#m98e74e308e" x="0" y="288" style="fill: #0c8066; fill-opacity: 0.3; stroke: #0c8066; stroke-opacity: 0.3"/>
    </g>
   </g>
   <g id="PolyCollection_8">
    <defs>
     <path id="m0bf8eb34e3" d="M 154.436467 -39.925 
L 123.236054 -39.925 
L 123.236054 -39.925 
L 123.236054 -39.925 
L 123.236054 -39.925 
L 123.236054 -39.925 
L 123.236054 -39.925 
L 123.236054 -39.925 
L 123.236054 -39.925 
L 123.236054 -39.925 
L 123.236054 -39.925 
L 123.236054 -39.925 
L 123.236054 -39.925 
L 123.236054 -39.925 
L 123.236054 -39.925 
L 123.236054 -39.925 
L 123.236054 -39.925 
L 123.236054 -39.925 
L 123.236054 -39.925 
L 123.236054 -39.925 
L 123.236054 -39.925 
L 123.236054 -39.925 
L 123.236054 -39.925 
L 123.236054 -39.925 
L 123.236054 -39.925 
L 123.236054 -39.925 
L 123.236054 -39.925 
L 123.236054 -39.925 
L 123.236054 -39.925 
L 123.236054 -39.925 
L 123.236054 -39.925 
L 123.236054 -39.925 
L 123.236054 -39.925 
L 123.236054 -39.925 
L 123.236054 -39.925 
L 123.236054 -39.925 
L 123.236054 -39.925 
L 123.236054 -39.925 
L 123.236054 -39.925 
L 123.236054 -39.925 
L 123.236054 -39.925 
L 123.236054 -39.925 
L 123.236054 -39.925 
L 123.236054 -39.925 
L 123.236054 -39.925 
L 123.236054 -39.925 
L 123.236054 -39.925 
L 123.236054 -39.925 
L 123.236054 -39.925 
L 123.236054 -39.925 
L 123.236054 -39.925 
L 123.236054 -39.925 
L 123.236054 -39.925 
L 123.236054 -39.925 
L 123.236054 -39.925 
L 123.236054 -39.925 
L 123.236054 -39.925 
L 123.236054 -39.925 
L 123.236054 -39.925 
L 123.236054 -39.925 
L 123.236054 -39.925 
L 123.236054 -39.925 
L 123.236054 -39.925 
L 123.236054 -39.925 
L 123.236054 -39.925 
L 123.236054 -39.925 
L 123.236054 -39.925 
L 123.236054 -39.925 
L 123.236054 -39.925 
L 123.236054 -39.925 
L 123.236054 -39.925 
L 123.236054 -39.925 
L 123.236054 -39.925 
L 123.236054 -39.925 
L 123.236054 -39.925 
L 123.236054 -39.925 
L 123.236054 -39.925 
L 123.236054 -39.925 
L 123.236054 -39.925 
L 123.236054 -39.925 
L 123.236054 -39.925 
L 123.236054 -39.925 
L 123.236054 -39.925 
L 123.236054 -39.925 
L 123.236054 -39.925 
L 123.236054 -39.925 
L 123.236054 -39.925 
L 123.236054 -39.925 
L 123.236054 -39.925 
L 123.236054 -39.925 
L 123.236054 -39.925 
L 123.236054 -39.925 
L 123.236054 -39.925 
L 123.236054 -39.925 
L 123.236054 -39.925 
L 123.236054 -39.925 
L 123.236054 -39.925 
L 123.236054 -39.925 
L 123.236054 -39.925 
L 123.236054 -39.925 
L 123.236054 -39.925 
L 154.436467 -39.925 
L 154.436467 -39.925 
L 154.436467 -39.925 
L 154.436467 -39.925 
L 154.436467 -39.925 
L 154.436467 -39.925 
L 154.436467 -39.925 
L 154.436467 -39.925 
L 154.436467 -39.925 
L 154.436467 -39.925 
L 154.436467 -39.925 
L 154.436467 -39.925 
L 154.436467 -39.925 
L 154.436467 -39.925 
L 154.436467 -39.925 
L 154.436467 -39.925 
L 154.436467 -39.925 
L 154.436467 -39.925 
L 154.436467 -39.925 
L 154.436467 -39.925 
L 154.436467 -39.925 
L 154.436467 -39.925 
L 154.436467 -39.925 
L 154.436467 -39.925 
L 154.436467 -39.925 
L 154.436467 -39.925 
L 154.436467 -39.925 
L 154.436467 -39.925 
L 154.436467 -39.925 
L 154.436467 -39.925 
L 154.436467 -39.925 
L 154.436467 -39.925 
L 154.436467 -39.925 
L 154.436467 -39.925 
L 154.436467 -39.925 
L 154.436467 -39.925 
L 154.436467 -39.925 
L 154.436467 -39.925 
L 154.436467 -39.925 
L 154.436467 -39.925 
L 154.436467 -39.925 
L 154.436467 -39.925 
L 154.436467 -39.925 
L 154.436467 -39.925 
L 154.436467 -39.925 
L 154.436467 -39.925 
L 154.436467 -39.925 
L 154.436467 -39.925 
L 154.436467 -39.925 
L 154.436467 -39.925 
L 154.436467 -39.925 
L 154.436467 -39.925 
L 154.436467 -39.925 
L 154.436467 -39.925 
L 154.436467 -39.925 
L 154.436467 -39.925 
L 154.436467 -39.925 
L 154.436467 -39.925 
L 154.436467 -39.925 
L 154.436467 -39.925 
L 154.436467 -39.925 
L 154.436467 -39.925 
L 154.436467 -39.925 
L 154.436467 -39.925 
L 154.436467 -39.925 
L 154.436467 -39.925 
L 154.436467 -39.925 
L 154.436467 -39.925 
L 154.436467 -39.925 
L 154.436467 -39.925 
L 154.436467 -39.925 
L 154.436467 -39.925 
L 154.436467 -39.925 
L 154.436467 -39.925 
L 154.436467 -39.925 
L 154.436467 -39.925 
L 154.436467 -39.925 
L 154.436467 -39.925 
L 154.436467 -39.925 
L 154.436467 -39.925 
L 154.436467 -39.925 
L 154.436467 -39.925 
L 154.436467 -39.925 
L 154.436467 -39.925 
L 154.436467 -39.925 
L 154.436467 -39.925 
L 154.436467 -39.925 
L 154.436467 -39.925 
L 154.436467 -39.925 
L 154.436467 -39.925 
L 154.436467 -39.925 
L 154.436467 -39.925 
L 154.436467 -39.925 
L 154.436467 -39.925 
L 154.436467 -39.925 
L 154.436467 -39.925 
L 154.436467 -39.925 
L 154.436467 -39.925 
L 154.436467 -39.925 
L 154.436467 -39.925 
L 154.436467 -39.925 
z
" style="stroke: #0c8066; stroke-opacity: 0.3"/>
    </defs>
    <g clip-path="url(#p85b4070e43)">
     <use xlink:href="#m0bf8eb34e3" x="0" y="288" style="fill: #0c8066; fill-opacity: 0.3; stroke: #0c8066; stroke-opacity: 0.3"/>
    </g>
   </g>
   <g id="PolyCollection_9">
    <defs>
     <path id="m81e5ce25a1" d="M 206.800792 -130.241327 
L 195.673382 -130.241327 
L 195.482123 -130.680575 
L 195.299457 -131.119824 
L 195.12618 -131.559073 
L 194.962977 -131.998322 
L 194.810408 -132.437571 
L 194.668904 -132.87682 
L 194.538759 -133.316069 
L 194.420122 -133.755318 
L 194.313003 -134.194566 
L 194.217267 -134.633815 
L 194.13264 -135.073064 
L 194.058714 -135.512313 
L 193.994948 -135.951562 
L 193.940685 -136.390811 
L 193.895153 -136.83006 
L 193.85748 -137.269309 
L 193.826704 -137.708557 
L 193.801785 -138.147806 
L 193.781617 -138.587055 
L 193.765042 -139.026304 
L 193.750858 -139.465553 
L 193.737837 -139.904802 
L 193.724732 -140.344051 
L 193.71029 -140.7833 
L 193.693263 -141.222548 
L 193.672419 -141.661797 
L 193.646552 -142.101046 
L 193.614489 -142.540295 
L 193.575104 -142.979544 
L 193.527322 -143.418793 
L 193.470133 -143.858042 
L 193.402595 -144.297291 
L 193.323848 -144.736539 
L 193.233119 -145.175788 
L 193.12973 -145.615037 
L 193.013111 -146.054286 
L 192.882801 -146.493535 
L 192.738461 -146.932784 
L 192.57988 -147.372033 
L 192.406982 -147.811282 
L 192.21983 -148.25053 
L 192.018635 -148.689779 
L 191.803757 -149.129028 
L 191.575709 -149.568277 
L 191.335161 -150.007526 
L 191.082937 -150.446775 
L 190.820016 -150.886024 
L 190.547526 -151.325273 
L 190.266742 -151.764521 
L 189.979081 -152.20377 
L 189.686086 -152.643019 
L 189.389425 -153.082268 
L 189.090873 -153.521517 
L 188.792301 -153.960766 
L 188.49566 -154.400015 
L 188.202965 -154.839264 
L 187.916279 -155.278512 
L 187.637692 -155.717761 
L 187.369305 -156.15701 
L 187.113209 -156.596259 
L 186.871464 -157.035508 
L 186.646081 -157.474757 
L 186.439003 -157.914006 
L 186.252082 -158.353255 
L 186.087064 -158.792503 
L 185.94557 -159.231752 
L 185.829077 -159.671001 
L 185.738907 -160.11025 
L 185.676208 -160.549499 
L 185.641943 -160.988748 
L 185.63688 -161.427997 
L 185.661583 -161.867246 
L 185.716404 -162.306494 
L 185.801479 -162.745743 
L 185.916725 -163.184992 
L 186.061842 -163.624241 
L 186.236313 -164.06349 
L 186.43941 -164.502739 
L 186.670202 -164.941988 
L 186.927563 -165.381237 
L 187.210184 -165.820485 
L 187.516591 -166.259734 
L 187.845154 -166.698983 
L 188.19411 -167.138232 
L 188.56158 -167.577481 
L 188.94559 -168.01673 
L 189.344091 -168.455979 
L 189.754982 -168.895228 
L 190.176129 -169.334476 
L 190.60539 -169.773725 
L 191.040635 -170.212974 
L 191.479766 -170.652223 
L 191.920734 -171.091472 
L 192.361562 -171.530721 
L 192.800354 -171.96997 
L 193.235318 -172.409219 
L 193.664771 -172.848467 
L 194.087152 -173.287716 
L 194.501031 -173.726965 
L 207.973143 -173.726965 
L 207.973143 -173.726965 
L 208.387022 -173.287716 
L 208.809403 -172.848467 
L 209.238855 -172.409219 
L 209.673819 -171.96997 
L 210.112612 -171.530721 
L 210.553439 -171.091472 
L 210.994408 -170.652223 
L 211.433538 -170.212974 
L 211.868784 -169.773725 
L 212.298045 -169.334476 
L 212.719192 -168.895228 
L 213.130082 -168.455979 
L 213.528583 -168.01673 
L 213.912593 -167.577481 
L 214.280063 -167.138232 
L 214.62902 -166.698983 
L 214.957583 -166.259734 
L 215.263989 -165.820485 
L 215.546611 -165.381237 
L 215.803972 -164.941988 
L 216.034764 -164.502739 
L 216.237861 -164.06349 
L 216.412332 -163.624241 
L 216.557449 -163.184992 
L 216.672695 -162.745743 
L 216.75777 -162.306494 
L 216.81259 -161.867246 
L 216.837293 -161.427997 
L 216.832231 -160.988748 
L 216.797966 -160.549499 
L 216.735266 -160.11025 
L 216.645096 -159.671001 
L 216.528604 -159.231752 
L 216.38711 -158.792503 
L 216.222092 -158.353255 
L 216.035171 -157.914006 
L 215.828092 -157.474757 
L 215.60271 -157.035508 
L 215.360965 -156.596259 
L 215.104869 -156.15701 
L 214.836482 -155.717761 
L 214.557895 -155.278512 
L 214.271209 -154.839264 
L 213.978514 -154.400015 
L 213.681873 -153.960766 
L 213.3833 -153.521517 
L 213.084748 -153.082268 
L 212.788087 -152.643019 
L 212.495093 -152.20377 
L 212.207431 -151.764521 
L 211.926648 -151.325273 
L 211.654158 -150.886024 
L 211.391236 -150.446775 
L 211.139012 -150.007526 
L 210.898464 -149.568277 
L 210.670417 -149.129028 
L 210.455539 -148.689779 
L 210.254343 -148.25053 
L 210.067192 -147.811282 
L 209.894293 -147.372033 
L 209.735713 -146.932784 
L 209.591373 -146.493535 
L 209.461063 -146.054286 
L 209.344443 -145.615037 
L 209.241055 -145.175788 
L 209.150325 -144.736539 
L 209.071578 -144.297291 
L 209.004041 -143.858042 
L 208.946851 -143.418793 
L 208.89907 -142.979544 
L 208.859685 -142.540295 
L 208.827622 -142.101046 
L 208.801755 -141.661797 
L 208.780911 -141.222548 
L 208.763884 -140.7833 
L 208.749442 -140.344051 
L 208.736336 -139.904802 
L 208.723315 -139.465553 
L 208.709132 -139.026304 
L 208.692556 -138.587055 
L 208.672389 -138.147806 
L 208.64747 -137.708557 
L 208.616694 -137.269309 
L 208.579021 -136.83006 
L 208.533488 -136.390811 
L 208.479225 -135.951562 
L 208.41546 -135.512313 
L 208.341533 -135.073064 
L 208.256907 -134.633815 
L 208.161171 -134.194566 
L 208.054052 -133.755318 
L 207.935415 -133.316069 
L 207.805269 -132.87682 
L 207.663765 -132.437571 
L 207.511197 -131.998322 
L 207.347993 -131.559073 
L 207.174716 -131.119824 
L 206.99205 -130.680575 
L 206.800792 -130.241327 
z
" style="stroke: #0c8066; stroke-opacity: 0.3"/>
    </defs>
    <g clip-path="url(#p85b4070e43)">
     <use xlink:href="#m81e5ce25a1" x="0" y="288" style="fill: #0c8066; fill-opacity: 0.3; stroke: #0c8066; stroke-opacity: 0.3"/>
    </g>
   </g>
   <g id="PolyCollection_10">
    <defs>
     <path id="mcb928fa75c" d="M 268.019569 -66.685393 
L 259.256258 -66.685393 
L 258.960062 -66.921912 
L 258.652584 -67.15843 
L 258.333866 -67.394949 
L 258.004011 -67.631468 
L 257.663187 -67.867986 
L 257.311652 -68.104505 
L 256.949758 -68.341023 
L 256.577975 -68.577542 
L 256.196899 -68.814061 
L 255.807269 -69.050579 
L 255.409972 -69.287098 
L 255.006058 -69.523617 
L 254.59674 -69.760135 
L 254.1834 -69.996654 
L 253.767583 -70.233172 
L 253.350993 -70.469691 
L 252.935486 -70.70621 
L 252.523052 -70.942728 
L 252.115797 -71.179247 
L 251.715924 -71.415766 
L 251.325708 -71.652284 
L 250.947463 -71.888803 
L 250.58352 -72.125321 
L 250.236186 -72.36184 
L 249.907719 -72.598359 
L 249.600291 -72.834877 
L 249.315951 -73.071396 
L 249.056601 -73.307915 
L 248.82396 -73.544433 
L 248.619534 -73.780952 
L 248.444597 -74.01747 
L 248.300161 -74.253989 
L 248.186963 -74.490508 
L 248.105445 -74.727026 
L 248.055749 -74.963545 
L 248.037707 -75.200064 
L 248.050842 -75.436582 
L 248.094375 -75.673101 
L 248.167228 -75.909619 
L 248.268044 -76.146138 
L 248.395207 -76.382657 
L 248.546863 -76.619175 
L 248.720952 -76.855694 
L 248.915244 -77.092213 
L 249.127373 -77.328731 
L 249.354879 -77.56525 
L 249.59525 -77.801768 
L 249.845972 -78.038287 
L 250.104566 -78.274806 
L 250.368636 -78.511324 
L 250.635914 -78.747843 
L 250.904292 -78.984362 
L 251.171864 -79.22088 
L 251.436954 -79.457399 
L 251.698135 -79.693917 
L 251.954254 -79.930436 
L 252.204434 -80.166955 
L 252.44808 -80.403473 
L 252.684872 -80.639992 
L 252.914751 -80.876511 
L 253.137898 -81.113029 
L 253.354711 -81.349548 
L 253.565767 -81.586066 
L 253.771791 -81.822585 
L 253.973615 -82.059104 
L 254.172139 -82.295622 
L 254.36829 -82.532141 
L 254.562983 -82.76866 
L 254.757088 -83.005178 
L 254.951393 -83.241697 
L 255.146585 -83.478215 
L 255.343221 -83.714734 
L 255.541719 -83.951253 
L 255.742345 -84.187771 
L 255.945217 -84.42429 
L 256.150304 -84.660809 
L 256.357438 -84.897327 
L 256.566329 -85.133846 
L 256.776584 -85.370364 
L 256.987726 -85.606883 
L 257.199222 -85.843402 
L 257.410503 -86.07992 
L 257.620991 -86.316439 
L 257.830117 -86.552958 
L 258.037345 -86.789476 
L 258.242189 -87.025995 
L 258.444224 -87.262513 
L 258.643096 -87.499032 
L 258.838529 -87.735551 
L 259.030326 -87.972069 
L 259.218364 -88.208588 
L 259.402594 -88.445107 
L 259.583025 -88.681625 
L 259.759718 -88.918144 
L 259.932772 -89.154662 
L 260.102309 -89.391181 
L 260.268461 -89.6277 
L 260.43136 -89.864218 
L 260.59112 -90.100737 
L 266.684706 -90.100737 
L 266.684706 -90.100737 
L 266.844466 -89.864218 
L 267.007365 -89.6277 
L 267.173518 -89.391181 
L 267.343055 -89.154662 
L 267.516108 -88.918144 
L 267.692801 -88.681625 
L 267.873232 -88.445107 
L 268.057462 -88.208588 
L 268.245501 -87.972069 
L 268.437298 -87.735551 
L 268.632731 -87.499032 
L 268.831603 -87.262513 
L 269.033637 -87.025995 
L 269.238481 -86.789476 
L 269.44571 -86.552958 
L 269.654836 -86.316439 
L 269.865323 -86.07992 
L 270.076604 -85.843402 
L 270.2881 -85.606883 
L 270.499243 -85.370364 
L 270.709497 -85.133846 
L 270.918388 -84.897327 
L 271.125522 -84.660809 
L 271.330609 -84.42429 
L 271.533481 -84.187771 
L 271.734108 -83.951253 
L 271.932605 -83.714734 
L 272.129241 -83.478215 
L 272.324433 -83.241697 
L 272.518739 -83.005178 
L 272.712843 -82.76866 
L 272.907537 -82.532141 
L 273.103687 -82.295622 
L 273.302212 -82.059104 
L 273.504036 -81.822585 
L 273.71006 -81.586066 
L 273.921116 -81.349548 
L 274.137928 -81.113029 
L 274.361075 -80.876511 
L 274.590954 -80.639992 
L 274.827746 -80.403473 
L 275.071392 -80.166955 
L 275.321572 -79.930436 
L 275.577691 -79.693917 
L 275.838873 -79.457399 
L 276.103962 -79.22088 
L 276.371535 -78.984362 
L 276.639913 -78.747843 
L 276.90719 -78.511324 
L 277.171261 -78.274806 
L 277.429854 -78.038287 
L 277.680576 -77.801768 
L 277.920948 -77.56525 
L 278.148453 -77.328731 
L 278.360582 -77.092213 
L 278.554874 -76.855694 
L 278.728964 -76.619175 
L 278.88062 -76.382657 
L 279.007782 -76.146138 
L 279.108599 -75.909619 
L 279.181452 -75.673101 
L 279.224984 -75.436582 
L 279.23812 -75.200064 
L 279.220078 -74.963545 
L 279.170382 -74.727026 
L 279.088864 -74.490508 
L 278.975665 -74.253989 
L 278.831229 -74.01747 
L 278.656292 -73.780952 
L 278.451867 -73.544433 
L 278.219225 -73.307915 
L 277.959875 -73.071396 
L 277.675536 -72.834877 
L 277.368107 -72.598359 
L 277.03964 -72.36184 
L 276.692307 -72.125321 
L 276.328363 -71.888803 
L 275.950119 -71.652284 
L 275.559902 -71.415766 
L 275.160029 -71.179247 
L 274.752775 -70.942728 
L 274.34034 -70.70621 
L 273.924833 -70.469691 
L 273.508244 -70.233172 
L 273.092426 -69.996654 
L 272.679086 -69.760135 
L 272.269768 -69.523617 
L 271.865854 -69.287098 
L 271.468558 -69.050579 
L 271.078927 -68.814061 
L 270.697852 -68.577542 
L 270.326069 -68.341023 
L 269.964175 -68.104505 
L 269.612639 -67.867986 
L 269.271816 -67.631468 
L 268.94196 -67.394949 
L 268.623243 -67.15843 
L 268.315764 -66.921912 
L 268.019569 -66.685393 
z
" style="stroke: #0c8066; stroke-opacity: 0.3"/>
    </defs>
    <g clip-path="url(#p85b4070e43)">
     <use xlink:href="#mcb928fa75c" x="0" y="288" style="fill: #0c8066; fill-opacity: 0.3; stroke: #0c8066; stroke-opacity: 0.3"/>
    </g>
   </g>
   <g id="PolyCollection_11">
    <defs>
     <path id="mf6003664e5" d="M 334.515763 -53.305197 
L 317.561716 -53.305197 
L 317.340352 -53.406562 
L 317.122024 -53.507927 
L 316.905816 -53.609292 
L 316.690735 -53.710657 
L 316.475743 -53.812022 
L 316.259797 -53.913387 
L 316.041884 -54.014752 
L 315.821064 -54.116118 
L 315.596508 -54.217483 
L 315.367534 -54.318848 
L 315.133642 -54.420213 
L 314.894545 -54.521578 
L 314.650194 -54.622943 
L 314.400794 -54.724308 
L 314.146821 -54.825673 
L 313.889022 -54.927039 
L 313.628414 -55.028404 
L 313.36627 -55.129769 
L 313.1041 -55.231134 
L 312.843624 -55.332499 
L 312.586734 -55.433864 
L 312.335458 -55.535229 
L 312.091909 -55.636594 
L 311.858238 -55.73796 
L 311.636579 -55.839325 
L 311.428998 -55.94069 
L 311.237439 -56.042055 
L 311.063671 -56.14342 
L 310.909247 -56.244785 
L 310.775458 -56.34615 
L 310.6633 -56.447515 
L 310.573446 -56.548881 
L 310.50623 -56.650246 
L 310.461638 -56.751611 
L 310.439306 -56.852976 
L 310.438533 -56.954341 
L 310.458302 -57.055706 
L 310.497307 -57.157071 
L 310.553989 -57.258436 
L 310.626583 -57.359802 
L 310.713165 -57.461167 
L 310.811708 -57.562532 
L 310.920132 -57.663897 
L 311.03637 -57.765262 
L 311.158415 -57.866627 
L 311.284377 -57.967992 
L 311.412531 -58.069357 
L 311.54136 -58.170723 
L 311.669591 -58.272088 
L 311.79622 -58.373453 
L 311.920535 -58.474818 
L 312.042126 -58.576183 
L 312.16088 -58.677548 
L 312.276977 -58.778913 
L 312.390873 -58.880278 
L 312.50327 -58.981644 
L 312.615087 -59.083009 
L 312.727419 -59.184374 
L 312.841494 -59.285739 
L 312.958627 -59.387104 
L 313.080172 -59.488469 
L 313.207472 -59.589834 
L 313.341814 -59.691199 
L 313.484383 -59.792565 
L 313.636223 -59.89393 
L 313.798204 -59.995295 
L 313.97099 -60.09666 
L 314.155022 -60.198025 
L 314.3505 -60.29939 
L 314.55738 -60.400755 
L 314.775374 -60.50212 
L 315.003957 -60.603486 
L 315.242386 -60.704851 
L 315.489718 -60.806216 
L 315.74484 -60.907581 
L 316.006498 -61.008946 
L 316.273332 -61.110311 
L 316.543912 -61.211676 
L 316.816776 -61.313041 
L 317.090465 -61.414407 
L 317.363559 -61.515772 
L 317.634708 -61.617137 
L 317.902666 -61.718502 
L 318.166309 -61.819867 
L 318.424662 -61.921232 
L 318.67691 -62.022597 
L 318.92241 -62.123962 
L 319.160695 -62.225328 
L 319.391472 -62.326693 
L 319.614622 -62.428058 
L 319.830182 -62.529423 
L 320.038336 -62.630788 
L 320.239397 -62.732153 
L 320.433787 -62.833518 
L 320.622015 -62.934883 
L 320.804653 -63.036249 
L 320.982315 -63.137614 
L 321.155631 -63.238979 
L 321.325229 -63.340344 
L 330.752251 -63.340344 
L 330.752251 -63.340344 
L 330.921848 -63.238979 
L 331.095165 -63.137614 
L 331.272826 -63.036249 
L 331.455464 -62.934883 
L 331.643692 -62.833518 
L 331.838082 -62.732153 
L 332.039144 -62.630788 
L 332.247298 -62.529423 
L 332.462857 -62.428058 
L 332.686007 -62.326693 
L 332.916785 -62.225328 
L 333.155069 -62.123962 
L 333.400569 -62.022597 
L 333.652817 -61.921232 
L 333.91117 -61.819867 
L 334.174813 -61.718502 
L 334.442771 -61.617137 
L 334.713921 -61.515772 
L 334.987014 -61.414407 
L 335.260703 -61.313041 
L 335.533567 -61.211676 
L 335.804147 -61.110311 
L 336.070982 -61.008946 
L 336.33264 -60.907581 
L 336.587761 -60.806216 
L 336.835094 -60.704851 
L 337.073522 -60.603486 
L 337.302105 -60.50212 
L 337.520099 -60.400755 
L 337.726979 -60.29939 
L 337.922458 -60.198025 
L 338.106489 -60.09666 
L 338.279276 -59.995295 
L 338.441256 -59.89393 
L 338.593096 -59.792565 
L 338.735665 -59.691199 
L 338.870007 -59.589834 
L 338.997307 -59.488469 
L 339.118852 -59.387104 
L 339.235986 -59.285739 
L 339.350061 -59.184374 
L 339.462392 -59.083009 
L 339.574209 -58.981644 
L 339.686606 -58.880278 
L 339.800502 -58.778913 
L 339.9166 -58.677548 
L 340.035353 -58.576183 
L 340.156944 -58.474818 
L 340.28126 -58.373453 
L 340.407889 -58.272088 
L 340.536119 -58.170723 
L 340.664948 -58.069357 
L 340.793102 -57.967992 
L 340.919064 -57.866627 
L 341.041109 -57.765262 
L 341.157347 -57.663897 
L 341.265772 -57.562532 
L 341.364314 -57.461167 
L 341.450896 -57.359802 
L 341.52349 -57.258436 
L 341.580173 -57.157071 
L 341.619177 -57.055706 
L 341.638946 -56.954341 
L 341.638174 -56.852976 
L 341.615842 -56.751611 
L 341.571249 -56.650246 
L 341.504034 -56.548881 
L 341.41418 -56.447515 
L 341.302021 -56.34615 
L 341.168232 -56.244785 
L 341.013808 -56.14342 
L 340.840041 -56.042055 
L 340.648481 -55.94069 
L 340.4409 -55.839325 
L 340.219241 -55.73796 
L 339.98557 -55.636594 
L 339.742021 -55.535229 
L 339.490745 -55.433864 
L 339.233855 -55.332499 
L 338.973379 -55.231134 
L 338.711209 -55.129769 
L 338.449065 -55.028404 
L 338.188457 -54.927039 
L 337.930659 -54.825673 
L 337.676686 -54.724308 
L 337.427286 -54.622943 
L 337.182934 -54.521578 
L 336.943837 -54.420213 
L 336.709945 -54.318848 
L 336.480971 -54.217483 
L 336.256415 -54.116118 
L 336.035595 -54.014752 
L 335.817683 -53.913387 
L 335.601736 -53.812022 
L 335.386744 -53.710657 
L 335.171663 -53.609292 
L 334.955456 -53.507927 
L 334.737128 -53.406562 
L 334.515763 -53.305197 
z
" style="stroke: #0c8066; stroke-opacity: 0.3"/>
    </defs>
    <g clip-path="url(#p85b4070e43)">
     <use xlink:href="#mf6003664e5" x="0" y="288" style="fill: #0c8066; fill-opacity: 0.3; stroke: #0c8066; stroke-opacity: 0.3"/>
    </g>
   </g>
   <g id="PolyCollection_12">
    <defs>
     <path id="m7b3e77ac04" d="M 400.582588 -70.030442 
L 376.296544 -70.030442 
L 375.893755 -70.199384 
L 375.507836 -70.368326 
L 375.140844 -70.537268 
L 374.794779 -70.70621 
L 374.471576 -70.875152 
L 374.173084 -71.044093 
L 373.901055 -71.213035 
L 373.65712 -71.381977 
L 373.442775 -71.550919 
L 373.259357 -71.719861 
L 373.108027 -71.888803 
L 372.989745 -72.057745 
L 372.905251 -72.226687 
L 372.855043 -72.395628 
L 372.83936 -72.56457 
L 372.858162 -72.733512 
L 372.91112 -72.902454 
L 372.997601 -73.071396 
L 373.116663 -73.240338 
L 373.267055 -73.40928 
L 373.447217 -73.578222 
L 373.655295 -73.747163 
L 373.88915 -73.916105 
L 374.146382 -74.085047 
L 374.42436 -74.253989 
L 374.720248 -74.422931 
L 375.031048 -74.591873 
L 375.353642 -74.760815 
L 375.684833 -74.929757 
L 376.021398 -75.098698 
L 376.360135 -75.26764 
L 376.697913 -75.436582 
L 377.031723 -75.605524 
L 377.358724 -75.774466 
L 377.676288 -75.943408 
L 377.98204 -76.11235 
L 378.273894 -76.281292 
L 378.550082 -76.450233 
L 378.809178 -76.619175 
L 379.050111 -76.788117 
L 379.272178 -76.957059 
L 379.475043 -77.126001 
L 379.658728 -77.294943 
L 379.823605 -77.463885 
L 379.970375 -77.632827 
L 380.100036 -77.801768 
L 380.213859 -77.97071 
L 380.313347 -78.139652 
L 380.400194 -78.308594 
L 380.476248 -78.477536 
L 380.543461 -78.646478 
L 380.603845 -78.81542 
L 380.65943 -78.984362 
L 380.712219 -79.153303 
L 380.764148 -79.322245 
L 380.817048 -79.491187 
L 380.872612 -79.660129 
L 380.932367 -79.829071 
L 380.997646 -79.998013 
L 381.069577 -80.166955 
L 381.149065 -80.335897 
L 381.236784 -80.504838 
L 381.333181 -80.67378 
L 381.438473 -80.842722 
L 381.552662 -81.011664 
L 381.675545 -81.180606 
L 381.80673 -81.349548 
L 381.945658 -81.51849 
L 382.091629 -81.687432 
L 382.243821 -81.856373 
L 382.401319 -82.025315 
L 382.563144 -82.194257 
L 382.728275 -82.363199 
L 382.895677 -82.532141 
L 383.064324 -82.701083 
L 383.233223 -82.870025 
L 383.401431 -83.038967 
L 383.568074 -83.207908 
L 383.732362 -83.37685 
L 383.893597 -83.545792 
L 384.051185 -83.714734 
L 384.204639 -83.883676 
L 384.353582 -84.052618 
L 384.497744 -84.22156 
L 384.636962 -84.390502 
L 384.771174 -84.559443 
L 384.900409 -84.728385 
L 385.024778 -84.897327 
L 385.144468 -85.066269 
L 385.259725 -85.235211 
L 385.370845 -85.404153 
L 385.47816 -85.573095 
L 385.582028 -85.742037 
L 385.682817 -85.910978 
L 385.780899 -86.07992 
L 385.876634 -86.248862 
L 385.970365 -86.417804 
L 386.062406 -86.586746 
L 386.153039 -86.755688 
L 390.726093 -86.755688 
L 390.726093 -86.755688 
L 390.816726 -86.586746 
L 390.908768 -86.417804 
L 391.002498 -86.248862 
L 391.098234 -86.07992 
L 391.196315 -85.910978 
L 391.297105 -85.742037 
L 391.400972 -85.573095 
L 391.508288 -85.404153 
L 391.619407 -85.235211 
L 391.734664 -85.066269 
L 391.854354 -84.897327 
L 391.978724 -84.728385 
L 392.107958 -84.559443 
L 392.24217 -84.390502 
L 392.381388 -84.22156 
L 392.52555 -84.052618 
L 392.674493 -83.883676 
L 392.827947 -83.714734 
L 392.985535 -83.545792 
L 393.146771 -83.37685 
L 393.311058 -83.207908 
L 393.477701 -83.038967 
L 393.645909 -82.870025 
L 393.814808 -82.701083 
L 393.983455 -82.532141 
L 394.150857 -82.363199 
L 394.315988 -82.194257 
L 394.477813 -82.025315 
L 394.635312 -81.856373 
L 394.787503 -81.687432 
L 394.933474 -81.51849 
L 395.072403 -81.349548 
L 395.203587 -81.180606 
L 395.32647 -81.011664 
L 395.440659 -80.842722 
L 395.545952 -80.67378 
L 395.642348 -80.504838 
L 395.730067 -80.335897 
L 395.809555 -80.166955 
L 395.881486 -79.998013 
L 395.946766 -79.829071 
L 396.00652 -79.660129 
L 396.062084 -79.491187 
L 396.114984 -79.322245 
L 396.166913 -79.153303 
L 396.219703 -78.984362 
L 396.275288 -78.81542 
L 396.335672 -78.646478 
L 396.402884 -78.477536 
L 396.478938 -78.308594 
L 396.565785 -78.139652 
L 396.665273 -77.97071 
L 396.779096 -77.801768 
L 396.908757 -77.632827 
L 397.055527 -77.463885 
L 397.220405 -77.294943 
L 397.40409 -77.126001 
L 397.606954 -76.957059 
L 397.829021 -76.788117 
L 398.069954 -76.619175 
L 398.32905 -76.450233 
L 398.605238 -76.281292 
L 398.897093 -76.11235 
L 399.202845 -75.943408 
L 399.520408 -75.774466 
L 399.847409 -75.605524 
L 400.181219 -75.436582 
L 400.518997 -75.26764 
L 400.857734 -75.098698 
L 401.194299 -74.929757 
L 401.52549 -74.760815 
L 401.848084 -74.591873 
L 402.158884 -74.422931 
L 402.454772 -74.253989 
L 402.73275 -74.085047 
L 402.989982 -73.916105 
L 403.223837 -73.747163 
L 403.431915 -73.578222 
L 403.612078 -73.40928 
L 403.762469 -73.240338 
L 403.881531 -73.071396 
L 403.968012 -72.902454 
L 404.02097 -72.733512 
L 404.039773 -72.56457 
L 404.024089 -72.395628 
L 403.973881 -72.226687 
L 403.889387 -72.057745 
L 403.771105 -71.888803 
L 403.619775 -71.719861 
L 403.436357 -71.550919 
L 403.222012 -71.381977 
L 402.978077 -71.213035 
L 402.706048 -71.044093 
L 402.407557 -70.875152 
L 402.084353 -70.70621 
L 401.738289 -70.537268 
L 401.371296 -70.368326 
L 400.985377 -70.199384 
L 400.582588 -70.030442 
z
" style="stroke: #0c8066; stroke-opacity: 0.3"/>
    </defs>
    <g clip-path="url(#p85b4070e43)">
     <use xlink:href="#m7b3e77ac04" x="0" y="288" style="fill: #0c8066; fill-opacity: 0.3; stroke: #0c8066; stroke-opacity: 0.3"/>
    </g>
   </g>
   <g id="matplotlib.axis_1">
    <g id="xtick_1">
     <g id="line2d_1">
      <defs>
       <path id="m0ec314bbaa" d="M 0 0 
L 0 3.5 
" style="stroke: #000000; stroke-width: 0.8"/>
      </defs>
      <g>
       <use xlink:href="#m0ec314bbaa" x="76.435434" y="248.075" style="stroke: #000000; stroke-width: 0.8"/>
      </g>
     </g>
     <g id="text_1">
      <text style="font: 10px 'serif'; text-anchor: middle" x="76.435434" y="262.673438" transform="rotate(-0, 76.435434, 262.673438)">$10^{-5}$</text>
     </g>
    </g>
    <g id="xtick_2">
     <g id="line2d_2">
      <g>
       <use xlink:href="#m0ec314bbaa" x="138.83626" y="248.075" style="stroke: #000000; stroke-width: 0.8"/>
      </g>
     </g>
     <g id="text_2">
      <text style="font: 10px 'serif'; text-anchor: middle" x="138.83626" y="262.673438" transform="rotate(-0, 138.83626, 262.673438)">$10^{-4}$</text>
     </g>
    </g>
    <g id="xtick_3">
     <g id="line2d_3">
      <g>
       <use xlink:href="#m0ec314bbaa" x="201.237087" y="248.075" style="stroke: #000000; stroke-width: 0.8"/>
      </g>
     </g>
     <g id="text_3">
      <text style="font: 10px 'serif'; text-anchor: middle" x="201.237087" y="262.673438" transform="rotate(-0, 201.237087, 262.673438)">$10^{-3}$</text>
     </g>
    </g>
    <g id="xtick_4">
     <g id="line2d_4">
      <g>
       <use xlink:href="#m0ec314bbaa" x="263.637913" y="248.075" style="stroke: #000000; stroke-width: 0.8"/>
      </g>
     </g>
     <g id="text_4">
      <text style="font: 10px 'serif'; text-anchor: middle" x="263.637913" y="262.673438" transform="rotate(-0, 263.637913, 262.673438)">$10^{-2}$</text>
     </g>
    </g>
    <g id="xtick_5">
     <g id="line2d_5">
      <g>
       <use xlink:href="#m0ec314bbaa" x="326.03874" y="248.075" style="stroke: #000000; stroke-width: 0.8"/>
      </g>
     </g>
     <g id="text_5">
      <text style="font: 10px 'serif'; text-anchor: middle" x="326.03874" y="262.673438" transform="rotate(-0, 326.03874, 262.673438)">$10^{-1}$</text>
     </g>
    </g>
    <g id="xtick_6">
     <g id="line2d_6">
      <g>
       <use xlink:href="#m0ec314bbaa" x="388.439566" y="248.075" style="stroke: #000000; stroke-width: 0.8"/>
      </g>
     </g>
     <g id="text_6">
      <text style="font: 10px 'serif'; text-anchor: middle" x="388.439566" y="262.673438" transform="rotate(-0, 388.439566, 262.673438)">$10^{0}$</text>
     </g>
    </g>
    <g id="text_7">
     <text style="font: 10px 'serif'; text-anchor: middle" x="232.4375" y="276.351562" transform="rotate(-0, 232.4375, 276.351562)">Gap junction conductance ($\mu S$)</text>
    </g>
   </g>
   <g id="matplotlib.axis_2">
    <g id="ytick_1">
     <g id="line2d_7">
      <defs>
       <path id="mc065b87f84" d="M 0 0 
L -3.5 0 
" style="stroke: #000000; stroke-width: 0.8"/>
      </defs>
      <g>
       <use xlink:href="#mc065b87f84" x="43.675" y="248.075" style="stroke: #000000; stroke-width: 0.8"/>
      </g>
     </g>
     <g id="text_8">
      <text style="font: 10px 'serif'; text-anchor: end" x="36.675" y="251.874219" transform="rotate(-0, 36.675, 251.874219)">0</text>
     </g>
    </g>
    <g id="ytick_2">
     <g id="line2d_8">
      <g>
       <use xlink:href="#mc065b87f84" x="43.675" y="214.624509" style="stroke: #000000; stroke-width: 0.8"/>
      </g>
     </g>
     <g id="text_9">
      <text style="font: 10px 'serif'; text-anchor: end" x="36.675" y="218.423727" transform="rotate(-0, 36.675, 218.423727)">10</text>
     </g>
    </g>
    <g id="ytick_3">
     <g id="line2d_9">
      <g>
       <use xlink:href="#mc065b87f84" x="43.675" y="181.174017" style="stroke: #000000; stroke-width: 0.8"/>
      </g>
     </g>
     <g id="text_10">
      <text style="font: 10px 'serif'; text-anchor: end" x="36.675" y="184.973236" transform="rotate(-0, 36.675, 184.973236)">20</text>
     </g>
    </g>
    <g id="ytick_4">
     <g id="line2d_10">
      <g>
       <use xlink:href="#mc065b87f84" x="43.675" y="147.723526" style="stroke: #000000; stroke-width: 0.8"/>
      </g>
     </g>
     <g id="text_11">
      <text style="font: 10px 'serif'; text-anchor: end" x="36.675" y="151.522745" transform="rotate(-0, 36.675, 151.522745)">30</text>
     </g>
    </g>
    <g id="ytick_5">
     <g id="line2d_11">
      <g>
       <use xlink:href="#mc065b87f84" x="43.675" y="114.273035" style="stroke: #000000; stroke-width: 0.8"/>
      </g>
     </g>
     <g id="text_12">
      <text style="font: 10px 'serif'; text-anchor: end" x="36.675" y="118.072254" transform="rotate(-0, 36.675, 118.072254)">40</text>
     </g>
    </g>
    <g id="ytick_6">
     <g id="line2d_12">
      <g>
       <use xlink:href="#mc065b87f84" x="43.675" y="80.822543" style="stroke: #000000; stroke-width: 0.8"/>
      </g>
     </g>
     <g id="text_13">
      <text style="font: 10px 'serif'; text-anchor: end" x="36.675" y="84.621762" transform="rotate(-0, 36.675, 84.621762)">50</text>
     </g>
    </g>
    <g id="ytick_7">
     <g id="line2d_13">
      <g>
       <use xlink:href="#mc065b87f84" x="43.675" y="47.372052" style="stroke: #000000; stroke-width: 0.8"/>
      </g>
     </g>
     <g id="text_14">
      <text style="font: 10px 'serif'; text-anchor: end" x="36.675" y="51.171271" transform="rotate(-0, 36.675, 51.171271)">60</text>
     </g>
    </g>
    <g id="text_15">
     <text style="font: 10px 'serif'; text-anchor: middle" x="17.728125" y="137.4375" transform="rotate(-90, 17.728125, 137.4375)">Number of Leidenalg partitions</text>
    </g>
   </g>
   <g id="text_16">
    <text style="font: 12px 'serif'; text-anchor: middle" x="232.4375" y="20.8" transform="rotate(-0, 232.4375, 20.8)">Temporal cluster count distributions</text>
   </g>
   <g id="legend_1">
    <g id="patch_3">
     <path d="M 350.265625 64.15625 
L 414.2 64.15625 
Q 416.2 64.15625 416.2 62.15625 
L 416.2 33.8 
Q 416.2 31.8 414.2 31.8 
L 350.265625 31.8 
Q 348.265625 31.8 348.265625 33.8 
L 348.265625 62.15625 
Q 348.265625 64.15625 350.265625 64.15625 
z
" style="fill: #ffffff; opacity: 0.8; stroke: #cccccc; stroke-linejoin: miter"/>
    </g>
    <g id="patch_4">
     <path d="M 352.265625 43.398437 
L 372.265625 43.398437 
L 372.265625 36.398437 
L 352.265625 36.398437 
z
" style="fill: #0c8066; fill-opacity: 0.3; stroke: #0c8066; stroke-opacity: 0.3; stroke-linejoin: miter"/>
    </g>
    <g id="text_17">
     <text style="font: 10px 'serif'; text-anchor: start" x="380.265625" y="43.398437" transform="rotate(-0, 380.265625, 43.398437)">C=0.2</text>
    </g>
    <g id="patch_5">
     <path d="M 352.265625 58.076562 
L 372.265625 58.076562 
L 372.265625 51.076562 
L 352.265625 51.076562 
z
" style="fill: #6ebbd5; fill-opacity: 0.3; stroke: #6ebbd5; stroke-opacity: 0.3; stroke-linejoin: miter"/>
    </g>
    <g id="text_18">
     <text style="font: 10px 'serif'; text-anchor: start" x="380.265625" y="58.076562" transform="rotate(-0, 380.265625, 58.076562)">C=0.8</text>
    </g>
   </g>
  </g>
 </g>
 <defs>
  <clipPath id="p85b4070e43">
   <rect x="43.675" y="26.8" width="377.525" height="221.275"/>
  </clipPath>
 </defs>
</svg>
