<?xml version="1.0" encoding="utf-8" standalone="no"?>
<!DOCTYPE svg PUBLIC "-//W3C//DTD SVG 1.1//EN"
  "http://www.w3.org/Graphics/SVG/1.1/DTD/svg11.dtd">
<svg xmlns:xlink="http://www.w3.org/1999/xlink" width="432pt" height="288pt" viewBox="0 0 432 288" xmlns="http://www.w3.org/2000/svg" version="1.1">
 <metadata>
  <rdf:RDF xmlns:dc="http://purl.org/dc/elements/1.1/" xmlns:cc="http://creativecommons.org/ns#" xmlns:rdf="http://www.w3.org/1999/02/22-rdf-syntax-ns#">
   <cc:Work>
    <dc:type rdf:resource="http://purl.org/dc/dcmitype/StillImage"/>
    <dc:date>2022-05-12T13:27:52.423087</dc:date>
    <dc:format>image/svg+xml</dc:format>
    <dc:creator>
     <cc:Agent>
      <dc:title>Matplotlib v3.5.1, https://matplotlib.org/</dc:title>
     </cc:Agent>
    </dc:creator>
   </cc:Work>
  </rdf:RDF>
 </metadata>
 <defs>
  <style type="text/css">*{stroke-linejoin: round; stroke-linecap: butt}</style>
 </defs>
 <g id="figure_1">
  <g id="patch_1">
   <path d="M 0 288 
L 432 288 
L 432 0 
L 0 0 
L 0 288 
z
" style="fill: none"/>
  </g>
  <g id="axes_1">
   <g id="patch_2">
    <path d="M 53.9875 248.2 
L 411.6375 248.2 
L 411.6375 26.8 
L 53.9875 26.8 
z
" style="fill: #ffffff"/>
   </g>
   <g id="matplotlib.axis_1">
    <g id="xtick_1">
     <g id="text_1">
      <text style="font: 10px 'serif'; text-anchor: middle" x="53.9875" y="262.798437" transform="rotate(-0, 53.9875, 262.798437)">0</text>
     </g>
    </g>
    <g id="xtick_2">
     <g id="text_2">
      <text style="font: 10px 'serif'; text-anchor: middle" x="125.5175" y="262.798437" transform="rotate(-0, 125.5175, 262.798437)">100</text>
     </g>
    </g>
    <g id="xtick_3">
     <g id="text_3">
      <text style="font: 10px 'serif'; text-anchor: middle" x="197.0475" y="262.798437" transform="rotate(-0, 197.0475, 262.798437)">200</text>
     </g>
    </g>
    <g id="xtick_4">
     <g id="text_4">
      <text style="font: 10px 'serif'; text-anchor: middle" x="268.5775" y="262.798437" transform="rotate(-0, 268.5775, 262.798437)">300</text>
     </g>
    </g>
    <g id="xtick_5">
     <g id="text_5">
      <text style="font: 10px 'serif'; text-anchor: middle" x="340.1075" y="262.798437" transform="rotate(-0, 340.1075, 262.798437)">400</text>
     </g>
    </g>
    <g id="xtick_6">
     <g id="text_6">
      <text style="font: 10px 'serif'; text-anchor: middle" x="411.6375" y="262.798437" transform="rotate(-0, 411.6375, 262.798437)">500</text>
     </g>
    </g>
    <g id="text_7">
     <text style="font: 10px 'serif'; text-anchor: middle" x="232.8125" y="276.476562" transform="rotate(-0, 232.8125, 276.476562)">Soma-soma distance ($\mu m$)</text>
    </g>
   </g>
   <g id="matplotlib.axis_2">
    <g id="ytick_1">
     <g id="text_8">
      <text style="font: 10px 'serif'; text-anchor: end" x="46.9875" y="251.999219" transform="rotate(-0, 46.9875, 251.999219)">0.00</text>
     </g>
    </g>
    <g id="ytick_2">
     <g id="text_9">
      <text style="font: 10px 'serif'; text-anchor: end" x="46.9875" y="215.099219" transform="rotate(-0, 46.9875, 215.099219)">0.05</text>
     </g>
    </g>
    <g id="ytick_3">
     <g id="text_10">
      <text style="font: 10px 'serif'; text-anchor: end" x="46.9875" y="178.199219" transform="rotate(-0, 46.9875, 178.199219)">0.10</text>
     </g>
    </g>
    <g id="ytick_4">
     <g id="text_11">
      <text style="font: 10px 'serif'; text-anchor: end" x="46.9875" y="141.299219" transform="rotate(-0, 46.9875, 141.299219)">0.15</text>
     </g>
    </g>
    <g id="ytick_5">
     <g id="text_12">
      <text style="font: 10px 'serif'; text-anchor: end" x="46.9875" y="104.399219" transform="rotate(-0, 46.9875, 104.399219)">0.20</text>
     </g>
    </g>
    <g id="ytick_6">
     <g id="text_13">
      <text style="font: 10px 'serif'; text-anchor: end" x="46.9875" y="67.499219" transform="rotate(-0, 46.9875, 67.499219)">0.25</text>
     </g>
    </g>
    <g id="ytick_7">
     <g id="text_14">
      <text style="font: 10px 'serif'; text-anchor: end" x="46.9875" y="30.599219" transform="rotate(-0, 46.9875, 30.599219)">0.30</text>
     </g>
    </g>
    <g id="text_15">
     <text style="font: 10px 'serif'; text-anchor: middle" x="18.364063" y="137.5" transform="rotate(-90, 18.364063, 137.5)">$\left&lt;\rho_{\mathrm{sync}}(r)\right&gt;_t / \rho_{\mathrm{soma}}(r)$</text>
    </g>
   </g>
   <g id="line2d_1">
    <path d="M 53.9875 174.798655 
L 64.770917 117.290154 
L 68.365389 121.395703 
L 71.959862 131.838917 
L 75.554334 137.860609 
L 79.148807 134.393984 
L 82.743279 128.487825 
L 86.337751 129.058467 
L 89.932224 126.166149 
L 93.526696 127.722965 
L 97.121168 128.143926 
L 104.310113 136.85948 
L 107.904585 138.582906 
L 115.09353 143.450287 
L 118.688003 143.492584 
L 122.282475 143.73748 
L 125.876947 144.790544 
L 129.47142 146.033675 
L 133.065892 143.699159 
L 136.660364 144.508315 
L 140.254837 143.663724 
L 143.849309 144.980468 
L 147.443781 147.26907 
L 151.038254 151.211759 
L 154.632726 152.85175 
L 158.227198 155.987339 
L 161.821671 158.189127 
L 165.416143 158.516889 
L 169.010616 160.980313 
L 172.605088 162.223249 
L 179.794033 166.413837 
L 183.388505 168.183222 
L 186.982977 168.132258 
L 190.57745 169.212162 
L 194.171922 171.221692 
L 197.766394 173.036948 
L 201.360867 173.506106 
L 204.955339 173.640566 
L 208.549812 174.672888 
L 212.144284 176.167023 
L 215.738756 177.148085 
L 219.333229 178.427252 
L 222.927701 180.159036 
L 226.522173 181.330597 
L 230.116646 180.707491 
L 233.711118 179.954502 
L 237.30559 181.244822 
L 240.900063 181.088109 
L 244.494535 183.755506 
L 248.089008 184.782013 
L 251.68348 186.723319 
L 255.277952 187.821806 
L 258.872425 189.705954 
L 262.466897 189.071275 
L 269.655842 191.765528 
L 273.250314 191.834034 
L 276.844786 193.311695 
L 280.439259 194.166782 
L 284.033731 194.830036 
L 287.628204 195.055631 
L 291.222676 196.211938 
L 294.817148 197.218115 
L 298.411621 198.624291 
L 302.006093 198.910574 
L 305.600565 200.389132 
L 309.195038 200.649526 
L 312.78951 201.419587 
L 316.383982 201.213915 
L 323.572927 203.203835 
L 327.167399 203.897613 
L 330.761872 203.342472 
L 337.950817 205.287103 
L 341.545289 204.539749 
L 345.139761 205.368818 
L 348.734234 205.008447 
L 352.328706 206.035694 
L 355.923178 206.734356 
L 359.517651 208.58132 
L 363.112123 209.167954 
L 366.706595 211.111775 
L 370.301068 211.12409 
L 373.89554 211.004994 
L 377.490013 211.281723 
L 381.084485 211.293086 
L 384.678957 211.931826 
L 388.27343 212.290944 
L 391.867902 213.382782 
L 395.462374 213.330909 
L 399.056847 213.974936 
L 406.245791 214.176241 
L 413.434736 213.82394 
L 424.218153 215.52053 
L 427.812626 215.667398 
L 431.407098 216.516158 
L 433 216.747595 
L 433 216.747595 
" clip-path="url(#p03ee0f298a)" style="fill: none; stroke: #0c8066; stroke-width: 1.5; stroke-linecap: square"/>
   </g>
   <g id="line2d_2">
    <path d="M 53.9875 190.311864 
L 64.770917 64.711072 
L 68.365389 52.938197 
L 71.959862 50.31716 
L 75.554334 52.543898 
L 79.148807 53.29467 
L 82.743279 60.379102 
L 86.337751 69.480071 
L 89.932224 72.258035 
L 93.526696 81.38465 
L 97.121168 84.528492 
L 100.715641 91.456422 
L 104.310113 94.055343 
L 107.904585 98.490787 
L 111.499058 100.399293 
L 115.09353 105.188995 
L 118.688003 104.92117 
L 122.282475 107.038958 
L 125.876947 109.76034 
L 129.47142 112.295746 
L 133.065892 113.314135 
L 136.660364 117.887957 
L 140.254837 122.15551 
L 143.849309 125.41745 
L 147.443781 127.738253 
L 151.038254 127.751408 
L 158.227198 130.111927 
L 161.821671 130.784349 
L 165.416143 131.583234 
L 169.010616 137.739182 
L 172.605088 139.284606 
L 176.19956 140.440058 
L 179.794033 142.670281 
L 183.388505 146.047502 
L 186.982977 146.098828 
L 190.57745 147.609032 
L 194.171922 149.894738 
L 197.766394 152.989169 
L 201.360867 152.969734 
L 204.955339 154.810345 
L 208.549812 155.628215 
L 212.144284 158.173567 
L 215.738756 157.809181 
L 219.333229 159.766511 
L 222.927701 161.025702 
L 226.522173 163.813557 
L 230.116646 162.840228 
L 233.711118 165.925558 
L 237.30559 167.186395 
L 240.900063 171.414519 
L 244.494535 173.543185 
L 248.089008 177.542336 
L 251.68348 177.909964 
L 255.277952 179.161331 
L 258.872425 178.38042 
L 262.466897 178.233578 
L 266.061369 178.462653 
L 269.655842 180.357902 
L 273.250314 182.932768 
L 276.844786 183.774663 
L 284.033731 188.150485 
L 291.222676 189.184721 
L 294.817148 191.741291 
L 298.411621 193.794323 
L 302.006093 194.703059 
L 305.600565 197.064865 
L 309.195038 199.749969 
L 312.78951 200.056327 
L 316.383982 199.626154 
L 319.978455 200.357788 
L 323.572927 201.661437 
L 327.167399 201.931109 
L 330.761872 202.736966 
L 334.356344 204.634405 
L 337.950817 205.339754 
L 341.545289 205.727215 
L 345.139761 207.078592 
L 348.734234 208.655552 
L 352.328706 209.540116 
L 355.923178 210.972207 
L 359.517651 211.560996 
L 363.112123 212.50271 
L 370.301068 213.676839 
L 373.89554 214.486777 
L 377.490013 214.858147 
L 381.084485 214.649892 
L 384.678957 215.995883 
L 388.27343 216.209571 
L 391.867902 216.281177 
L 395.462374 217.147755 
L 399.056847 217.518703 
L 402.651319 217.148144 
L 406.245791 217.889743 
L 417.029209 221.692718 
L 420.623681 222.611711 
L 424.218153 223.645798 
L 427.812626 224.488902 
L 431.407098 224.723651 
L 433 224.983205 
L 433 224.983205 
" clip-path="url(#p03ee0f298a)" style="fill: none; stroke-dasharray: 5.55,2.4; stroke-dashoffset: 0; stroke: #4c4c4c; stroke-width: 1.5"/>
   </g>
   <g id="line2d_3">
    <path d="M 53.9875 169.169476 
L 61.176445 144.896819 
L 64.770917 122.494774 
L 68.365389 142.529738 
L 71.959862 132.245123 
L 75.554334 129.345795 
L 79.148807 135.089035 
L 82.743279 137.519363 
L 86.337751 142.665373 
L 89.932224 151.094118 
L 93.526696 158.237783 
L 97.121168 159.75516 
L 100.715641 164.320456 
L 107.904585 172.125058 
L 111.499058 178.0021 
L 115.09353 183.55473 
L 118.688003 190.125646 
L 122.282475 193.962998 
L 125.876947 200.054925 
L 129.47142 202.341151 
L 133.065892 204.814641 
L 136.660364 206.138602 
L 140.254837 210.085898 
L 143.849309 211.128022 
L 147.443781 213.189897 
L 151.038254 215.879481 
L 154.632726 217.118019 
L 158.227198 218.911262 
L 165.416143 221.635088 
L 169.010616 222.135394 
L 172.605088 224.310539 
L 176.19956 224.825908 
L 179.794033 227.000562 
L 183.388505 227.597304 
L 186.982977 228.612953 
L 190.57745 228.409441 
L 194.171922 228.724144 
L 197.766394 228.15712 
L 201.360867 229.199246 
L 204.955339 229.349517 
L 208.549812 230.308513 
L 212.144284 230.460241 
L 215.738756 231.266332 
L 222.927701 232.147025 
L 226.522173 232.253348 
L 230.116646 232.98829 
L 233.711118 232.556959 
L 237.30559 232.350312 
L 240.900063 232.918166 
L 244.494535 233.216822 
L 248.089008 233.033486 
L 251.68348 233.368655 
L 255.277952 233.472927 
L 258.872425 233.123509 
L 262.466897 233.083656 
L 266.061369 233.209347 
L 269.655842 233.752311 
L 273.250314 233.722556 
L 280.439259 234.270865 
L 284.033731 234.363159 
L 287.628204 234.085332 
L 294.817148 234.474256 
L 298.411621 234.605237 
L 305.600565 234.53834 
L 309.195038 234.593063 
L 312.78951 234.049462 
L 316.383982 233.930957 
L 319.978455 234.267479 
L 323.572927 234.221721 
L 327.167399 234.501479 
L 330.761872 235.098539 
L 334.356344 235.087517 
L 337.950817 234.949445 
L 341.545289 235.108658 
L 345.139761 234.862317 
L 352.328706 235.01556 
L 355.923178 234.841623 
L 359.517651 234.899121 
L 366.706595 234.78577 
L 370.301068 234.815303 
L 373.89554 235.099346 
L 377.490013 235.15073 
L 384.678957 234.768571 
L 388.27343 234.667349 
L 391.867902 234.419573 
L 395.462374 234.44353 
L 399.056847 234.881977 
L 409.840264 235.654097 
L 417.029209 236.062371 
L 420.623681 236.006277 
L 424.218153 236.143308 
L 427.812626 236.511001 
L 433 236.420358 
L 433 236.420358 
" clip-path="url(#p03ee0f298a)" style="fill: none; stroke: #6ebbd5; stroke-width: 1.5; stroke-linecap: square"/>
   </g>
   <g id="text_16">
    <text style="font: 12px 'serif'; text-anchor: middle" x="232.8125" y="20.8" transform="rotate(-0, 232.8125, 20.8)">Radial density function of synchronization at ggap=$10^{-2} \mu S$</text>
   </g>
   <g id="legend_1">
    <g id="line2d_4">
     <path d="M 358.734375 39.898437 
L 368.734375 39.898437 
L 378.734375 39.898437 
" style="fill: none; stroke: #0c8066; stroke-width: 1.5; stroke-linecap: square"/>
    </g>
    <g id="text_17">
     <text style="font: 10px 'serif'; text-anchor: start" x="386.734375" y="43.398437" transform="rotate(-0, 386.734375, 43.398437)">0.2</text>
    </g>
    <g id="line2d_5">
     <path d="M 358.734375 54.576562 
L 368.734375 54.576562 
L 378.734375 54.576562 
" style="fill: none; stroke-dasharray: 5.55,2.4; stroke-dashoffset: 0; stroke: #4c4c4c; stroke-width: 1.5"/>
    </g>
    <g id="text_18">
     <text style="font: 10px 'serif'; text-anchor: start" x="386.734375" y="58.076562" transform="rotate(-0, 386.734375, 58.076562)">0.5</text>
    </g>
    <g id="line2d_6">
     <path d="M 358.734375 69.254687 
L 368.734375 69.254687 
L 378.734375 69.254687 
" style="fill: none; stroke: #6ebbd5; stroke-width: 1.5; stroke-linecap: square"/>
    </g>
    <g id="text_19">
     <text style="font: 10px 'serif'; text-anchor: start" x="386.734375" y="72.754687" transform="rotate(-0, 386.734375, 72.754687)">0.8</text>
    </g>
   </g>
  </g>
 </g>
 <defs>
  <clipPath id="p03ee0f298a">
   <rect x="53.9875" y="26.8" width="357.65" height="221.4"/>
  </clipPath>
 </defs>
</svg>
