<?xml version="1.0" encoding="utf-8" standalone="no"?>
<!DOCTYPE svg PUBLIC "-//W3C//DTD SVG 1.1//EN"
  "http://www.w3.org/Graphics/SVG/1.1/DTD/svg11.dtd">
<svg xmlns:xlink="http://www.w3.org/1999/xlink" width="432pt" height="288pt" viewBox="0 0 432 288" xmlns="http://www.w3.org/2000/svg" version="1.1">
 <metadata>
  <rdf:RDF xmlns:dc="http://purl.org/dc/elements/1.1/" xmlns:cc="http://creativecommons.org/ns#" xmlns:rdf="http://www.w3.org/1999/02/22-rdf-syntax-ns#">
   <cc:Work>
    <dc:type rdf:resource="http://purl.org/dc/dcmitype/StillImage"/>
    <dc:date>2022-05-12T13:11:39.126593</dc:date>
    <dc:format>image/svg+xml</dc:format>
    <dc:creator>
     <cc:Agent>
      <dc:title>Matplotlib v3.5.1, https://matplotlib.org/</dc:title>
     </cc:Agent>
    </dc:creator>
   </cc:Work>
  </rdf:RDF>
 </metadata>
 <defs>
  <style type="text/css">*{stroke-linejoin: round; stroke-linecap: butt}</style>
 </defs>
 <g id="figure_1">
  <g id="patch_1">
   <path d="M 0 288 
L 432 288 
L 432 0 
L 0 0 
L 0 288 
z
" style="fill: none"/>
  </g>
  <g id="axes_1">
   <g id="patch_2">
    <path d="M 47.6125 248.075 
L 411.6375 248.075 
L 411.6375 26.8 
L 47.6125 26.8 
z
" style="fill: #ffffff"/>
   </g>
   <g id="PolyCollection_1">
    <path d="M 47.6125 26.8 
L 47.6125 26.8 
L 54.033521 28.345586 
L 60.454542 35.083143 
L 66.875563 43.899867 
L 73.296583 60.656436 
L 79.717604 87.09398 
L 86.138625 112.560759 
L 92.559646 135.42039 
L 98.980667 159.462022 
L 105.401688 181.789207 
L 111.822708 199.293184 
L 118.243729 211.773871 
L 124.66475 223.013045 
L 131.085771 230.262418 
L 137.506792 235.014083 
L 143.927813 239.418943 
L 150.348833 241.850915 
L 156.769854 243.32979 
L 163.190875 245.128715 
L 169.611896 246.413669 
L 176.032917 247.179975 
L 182.453938 247.026535 
L 188.874958 247.171037 
L 195.295979 247.461709 
L 201.717 247.705828 
L 208.138021 247.174764 
L 214.559042 247.11002 
L 220.980063 247.06464 
L 227.401084 246.709724 
L 233.822104 246.720371 
L 240.243125 246.542833 
L 246.664146 246.144882 
L 253.085167 246.860165 
L 259.506188 247.060161 
L 265.927209 247.378624 
L 272.348229 248.06005 
L 278.76925 248.307888 
L 285.190271 248.53471 
L 291.611292 249.333604 
L 298.032313 249.110663 
L 304.453334 249.415566 
L 310.874354 249.164995 
L 317.295375 249.085153 
L 323.716396 249.377421 
L 330.137417 248.998502 
L 336.558438 249.050235 
L 342.979459 249.008211 
L 349.400479 248.939944 
L 355.8215 248.720704 
L 362.242521 248.844966 
L 368.663542 248.921629 
L 375.084563 248.944672 
L 381.505584 249.079436 
L 387.926604 249.041397 
L 394.347625 248.727555 
L 400.768646 248.410989 
L 407.189667 247.812841 
L 413.610688 247.67686 
L 420.031709 247.665208 
L 426.45273 247.650696 
L 432.87375 247.696053 
L 439.294771 247.744644 
L 445.715792 247.853481 
L 452.136813 248.165343 
L 458.557834 248.563783 
L 464.978855 248.422664 
L 471.399875 248.123516 
L 477.820896 247.982638 
L 484.241917 247.988684 
L 490.662938 248.064098 
L 497.083959 248.05264 
L 503.50498 248.259611 
L 509.926 248.620791 
L 516.347021 248.541453 
L 522.768042 248.840608 
L 529.189063 248.873712 
L 535.610084 248.48811 
L 542.031105 248.514015 
L 548.452125 248.390681 
L 554.873146 248.182995 
L 561.294167 248.120439 
L 567.715188 248.593335 
L 574.136209 249.199446 
L 580.55723 249.695888 
L 586.978251 249.82755 
L 593.399271 250.677143 
L 599.820292 250.731635 
L 606.241313 250.478263 
L 612.662334 250.890889 
L 619.083355 250.137746 
L 625.504376 248.872604 
L 631.925396 249.031938 
L 638.346417 249.310849 
L 644.767438 248.803327 
L 651.188459 249.057456 
L 657.60948 248.282856 
L 664.030501 248.075 
L 670.451521 248.075 
L 676.872542 248.075 
L 683.293563 248.075 
L 683.293563 248.075 
L 683.293563 248.075 
L 676.872542 248.075 
L 670.451521 248.075 
L 664.030501 248.075 
L 657.60948 247.614547 
L 651.188459 245.898614 
L 644.767438 246.461573 
L 638.346417 245.337284 
L 631.925396 245.351581 
L 625.504376 245.146474 
L 619.083355 242.554832 
L 612.662334 241.042743 
L 606.241313 242.327973 
L 599.820292 241.749685 
L 593.399271 241.758877 
L 586.978251 243.319033 
L 580.55723 243.668276 
L 574.136209 244.552582 
L 567.715188 245.856857 
L 561.294167 246.818923 
L 554.873146 246.823043 
L 548.452125 246.69852 
L 542.031105 246.613255 
L 535.610084 246.762547 
L 529.189063 246.147334 
L 522.768042 246.135559 
L 516.347021 246.541252 
L 509.926 245.54517 
L 503.50498 245.803651 
L 497.083959 245.918384 
L 490.662938 245.555077 
L 484.241917 245.411128 
L 477.820896 245.198138 
L 471.399875 244.727225 
L 464.978855 244.460109 
L 458.557834 243.832315 
L 452.136813 244.268554 
L 445.715792 244.279757 
L 439.294771 244.168051 
L 432.87375 244.362814 
L 426.45273 244.650951 
L 420.031709 244.773429 
L 413.610688 244.792548 
L 407.189667 244.088171 
L 400.768646 243.306139 
L 394.347625 242.53188 
L 387.926604 241.618166 
L 381.505584 241.646416 
L 375.084563 241.847184 
L 368.663542 242.345815 
L 362.242521 242.613405 
L 355.8215 243.139035 
L 349.400479 243.148321 
L 342.979459 242.677178 
L 336.558438 242.865661 
L 330.137417 242.766054 
L 323.716396 241.901745 
L 317.295375 242.345302 
L 310.874354 242.383521 
L 304.453334 242.238891 
L 298.032313 242.848198 
L 291.611292 242.052968 
L 285.190271 243.696095 
L 278.76925 243.666957 
L 272.348229 243.275593 
L 265.927209 243.001513 
L 259.506188 243.370916 
L 253.085167 243.131232 
L 246.664146 242.544647 
L 240.243125 243.000423 
L 233.822104 242.709087 
L 227.401084 242.415055 
L 220.980063 242.832701 
L 214.559042 243.059414 
L 208.138021 242.849752 
L 201.717 242.536345 
L 195.295979 242.263366 
L 188.874958 241.482737 
L 182.453938 239.60461 
L 176.032917 238.630163 
L 169.611896 236.900307 
L 163.190875 233.980184 
L 156.769854 230.769789 
L 150.348833 227.128639 
L 143.927813 222.254103 
L 137.506792 215.146017 
L 131.085771 207.670171 
L 124.66475 197.088192 
L 118.243729 184.106964 
L 111.822708 172.34207 
L 105.401688 153.158533 
L 98.980667 132.854831 
L 92.559646 111.67662 
L 86.138625 93.47313 
L 79.717604 74.251547 
L 73.296583 52.719045 
L 66.875563 39.530965 
L 60.454542 32.856627 
L 54.033521 27.704812 
L 47.6125 26.8 
z
" clip-path="url(#pb522c191af)" style="fill: #cccccc; fill-opacity: 0.3"/>
   </g>
   <g id="PolyCollection_2">
    <path d="M 47.6125 26.8 
L 47.6125 26.8 
L 54.033521 28.130027 
L 60.454542 33.433914 
L 66.875563 37.697681 
L 73.296583 44.255512 
L 79.717604 51.890302 
L 86.138625 59.256755 
L 92.559646 66.648841 
L 98.980667 73.548383 
L 105.401688 81.295502 
L 111.822708 89.780116 
L 118.243729 96.296746 
L 124.66475 101.774964 
L 131.085771 110.105109 
L 137.506792 115.540465 
L 143.927813 120.510704 
L 150.348833 128.084452 
L 156.769854 135.763756 
L 163.190875 141.606117 
L 169.611896 145.60229 
L 176.032917 152.685297 
L 182.453938 159.892602 
L 188.874958 165.86517 
L 195.295979 173.069723 
L 201.717 180.201827 
L 208.138021 187.986966 
L 214.559042 194.307631 
L 220.980063 201.04051 
L 227.401084 207.847737 
L 233.822104 213.502402 
L 240.243125 218.906015 
L 246.664146 222.652688 
L 253.085167 225.167683 
L 259.506188 226.824038 
L 265.927209 229.60219 
L 272.348229 230.66742 
L 278.76925 232.27242 
L 285.190271 234.398964 
L 291.611292 234.897948 
L 298.032313 237.58653 
L 304.453334 238.159399 
L 310.874354 239.418591 
L 317.295375 241.444223 
L 323.716396 242.076686 
L 330.137417 244.722981 
L 336.558438 246.293047 
L 342.979459 246.647151 
L 349.400479 249.52525 
L 355.8215 249.159535 
L 362.242521 249.945626 
L 368.663542 250.661601 
L 375.084563 249.70517 
L 381.505584 250.211643 
L 387.926604 251.076202 
L 394.347625 251.664302 
L 400.768646 252.714957 
L 407.189667 254.075071 
L 413.610688 254.243033 
L 420.031709 254.618443 
L 426.45273 255.175725 
L 432.87375 255.253265 
L 439.294771 255.732094 
L 445.715792 255.943635 
L 452.136813 256.372086 
L 458.557834 256.25963 
L 464.978855 256.571611 
L 471.399875 256.979013 
L 477.820896 256.932229 
L 484.241917 256.674143 
L 490.662938 255.879555 
L 497.083959 256.776967 
L 503.50498 257.568111 
L 509.926 257.270396 
L 516.347021 258.085385 
L 522.768042 258.800883 
L 529.189063 259.186241 
L 535.610084 259.14133 
L 542.031105 258.963026 
L 548.452125 258.034063 
L 554.873146 257.103041 
L 561.294167 254.164727 
L 567.715188 252.196869 
L 574.136209 250.58166 
L 580.55723 248.942398 
L 586.978251 248.427398 
L 593.399271 248.183437 
L 599.820292 248.075 
L 606.241313 248.075 
L 612.662334 248.075 
L 619.083355 248.075 
L 625.504376 248.075 
L 631.925396 248.075 
L 638.346417 248.075 
L 644.767438 248.075 
L 651.188459 248.075 
L 657.60948 248.075 
L 664.030501 248.075 
L 670.451521 248.075 
L 676.872542 248.075 
L 683.293563 248.075 
L 683.293563 248.075 
L 683.293563 248.075 
L 676.872542 248.075 
L 670.451521 248.075 
L 664.030501 248.075 
L 657.60948 248.075 
L 651.188459 248.075 
L 644.767438 248.075 
L 638.346417 248.075 
L 631.925396 248.075 
L 625.504376 248.075 
L 619.083355 248.075 
L 612.662334 248.075 
L 606.241313 248.075 
L 599.820292 248.075 
L 593.399271 247.770675 
L 586.978251 247.232126 
L 580.55723 246.043642 
L 574.136209 242.421465 
L 567.715188 238.671567 
L 561.294167 234.269828 
L 554.873146 227.480497 
L 548.452125 225.189894 
L 542.031105 222.886391 
L 535.610084 220.6486 
L 529.189063 219.295682 
L 522.768042 218.696159 
L 516.347021 219.389189 
L 509.926 219.557968 
L 503.50498 217.074283 
L 497.083959 216.825667 
L 490.662938 216.363398 
L 484.241917 212.19173 
L 477.820896 211.195509 
L 471.399875 209.500129 
L 464.978855 207.283628 
L 458.557834 205.213843 
L 452.136813 202.02331 
L 445.715792 199.777743 
L 439.294771 197.60769 
L 432.87375 195.977073 
L 426.45273 193.754038 
L 420.031709 190.947834 
L 413.610688 190.384817 
L 407.189667 189.694541 
L 400.768646 188.454723 
L 394.347625 189.295725 
L 387.926604 192.905971 
L 381.505584 189.460458 
L 375.084563 190.455966 
L 368.663542 191.890767 
L 362.242521 191.472614 
L 355.8215 190.553913 
L 349.400479 193.154674 
L 342.979459 192.135943 
L 336.558438 191.797768 
L 330.137417 194.080291 
L 323.716396 194.782603 
L 317.295375 193.297762 
L 310.874354 192.345121 
L 304.453334 192.36106 
L 298.032313 190.948476 
L 291.611292 188.022073 
L 285.190271 187.737284 
L 278.76925 185.569863 
L 272.348229 183.402253 
L 265.927209 182.063234 
L 259.506188 178.646231 
L 253.085167 175.61673 
L 246.664146 173.23118 
L 240.243125 169.516201 
L 233.822104 166.130431 
L 227.401084 162.995282 
L 220.980063 160.234588 
L 214.559042 158.231771 
L 208.138021 154.255714 
L 201.717 151.12636 
L 195.295979 147.60401 
L 188.874958 142.411093 
L 182.453938 135.173477 
L 176.032917 131.254252 
L 169.611896 125.191451 
L 163.190875 120.210729 
L 156.769854 114.744948 
L 150.348833 109.065074 
L 143.927813 102.824075 
L 137.506792 97.69118 
L 131.085771 91.055335 
L 124.66475 87.881146 
L 118.243729 81.177274 
L 111.822708 73.684857 
L 105.401688 69.454973 
L 98.980667 63.369723 
L 92.559646 58.048375 
L 86.138625 52.27958 
L 79.717604 47.04479 
L 73.296583 41.395945 
L 66.875563 35.66752 
L 60.454542 32.059185 
L 54.033521 27.485802 
L 47.6125 26.8 
z
" clip-path="url(#pb522c191af)" style="fill: #0c8066; fill-opacity: 0.3"/>
   </g>
   <g id="PolyCollection_3">
    <path d="M 47.6125 26.8 
L 47.6125 26.8 
L 54.033521 28.194732 
L 60.454542 35.482033 
L 66.875563 41.172842 
L 73.296583 51.06997 
L 79.717604 64.010303 
L 86.138625 75.986837 
L 92.559646 87.982987 
L 98.980667 101.99145 
L 105.401688 117.020486 
L 111.822708 130.530975 
L 118.243729 141.614953 
L 124.66475 152.567466 
L 131.085771 163.463482 
L 137.506792 172.440313 
L 143.927813 181.360296 
L 150.348833 188.004282 
L 156.769854 195.697074 
L 163.190875 201.670159 
L 169.611896 205.843265 
L 176.032917 207.911684 
L 182.453938 213.51728 
L 188.874958 215.625721 
L 195.295979 216.996224 
L 201.717 217.161596 
L 208.138021 222.562758 
L 214.559042 223.5194 
L 220.980063 224.397145 
L 227.401084 226.480062 
L 233.822104 229.3752 
L 240.243125 232.317711 
L 246.664146 234.216793 
L 253.085167 236.782713 
L 259.506188 239.829192 
L 265.927209 240.941292 
L 272.348229 243.020343 
L 278.76925 244.126783 
L 285.190271 245.037975 
L 291.611292 245.656224 
L 298.032313 246.251773 
L 304.453334 246.640613 
L 310.874354 246.848708 
L 317.295375 246.946695 
L 323.716396 246.382881 
L 330.137417 246.642215 
L 336.558438 246.451736 
L 342.979459 246.294018 
L 349.400479 246.380325 
L 355.8215 246.288772 
L 362.242521 246.440294 
L 368.663542 245.721834 
L 375.084563 246.30528 
L 381.505584 246.44146 
L 387.926604 246.990951 
L 394.347625 247.687486 
L 400.768646 248.188878 
L 407.189667 249.528036 
L 413.610688 250.292719 
L 420.031709 250.855648 
L 426.45273 251.833535 
L 432.87375 252.376664 
L 439.294771 252.834141 
L 445.715792 252.196197 
L 452.136813 252.296887 
L 458.557834 252.289506 
L 464.978855 250.867224 
L 471.399875 250.471295 
L 477.820896 249.476053 
L 484.241917 248.694396 
L 490.662938 248.078369 
L 497.083959 247.888051 
L 503.50498 248.355258 
L 509.926 248.686875 
L 516.347021 249.108491 
L 522.768042 250.052545 
L 529.189063 250.522837 
L 535.610084 250.867891 
L 542.031105 250.65742 
L 548.452125 250.716987 
L 554.873146 251.064151 
L 561.294167 250.937777 
L 567.715188 250.77027 
L 574.136209 250.213033 
L 580.55723 249.709026 
L 586.978251 249.377594 
L 593.399271 249.154174 
L 599.820292 249.002744 
L 606.241313 249.670192 
L 612.662334 249.851625 
L 619.083355 250.144111 
L 625.504376 250.950714 
L 631.925396 250.217139 
L 638.346417 250.752674 
L 644.767438 250.502757 
L 651.188459 249.876169 
L 657.60948 249.322136 
L 664.030501 248.744418 
L 670.451521 248.075 
L 676.872542 248.075 
L 683.293563 248.075 
L 683.293563 248.075 
L 683.293563 248.075 
L 676.872542 248.075 
L 670.451521 248.075 
L 664.030501 246.592071 
L 657.60948 245.312282 
L 651.188459 244.08496 
L 644.767438 242.696909 
L 638.346417 242.143282 
L 631.925396 243.329626 
L 625.504376 241.704573 
L 619.083355 243.4914 
L 612.662334 243.937209 
L 606.241313 243.72267 
L 599.820292 244.261777 
L 593.399271 243.242751 
L 586.978251 242.406974 
L 580.55723 241.267278 
L 574.136209 239.955817 
L 567.715188 238.630493 
L 561.294167 238.442532 
L 554.873146 238.058652 
L 548.452125 238.066347 
L 542.031105 238.570888 
L 535.610084 238.234199 
L 529.189063 238.64176 
L 522.768042 239.054455 
L 516.347021 239.882418 
L 509.926 239.401991 
L 503.50498 239.151608 
L 497.083959 239.314529 
L 490.662938 237.558972 
L 484.241917 237.096968 
L 477.820896 235.68412 
L 471.399875 233.427695 
L 464.978855 232.768236 
L 458.557834 230.003648 
L 452.136813 227.520063 
L 445.715792 226.088043 
L 439.294771 224.360007 
L 432.87375 221.94659 
L 426.45273 221.099128 
L 420.031709 222.09139 
L 413.610688 220.203004 
L 407.189667 219.878937 
L 400.768646 222.295085 
L 394.347625 221.998098 
L 387.926604 220.670929 
L 381.505584 223.627271 
L 375.084563 222.72718 
L 368.663542 221.821657 
L 362.242521 221.934052 
L 355.8215 220.540307 
L 349.400479 217.483127 
L 342.979459 216.795719 
L 336.558438 213.61371 
L 330.137417 210.815738 
L 323.716396 209.156546 
L 317.295375 207.239531 
L 310.874354 205.111908 
L 304.453334 203.173304 
L 298.032313 200.680862 
L 291.611292 198.836173 
L 285.190271 195.719636 
L 278.76925 193.858143 
L 272.348229 191.463088 
L 265.927209 188.442061 
L 259.506188 185.866263 
L 253.085167 182.167382 
L 246.664146 180.410087 
L 240.243125 179.519914 
L 233.822104 175.698062 
L 227.401084 174.439878 
L 220.980063 174.538148 
L 214.559042 174.894461 
L 208.138021 175.352225 
L 201.717 172.587831 
L 195.295979 175.192763 
L 188.874958 175.458785 
L 182.453938 172.58535 
L 176.032917 170.097813 
L 169.611896 169.041847 
L 163.190875 162.735454 
L 156.769854 156.149269 
L 150.348833 152.561734 
L 143.927813 146.639342 
L 137.506792 136.215717 
L 131.085771 126.664534 
L 124.66475 124.741986 
L 118.243729 112.959135 
L 111.822708 100.731915 
L 105.401688 94.077772 
L 98.980667 82.2743 
L 92.559646 72.14988 
L 86.138625 63.596257 
L 79.717604 54.919623 
L 73.296583 44.38185 
L 66.875563 36.95394 
L 60.454542 32.759476 
L 54.033521 27.664015 
L 47.6125 26.8 
z
" clip-path="url(#pb522c191af)" style="fill: #6ebbd5; fill-opacity: 0.3"/>
   </g>
   <g id="matplotlib.axis_1">
    <g id="xtick_1">
     <g id="text_1">
      <text style="font: 10px 'serif'; text-anchor: middle" x="47.6125" y="262.673438" transform="rotate(-0, 47.6125, 262.673438)">0</text>
     </g>
    </g>
    <g id="xtick_2">
     <g id="text_2">
      <text style="font: 10px 'serif'; text-anchor: middle" x="120.4175" y="262.673438" transform="rotate(-0, 120.4175, 262.673438)">100</text>
     </g>
    </g>
    <g id="xtick_3">
     <g id="text_3">
      <text style="font: 10px 'serif'; text-anchor: middle" x="193.2225" y="262.673438" transform="rotate(-0, 193.2225, 262.673438)">200</text>
     </g>
    </g>
    <g id="xtick_4">
     <g id="text_4">
      <text style="font: 10px 'serif'; text-anchor: middle" x="266.0275" y="262.673438" transform="rotate(-0, 266.0275, 262.673438)">300</text>
     </g>
    </g>
    <g id="xtick_5">
     <g id="text_5">
      <text style="font: 10px 'serif'; text-anchor: middle" x="338.8325" y="262.673438" transform="rotate(-0, 338.8325, 262.673438)">400</text>
     </g>
    </g>
    <g id="xtick_6">
     <g id="text_6">
      <text style="font: 10px 'serif'; text-anchor: middle" x="411.6375" y="262.673438" transform="rotate(-0, 411.6375, 262.673438)">500</text>
     </g>
    </g>
    <g id="text_7">
     <text style="font: 10px 'serif'; text-anchor: middle" x="229.625" y="276.351562" transform="rotate(-0, 229.625, 276.351562)">Probe-probe distance ($\mu m$)</text>
    </g>
   </g>
   <g id="matplotlib.axis_2">
    <g id="ytick_1">
     <g id="text_8">
      <text style="font: 10px 'serif'; text-anchor: end" x="40.6125" y="251.874219" transform="rotate(-0, 40.6125, 251.874219)">0.0</text>
     </g>
    </g>
    <g id="ytick_2">
     <g id="text_9">
      <text style="font: 10px 'serif'; text-anchor: end" x="40.6125" y="207.619219" transform="rotate(-0, 40.6125, 207.619219)">0.2</text>
     </g>
    </g>
    <g id="ytick_3">
     <g id="text_10">
      <text style="font: 10px 'serif'; text-anchor: end" x="40.6125" y="163.364219" transform="rotate(-0, 40.6125, 163.364219)">0.4</text>
     </g>
    </g>
    <g id="ytick_4">
     <g id="text_11">
      <text style="font: 10px 'serif'; text-anchor: end" x="40.6125" y="119.109219" transform="rotate(-0, 40.6125, 119.109219)">0.6</text>
     </g>
    </g>
    <g id="ytick_5">
     <g id="text_12">
      <text style="font: 10px 'serif'; text-anchor: end" x="40.6125" y="74.854219" transform="rotate(-0, 40.6125, 74.854219)">0.8</text>
     </g>
    </g>
    <g id="ytick_6">
     <g id="text_13">
      <text style="font: 10px 'serif'; text-anchor: end" x="40.6125" y="30.599219" transform="rotate(-0, 40.6125, 30.599219)">1.0</text>
     </g>
    </g>
    <g id="text_14">
     <text style="font: 10px 'serif'; text-anchor: middle" x="18.351563" y="137.4375" transform="rotate(-90, 18.351563, 137.4375)">$\left&lt;\rho&gt;0.5\right&gt; / \rho_{\mathrm{probes}}(r)$</text>
    </g>
   </g>
   <g id="line2d_1">
    <path d="M 47.6125 26.8 
L 54.033521 28.025199 
L 60.454542 33.969885 
L 66.875563 41.715416 
L 73.296583 56.687741 
L 79.717604 80.672764 
L 86.138625 103.016944 
L 92.559646 123.548505 
L 98.980667 146.158427 
L 105.401688 167.47387 
L 111.822708 185.817627 
L 118.243729 197.940417 
L 124.66475 210.050619 
L 131.085771 218.966295 
L 137.506792 225.08005 
L 143.927813 230.836523 
L 150.348833 234.489777 
L 156.769854 237.04979 
L 163.190875 239.554449 
L 169.611896 241.656988 
L 176.032917 242.905069 
L 182.453938 243.315572 
L 188.874958 244.326887 
L 195.295979 244.862538 
L 201.717 245.121086 
L 208.138021 245.012258 
L 214.559042 245.084717 
L 220.980063 244.948671 
L 227.401084 244.562389 
L 233.822104 244.714729 
L 240.243125 244.771628 
L 246.664146 244.344765 
L 253.085167 244.995698 
L 259.506188 245.215539 
L 265.927209 245.190069 
L 272.348229 245.667821 
L 278.76925 245.987423 
L 285.190271 246.115402 
L 291.611292 245.693286 
L 298.032313 245.979431 
L 304.453334 245.827229 
L 310.874354 245.774258 
L 317.295375 245.715227 
L 323.716396 245.639583 
L 330.137417 245.882278 
L 336.558438 245.957948 
L 342.979459 245.842694 
L 349.400479 246.044133 
L 355.8215 245.929869 
L 362.242521 245.729186 
L 368.663542 245.633722 
L 375.084563 245.395928 
L 381.505584 245.362926 
L 387.926604 245.329781 
L 394.347625 245.629717 
L 400.768646 245.858564 
L 407.189667 245.950506 
L 413.610688 246.234704 
L 420.031709 246.219318 
L 426.45273 246.150823 
L 432.87375 246.029434 
L 433 246.027997 
" clip-path="url(#pb522c191af)" style="fill: none; stroke-dasharray: 5.55,2.4; stroke-dashoffset: 0; stroke: #000000; stroke-width: 1.5"/>
   </g>
   <g id="line2d_2">
    <path d="M 47.6125 26.8 
L 54.033521 27.807915 
L 60.454542 32.74655 
L 66.875563 36.682601 
L 73.296583 42.825729 
L 79.717604 49.467546 
L 86.138625 55.768167 
L 92.559646 62.348608 
L 98.980667 68.459053 
L 105.401688 75.375238 
L 111.822708 81.732487 
L 118.243729 88.73701 
L 124.66475 94.828055 
L 131.085771 100.580222 
L 137.506792 106.615823 
L 143.927813 111.667389 
L 150.348833 118.574763 
L 156.769854 125.254352 
L 163.190875 130.908423 
L 169.611896 135.396871 
L 176.032917 141.969774 
L 182.453938 147.53304 
L 188.874958 154.138131 
L 195.295979 160.336866 
L 201.717 165.664094 
L 208.138021 171.12134 
L 214.559042 176.269701 
L 220.980063 180.637549 
L 227.401084 185.421509 
L 233.822104 189.816416 
L 240.243125 194.211108 
L 246.664146 197.941934 
L 253.085167 200.392207 
L 259.506188 202.735135 
L 265.927209 205.832712 
L 272.348229 207.034837 
L 278.76925 208.921141 
L 285.190271 211.068124 
L 291.611292 211.460011 
L 298.032313 214.267503 
L 304.453334 215.26023 
L 310.874354 215.881856 
L 317.295375 217.370993 
L 323.716396 218.429644 
L 330.137417 219.401636 
L 336.558438 219.045407 
L 342.979459 219.391547 
L 349.400479 221.339962 
L 355.8215 219.856724 
L 362.242521 220.70912 
L 368.663542 221.276184 
L 375.084563 220.080568 
L 381.505584 219.83605 
L 387.926604 221.991087 
L 394.347625 220.480013 
L 400.768646 220.58484 
L 407.189667 221.884806 
L 413.610688 222.313925 
L 420.031709 222.783139 
L 426.45273 224.464882 
L 432.87375 225.615169 
L 433 225.635907 
" clip-path="url(#pb522c191af)" style="fill: none; stroke-dasharray: 9.6,2.4,1.5,2.4; stroke-dashoffset: 0; stroke: #000000; stroke-width: 1.5"/>
   </g>
   <g id="line2d_3">
    <path d="M 47.6125 26.8 
L 54.033521 27.929373 
L 60.454542 34.120754 
L 66.875563 39.063391 
L 73.296583 47.72591 
L 79.717604 59.464963 
L 86.138625 69.791547 
L 92.559646 80.066434 
L 98.980667 92.132875 
L 105.401688 105.549129 
L 111.822708 115.631445 
L 118.243729 127.287044 
L 124.66475 138.654726 
L 131.085771 145.064008 
L 137.506792 154.328015 
L 143.927813 163.999819 
L 150.348833 170.283008 
L 156.769854 175.923172 
L 163.190875 182.202807 
L 169.611896 187.442556 
L 176.032917 189.004749 
L 182.453938 193.051315 
L 188.874958 195.542253 
L 195.295979 196.094494 
L 201.717 194.874713 
L 208.138021 198.957491 
L 214.559042 199.20693 
L 220.980063 199.467647 
L 227.401084 200.45997 
L 233.822104 202.536631 
L 240.243125 205.918813 
L 246.664146 207.31344 
L 253.085167 209.475047 
L 259.506188 212.847728 
L 265.927209 214.691676 
L 272.348229 217.241715 
L 278.76925 218.992463 
L 285.190271 220.378806 
L 291.611292 222.246198 
L 298.032313 223.466318 
L 304.453334 224.906959 
L 310.874354 225.980308 
L 317.295375 227.093113 
L 323.716396 227.769714 
L 330.137417 228.728976 
L 336.558438 230.032723 
L 342.979459 231.544868 
L 349.400479 231.931726 
L 355.8215 233.414539 
L 362.242521 234.187173 
L 368.663542 233.771745 
L 375.084563 234.51623 
L 381.505584 235.034365 
L 387.926604 233.83094 
L 394.347625 234.842792 
L 400.768646 235.241981 
L 407.189667 234.703486 
L 413.610688 235.247862 
L 420.031709 236.473519 
L 426.45273 236.466332 
L 432.87375 237.161627 
L 433 237.18985 
" clip-path="url(#pb522c191af)" style="fill: none; stroke: #000000; stroke-width: 1.5; stroke-linecap: square"/>
   </g>
   <g id="text_15">
    <text style="font: 12px 'serif'; text-anchor: middle" x="229.625" y="20.8" transform="rotate(-0, 229.625, 20.8)">Radial density function of local field potential correlation &gt; 0.5</text>
   </g>
   <g id="legend_1">
    <g id="line2d_4">
     <path d="M 220.360937 39.898437 
L 230.360937 39.898437 
L 240.360937 39.898437 
" style="fill: none; stroke-dasharray: 5.55,2.4; stroke-dashoffset: 0; stroke: #000000; stroke-width: 1.5"/>
    </g>
    <g id="patch_3">
     <path d="M 220.360937 43.398437 
L 240.360937 43.398437 
L 240.360937 36.398437 
L 220.360937 36.398437 
z
" style="fill: #cccccc; fill-opacity: 0.3; stroke: #cccccc; stroke-opacity: 0.3; stroke-linejoin: miter"/>
    </g>
    <g id="text_16">
     <text style="font: 10px 'serif'; text-anchor: start" x="248.360937" y="43.398437" transform="rotate(-0, 248.360937, 43.398437)">ggap=$10^{-4}\mu S$ C=0.8</text>
    </g>
    <g id="line2d_5">
     <path d="M 220.360937 54.71875 
L 230.360937 54.71875 
L 240.360937 54.71875 
" style="fill: none; stroke-dasharray: 9.6,2.4,1.5,2.4; stroke-dashoffset: 0; stroke: #000000; stroke-width: 1.5"/>
    </g>
    <g id="patch_4">
     <path d="M 220.360937 58.21875 
L 240.360937 58.21875 
L 240.360937 51.21875 
L 220.360937 51.21875 
z
" style="fill: #0c8066; fill-opacity: 0.3; stroke: #0c8066; stroke-opacity: 0.3; stroke-linejoin: miter"/>
    </g>
    <g id="text_17">
     <text style="font: 10px 'serif'; text-anchor: start" x="248.360937" y="58.21875" transform="rotate(-0, 248.360937, 58.21875)">ggap=$10^{-2}\mu S$ C=0.2</text>
    </g>
    <g id="line2d_6">
     <path d="M 220.360937 69.539062 
L 230.360937 69.539062 
L 240.360937 69.539062 
" style="fill: none; stroke: #000000; stroke-width: 1.5; stroke-linecap: square"/>
    </g>
    <g id="patch_5">
     <path d="M 220.360937 73.039062 
L 240.360937 73.039062 
L 240.360937 66.039062 
L 220.360937 66.039062 
z
" style="fill: #6ebbd5; fill-opacity: 0.3; stroke: #6ebbd5; stroke-opacity: 0.3; stroke-linejoin: miter"/>
    </g>
    <g id="text_18">
     <text style="font: 10px 'serif'; text-anchor: start" x="248.360937" y="73.039062" transform="rotate(-0, 248.360937, 73.039062)">ggap=$10^{-2}\mu S$ C=0.8</text>
    </g>
   </g>
  </g>
 </g>
 <defs>
  <clipPath id="pb522c191af">
   <rect x="47.6125" y="26.8" width="364.025" height="221.275"/>
  </clipPath>
 </defs>
</svg>
