<?xml version="1.0" encoding="utf-8" standalone="no"?>
<!DOCTYPE svg PUBLIC "-//W3C//DTD SVG 1.1//EN"
  "http://www.w3.org/Graphics/SVG/1.1/DTD/svg11.dtd">
<svg xmlns:xlink="http://www.w3.org/1999/xlink" width="432pt" height="288pt" viewBox="0 0 432 288" xmlns="http://www.w3.org/2000/svg" version="1.1">
 <metadata>
  <rdf:RDF xmlns:dc="http://purl.org/dc/elements/1.1/" xmlns:cc="http://creativecommons.org/ns#" xmlns:rdf="http://www.w3.org/1999/02/22-rdf-syntax-ns#">
   <cc:Work>
    <dc:type rdf:resource="http://purl.org/dc/dcmitype/StillImage"/>
    <dc:date>2022-08-17T11:02:18.986229</dc:date>
    <dc:format>image/svg+xml</dc:format>
    <dc:creator>
     <cc:Agent>
      <dc:title>Matplotlib v3.5.2, https://matplotlib.org/</dc:title>
     </cc:Agent>
    </dc:creator>
   </cc:Work>
  </rdf:RDF>
 </metadata>
 <defs>
  <style type="text/css">*{stroke-linejoin: round; stroke-linecap: butt}</style>
 </defs>
 <g id="figure_1">
  <g id="patch_1">
   <path d="M 0 288 
L 432 288 
L 432 0 
L 0 0 
L 0 288 
z
" style="fill: none"/>
  </g>
  <g id="axes_1">
   <g id="patch_2">
    <path d="M 52.175 248.2 
L 421.2 248.2 
L 421.2 26.8 
L 52.175 26.8 
z
" style="fill: #ffffff"/>
   </g>
   <g id="line2d_1">
    <path d="M 157.610714 248.2 
L 157.610714 26.8 
" clip-path="url(#pf94b237e82)" style="fill: none; stroke: #000000; stroke-width: 1.5; stroke-linecap: square"/>
   </g>
   <g id="matplotlib.axis_1">
    <g id="xtick_1">
     <g id="line2d_2">
      <defs>
       <path id="m400fb4e436" d="M 0 0 
L 0 3.5 
" style="stroke: #000000; stroke-width: 0.8"/>
      </defs>
      <g>
       <use xlink:href="#m400fb4e436" x="52.175" y="248.2" style="stroke: #000000; stroke-width: 0.8"/>
      </g>
     </g>
     <g id="text_1">
      <text style="font: 10px 'serif'; text-anchor: middle" x="52.175" y="262.798437" transform="rotate(-0, 52.175, 262.798437)">−200</text>
     </g>
    </g>
    <g id="xtick_2">
     <g id="line2d_3">
      <g>
       <use xlink:href="#m400fb4e436" x="104.892857" y="248.2" style="stroke: #000000; stroke-width: 0.8"/>
      </g>
     </g>
     <g id="text_2">
      <text style="font: 10px 'serif'; text-anchor: middle" x="104.892857" y="262.798437" transform="rotate(-0, 104.892857, 262.798437)">−100</text>
     </g>
    </g>
    <g id="xtick_3">
     <g id="line2d_4">
      <g>
       <use xlink:href="#m400fb4e436" x="157.610714" y="248.2" style="stroke: #000000; stroke-width: 0.8"/>
      </g>
     </g>
     <g id="text_3">
      <text style="font: 10px 'serif'; text-anchor: middle" x="157.610714" y="262.798437" transform="rotate(-0, 157.610714, 262.798437)">0</text>
     </g>
    </g>
    <g id="xtick_4">
     <g id="line2d_5">
      <g>
       <use xlink:href="#m400fb4e436" x="210.328571" y="248.2" style="stroke: #000000; stroke-width: 0.8"/>
      </g>
     </g>
     <g id="text_4">
      <text style="font: 10px 'serif'; text-anchor: middle" x="210.328571" y="262.798437" transform="rotate(-0, 210.328571, 262.798437)">100</text>
     </g>
    </g>
    <g id="xtick_5">
     <g id="line2d_6">
      <g>
       <use xlink:href="#m400fb4e436" x="263.046429" y="248.2" style="stroke: #000000; stroke-width: 0.8"/>
      </g>
     </g>
     <g id="text_5">
      <text style="font: 10px 'serif'; text-anchor: middle" x="263.046429" y="262.798437" transform="rotate(-0, 263.046429, 262.798437)">200</text>
     </g>
    </g>
    <g id="xtick_6">
     <g id="line2d_7">
      <g>
       <use xlink:href="#m400fb4e436" x="315.764286" y="248.2" style="stroke: #000000; stroke-width: 0.8"/>
      </g>
     </g>
     <g id="text_6">
      <text style="font: 10px 'serif'; text-anchor: middle" x="315.764286" y="262.798437" transform="rotate(-0, 315.764286, 262.798437)">300</text>
     </g>
    </g>
    <g id="xtick_7">
     <g id="line2d_8">
      <g>
       <use xlink:href="#m400fb4e436" x="368.482143" y="248.2" style="stroke: #000000; stroke-width: 0.8"/>
      </g>
     </g>
     <g id="text_7">
      <text style="font: 10px 'serif'; text-anchor: middle" x="368.482143" y="262.798437" transform="rotate(-0, 368.482143, 262.798437)">400</text>
     </g>
    </g>
    <g id="text_8">
     <text style="font: 10px 'serif'; text-anchor: middle" x="236.6875" y="276.476562" transform="rotate(-0, 236.6875, 276.476562)">Time (ms)</text>
    </g>
   </g>
   <g id="matplotlib.axis_2">
    <g id="ytick_1">
     <g id="line2d_9">
      <defs>
       <path id="mf692ca7ee5" d="M 0 0 
L -3.5 0 
" style="stroke: #000000; stroke-width: 0.8"/>
      </defs>
      <g>
       <use xlink:href="#mf692ca7ee5" x="52.175" y="214.094569" style="stroke: #000000; stroke-width: 0.8"/>
      </g>
     </g>
     <g id="text_9">
      <text style="font: 10px 'serif'; text-anchor: end" x="45.175" y="217.893788" transform="rotate(-0, 45.175, 217.893788)">−20</text>
     </g>
    </g>
    <g id="ytick_2">
     <g id="line2d_10">
      <g>
       <use xlink:href="#mf692ca7ee5" x="52.175" y="175.797284" style="stroke: #000000; stroke-width: 0.8"/>
      </g>
     </g>
     <g id="text_10">
      <text style="font: 10px 'serif'; text-anchor: end" x="45.175" y="179.596503" transform="rotate(-0, 45.175, 179.596503)">−10</text>
     </g>
    </g>
    <g id="ytick_3">
     <g id="line2d_11">
      <g>
       <use xlink:href="#mf692ca7ee5" x="52.175" y="137.5" style="stroke: #000000; stroke-width: 0.8"/>
      </g>
     </g>
     <g id="text_11">
      <text style="font: 10px 'serif'; text-anchor: end" x="45.175" y="141.299219" transform="rotate(-0, 45.175, 141.299219)">0</text>
     </g>
    </g>
    <g id="ytick_4">
     <g id="line2d_12">
      <g>
       <use xlink:href="#mf692ca7ee5" x="52.175" y="99.202716" style="stroke: #000000; stroke-width: 0.8"/>
      </g>
     </g>
     <g id="text_12">
      <text style="font: 10px 'serif'; text-anchor: end" x="45.175" y="103.001934" transform="rotate(-0, 45.175, 103.001934)">10</text>
     </g>
    </g>
    <g id="ytick_5">
     <g id="line2d_13">
      <g>
       <use xlink:href="#mf692ca7ee5" x="52.175" y="60.905431" style="stroke: #000000; stroke-width: 0.8"/>
      </g>
     </g>
     <g id="text_13">
      <text style="font: 10px 'serif'; text-anchor: end" x="45.175" y="64.70465" transform="rotate(-0, 45.175, 64.70465)">20</text>
     </g>
    </g>
    <g id="text_14">
     <text style="font: 10px 'serif'; text-anchor: middle" x="17.990625" y="137.5" transform="rotate(-90, 17.990625, 137.5)">External potential ($\mu$ V)</text>
    </g>
   </g>
   <g id="line2d_14">
    <path d="M -1 133.581272 
L -0.542857 133.572337 
L 4.728929 132.756709 
L 7.364821 133.458971 
L 10.000714 135.100518 
L 12.636607 135.400321 
L 15.2725 133.387293 
L 17.908393 133.690533 
L 20.544286 132.675627 
L 23.180179 132.266506 
L 28.451964 132.432313 
L 31.087857 132.812293 
L 33.72375 132.603965 
L 36.359643 131.407981 
L 38.995536 131.316173 
L 44.267321 130.65823 
L 46.903214 130.144638 
L 49.539107 130.571678 
L 52.175 131.254923 
L 54.810893 131.20108 
L 57.446786 130.896776 
L 60.082679 131.405824 
L 62.718571 131.736985 
L 65.354464 132.193423 
L 67.990357 133.416006 
L 70.62625 132.884544 
L 73.262143 132.475143 
L 75.898036 131.649352 
L 78.533929 131.540003 
L 81.169821 131.654522 
L 83.805714 131.545443 
L 86.441607 131.722468 
L 91.713393 131.359646 
L 94.349286 131.598944 
L 96.985179 132.251169 
L 99.621071 132.500178 
L 102.256964 133.462396 
L 104.892857 134.277154 
L 107.52875 134.938955 
L 112.800536 134.839522 
L 115.436429 135.046812 
L 118.072321 135.941878 
L 120.708214 137.30923 
L 128.615893 135.26491 
L 131.251786 133.740568 
L 133.887679 132.668115 
L 141.795357 131.559566 
L 144.43125 131.528235 
L 147.067143 131.939353 
L 149.703036 132.699135 
L 154.974821 131.517252 
L 157.610714 131.63379 
L 162.8825 103.995949 
L 165.518393 104.359907 
L 168.154286 104.061626 
L 170.790179 109.19824 
L 173.426071 120.280309 
L 176.061964 160.289913 
L 178.697857 222.149459 
L 181.33375 238.359301 
L 183.969643 238.624548 
L 186.605536 231.497543 
L 189.241429 230.530482 
L 191.877321 223.871882 
L 194.513214 205.956181 
L 197.149107 192.192375 
L 199.785 183.834272 
L 202.420893 181.274067 
L 205.056786 184.319975 
L 207.692679 185.727886 
L 210.328571 172.506558 
L 212.964464 150.421857 
L 215.600357 141.122092 
L 218.23625 144.031326 
L 220.872143 148.162423 
L 223.508036 146.251193 
L 226.143929 143.323415 
L 228.779821 142.59299 
L 231.415714 142.837762 
L 234.051607 140.447207 
L 236.6875 136.507276 
L 239.323393 132.244408 
L 241.959286 130.581228 
L 244.595179 130.120968 
L 249.866964 128.73267 
L 252.502857 129.041798 
L 255.13875 130.549316 
L 265.682321 134.242872 
L 268.318214 135.586639 
L 270.954107 136.183828 
L 273.59 136.088592 
L 276.225893 135.786895 
L 284.133571 135.644714 
L 286.769464 134.961992 
L 292.04125 134.883313 
L 294.677143 134.237679 
L 297.313036 134.121944 
L 299.948929 133.595096 
L 302.584821 133.218456 
L 305.220714 133.530357 
L 307.856607 133.415215 
L 310.4925 132.740502 
L 313.128393 131.921319 
L 318.400179 131.68124 
L 321.036071 131.282103 
L 323.671964 130.255224 
L 326.307857 130.380348 
L 328.94375 130.625051 
L 331.579643 130.232417 
L 334.215536 130.348711 
L 336.851429 130.901751 
L 339.487321 131.167466 
L 342.123214 131.192316 
L 344.759107 131.587788 
L 347.395 131.856533 
L 350.030893 131.977875 
L 352.666786 131.633896 
L 355.302679 130.882087 
L 360.574464 129.7495 
L 365.84625 131.253111 
L 368.482143 132.841385 
L 371.118036 133.85567 
L 379.025714 131.849656 
L 381.661607 130.851795 
L 384.2975 129.254664 
L 386.933393 129.226556 
L 389.569286 130.901148 
L 392.205179 130.26291 
L 394.841071 130.699323 
L 397.476964 130.269539 
L 400.112857 129.50475 
L 402.74875 129.036095 
L 405.384643 129.119474 
L 408.020536 129.70228 
L 410.656429 130.525475 
L 413.292321 130.638815 
L 415.928214 129.409933 
L 418.564107 128.757549 
L 418.564107 128.757549 
" clip-path="url(#pf94b237e82)" style="fill: none; stroke: #0c8066; stroke-width: 1.5; stroke-linecap: square"/>
   </g>
   <g id="line2d_15">
    <path d="M -1 118.102437 
L -0.542857 118.088916 
L 2.093036 118.299782 
L 4.728929 118.703555 
L 7.364821 118.918357 
L 10.000714 119.537845 
L 12.636607 119.588333 
L 17.908393 119.107149 
L 20.544286 118.976793 
L 23.180179 118.651496 
L 28.451964 118.4965 
L 31.087857 118.469449 
L 36.359643 118.120995 
L 41.631429 118.398041 
L 44.267321 118.634052 
L 54.810893 118.953676 
L 62.718571 119.705097 
L 65.354464 119.730214 
L 67.990357 119.599544 
L 70.62625 119.339685 
L 75.898036 118.417077 
L 78.533929 118.247038 
L 81.169821 117.771273 
L 83.805714 117.795117 
L 86.441607 117.934947 
L 102.256964 120.157461 
L 104.892857 120.431609 
L 107.52875 120.492857 
L 112.800536 120.286774 
L 115.436429 120.323743 
L 118.072321 119.722519 
L 120.708214 118.628477 
L 123.344107 118.012973 
L 128.615893 117.350958 
L 131.251786 117.244154 
L 133.887679 117.349274 
L 139.159464 117.948295 
L 144.43125 118.676856 
L 149.703036 119.07507 
L 157.610714 119.0851 
L 160.246607 103.95987 
L 162.8825 83.27994 
L 165.518393 81.38781 
L 168.154286 75.595564 
L 170.790179 71.241208 
L 173.426071 52.364185 
L 176.061964 47.115498 
L 178.697857 56.202054 
L 181.33375 78.294878 
L 183.969643 106.04774 
L 186.605536 117.265032 
L 189.241429 136.720932 
L 191.877321 151.323587 
L 194.513214 144.547458 
L 197.149107 142.577797 
L 199.785 135.447678 
L 202.420893 130.602019 
L 205.056786 128.901031 
L 207.692679 124.074717 
L 210.328571 126.970635 
L 212.964464 136.551186 
L 215.600357 140.284542 
L 218.23625 139.598744 
L 220.872143 133.957879 
L 223.508036 131.404292 
L 226.143929 122.234583 
L 228.779821 115.621331 
L 231.415714 121.550546 
L 234.051607 128.161651 
L 236.6875 126.664136 
L 239.323393 121.302265 
L 241.959286 119.185245 
L 244.595179 118.657907 
L 247.231071 117.089782 
L 249.866964 113.67249 
L 252.502857 114.760947 
L 255.13875 118.243985 
L 257.774643 120.516301 
L 260.410536 124.422914 
L 263.046429 129.629905 
L 265.682321 134.074831 
L 268.318214 139.651162 
L 270.954107 140.330336 
L 273.59 142.573485 
L 276.225893 141.428772 
L 278.861786 138.689426 
L 281.497679 136.97563 
L 284.133571 135.936721 
L 286.769464 133.60328 
L 289.405357 133.579789 
L 292.04125 136.30007 
L 294.677143 136.175971 
L 297.313036 136.873312 
L 299.948929 135.626744 
L 302.584821 139.267815 
L 305.220714 141.267831 
L 307.856607 140.755522 
L 310.4925 141.671578 
L 313.128393 142.179658 
L 315.764286 142.444875 
L 318.400179 140.185479 
L 321.036071 139.453469 
L 323.671964 137.533608 
L 326.307857 133.749851 
L 328.94375 131.864983 
L 331.579643 128.680331 
L 334.215536 126.479558 
L 339.487321 126.722748 
L 344.759107 124.984539 
L 347.395 125.784681 
L 350.030893 126.346215 
L 352.666786 126.432939 
L 355.302679 126.377092 
L 360.574464 124.755554 
L 363.210357 125.258792 
L 365.84625 124.016984 
L 371.118036 122.604391 
L 373.753929 121.279608 
L 379.025714 116.562119 
L 381.661607 115.618906 
L 384.2975 115.28603 
L 386.933393 115.399686 
L 389.569286 115.875172 
L 392.205179 115.984933 
L 394.841071 115.186283 
L 400.112857 115.528896 
L 402.74875 115.998654 
L 405.384643 116.605777 
L 408.020536 116.899012 
L 410.656429 116.452578 
L 413.292321 117.212351 
L 418.564107 117.471307 
L 418.564107 117.471307 
" clip-path="url(#pf94b237e82)" style="fill: none; stroke: #6ebbd5; stroke-width: 1.5; stroke-linecap: square"/>
   </g>
   <g id="line2d_16">
    <path d="M -1 137.610941 
L -0.542857 137.584094 
L 2.093036 136.857502 
L 4.728929 136.725579 
L 7.364821 137.175737 
L 10.000714 137.250398 
L 12.636607 137.040936 
L 15.2725 136.379321 
L 17.908393 136.143596 
L 20.544286 136.180551 
L 23.180179 136.634461 
L 25.816071 136.939615 
L 28.451964 137.457598 
L 31.087857 137.374915 
L 33.72375 137.123877 
L 36.359643 137.143032 
L 38.995536 137.581025 
L 41.631429 137.463347 
L 44.267321 137.119624 
L 49.539107 137.301021 
L 52.175 137.497827 
L 54.810893 137.54568 
L 62.718571 137.331174 
L 67.990357 137.852752 
L 73.262143 137.6484 
L 81.169821 136.443131 
L 83.805714 135.835564 
L 89.0775 136.062632 
L 91.713393 136.29785 
L 94.349286 136.699719 
L 102.256964 137.372225 
L 112.800536 137.410825 
L 118.072321 136.794998 
L 120.708214 137.267794 
L 125.98 137.03907 
L 131.251786 136.755075 
L 139.159464 136.3685 
L 152.338929 136.767167 
L 157.610714 137.003181 
L 160.246607 136.361786 
L 162.8825 135.122117 
L 165.518393 134.803649 
L 168.154286 136.206337 
L 170.790179 135.755668 
L 173.426071 132.219933 
L 176.061964 123.280336 
L 178.697857 124.11297 
L 181.33375 125.218101 
L 183.969643 130.990986 
L 186.605536 134.351807 
L 189.241429 139.269809 
L 191.877321 142.04854 
L 194.513214 139.903748 
L 197.149107 135.959619 
L 199.785 134.316288 
L 202.420893 136.163993 
L 205.056786 139.639439 
L 207.692679 141.530357 
L 210.328571 139.946113 
L 212.964464 136.423215 
L 215.600357 135.303879 
L 218.23625 134.686292 
L 220.872143 134.497926 
L 223.508036 134.621173 
L 226.143929 135.257694 
L 228.779821 135.652443 
L 231.415714 136.706002 
L 234.051607 136.718389 
L 239.323393 135.880217 
L 241.959286 135.837306 
L 247.231071 135.463538 
L 249.866964 135.654215 
L 252.502857 136.18431 
L 255.13875 137.165502 
L 257.774643 137.697995 
L 263.046429 138.118473 
L 268.318214 138.093577 
L 270.954107 138.103207 
L 276.225893 137.461251 
L 284.133571 137.131482 
L 286.769464 136.811001 
L 289.405357 136.900886 
L 292.04125 137.182098 
L 294.677143 137.136015 
L 299.948929 137.533922 
L 302.584821 137.566769 
L 305.220714 137.744233 
L 307.856607 137.646102 
L 310.4925 137.420708 
L 315.764286 136.517876 
L 321.036071 136.257387 
L 323.671964 135.791281 
L 328.94375 135.547473 
L 331.579643 135.291525 
L 334.215536 135.239905 
L 339.487321 135.433583 
L 342.123214 135.479693 
L 344.759107 135.743485 
L 350.030893 136.009402 
L 352.666786 136.148263 
L 355.302679 136.008801 
L 357.938571 136.108871 
L 360.574464 136.729173 
L 363.210357 137.643174 
L 368.482143 138.597984 
L 371.118036 138.704557 
L 379.025714 137.401427 
L 384.2975 136.739546 
L 392.205179 135.511589 
L 394.841071 135.593332 
L 397.476964 135.257913 
L 400.112857 135.57191 
L 405.384643 135.363838 
L 408.020536 135.302472 
L 410.656429 135.442642 
L 413.292321 135.905315 
L 415.928214 136.200307 
L 418.564107 136.316188 
L 418.564107 136.316188 
" clip-path="url(#pf94b237e82)" style="fill: none; stroke: #b46b3f; stroke-width: 1.5; stroke-linecap: square"/>
   </g>
   <g id="line2d_17">
    <path d="M -1 138.181303 
L -0.542857 138.110307 
L 2.093036 137.564554 
L 4.728929 137.2977 
L 7.364821 137.489529 
L 10.000714 137.419135 
L 12.636607 136.555647 
L 15.2725 136.283138 
L 17.908393 136.353904 
L 20.544286 136.124066 
L 23.180179 136.122428 
L 25.816071 136.42861 
L 28.451964 137.188328 
L 31.087857 137.263471 
L 36.359643 136.995621 
L 38.995536 137.45337 
L 41.631429 137.558293 
L 44.267321 136.935484 
L 46.903214 135.994575 
L 49.539107 136.314023 
L 52.175 136.147031 
L 54.810893 136.134552 
L 57.446786 136.249562 
L 60.082679 136.815646 
L 62.718571 137.743627 
L 65.354464 138.031108 
L 70.62625 136.380412 
L 73.262143 136.264826 
L 75.898036 136.437066 
L 78.533929 136.106801 
L 81.169821 136.396533 
L 83.805714 137.095622 
L 86.441607 136.862699 
L 89.0775 135.86468 
L 96.985179 135.563031 
L 102.256964 134.632602 
L 104.892857 134.709771 
L 107.52875 134.42798 
L 110.164643 134.827605 
L 115.436429 134.658354 
L 120.708214 135.823167 
L 131.251786 135.925908 
L 133.887679 135.591393 
L 139.159464 135.652362 
L 141.795357 135.786674 
L 144.43125 135.536262 
L 147.067143 135.111777 
L 152.338929 134.751047 
L 154.974821 134.51132 
L 157.610714 134.426794 
L 160.246607 128.131897 
L 162.8825 119.734779 
L 165.518393 119.291363 
L 170.790179 121.204411 
L 173.426071 118.64609 
L 176.061964 115.049831 
L 181.33375 197.096911 
L 183.969643 212.783209 
L 186.605536 207.175016 
L 189.241429 207.118978 
L 191.877321 194.749201 
L 194.513214 183.790653 
L 197.149107 174.497927 
L 199.785 168.522321 
L 202.420893 168.790843 
L 205.056786 167.058894 
L 207.692679 165.810772 
L 210.328571 165.44069 
L 212.964464 159.127106 
L 215.600357 153.40883 
L 218.23625 146.14434 
L 220.872143 139.713117 
L 223.508036 132.149396 
L 226.143929 132.478695 
L 228.779821 135.144829 
L 231.415714 136.958858 
L 234.051607 137.383161 
L 236.6875 136.655984 
L 239.323393 135.353407 
L 241.959286 136.082918 
L 244.595179 137.423208 
L 247.231071 137.658556 
L 249.866964 138.129005 
L 252.502857 138.95707 
L 255.13875 140.146205 
L 257.774643 142.190434 
L 260.410536 141.282219 
L 263.046429 139.511923 
L 265.682321 138.28744 
L 268.318214 138.070752 
L 273.59 137.16133 
L 276.225893 137.14002 
L 278.861786 136.203968 
L 281.497679 136.01162 
L 284.133571 136.091365 
L 289.405357 134.835669 
L 292.04125 134.364344 
L 294.677143 134.016699 
L 297.313036 135.092998 
L 299.948929 135.832903 
L 305.220714 137.808827 
L 310.4925 138.174922 
L 315.764286 136.612229 
L 318.400179 137.079198 
L 321.036071 137.895843 
L 323.671964 136.987313 
L 336.851429 133.112544 
L 339.487321 132.728694 
L 342.123214 132.956985 
L 344.759107 133.725169 
L 347.395 134.94346 
L 350.030893 136.000874 
L 352.666786 136.407528 
L 355.302679 136.48506 
L 360.574464 136.213337 
L 363.210357 136.427366 
L 365.84625 136.417411 
L 368.482143 135.86434 
L 371.118036 135.543522 
L 373.753929 135.376073 
L 376.389821 134.614697 
L 379.025714 134.199883 
L 381.661607 134.427027 
L 384.2975 134.398928 
L 386.933393 134.04991 
L 389.569286 134.097807 
L 394.841071 135.095349 
L 400.112857 136.657969 
L 405.384643 135.45944 
L 408.020536 133.895157 
L 410.656429 135.696559 
L 413.292321 134.735688 
L 415.928214 134.172982 
L 418.564107 133.846606 
L 418.564107 133.846606 
" clip-path="url(#pf94b237e82)" style="fill: none; stroke: #cccccc; stroke-width: 1.5; stroke-linecap: square"/>
   </g>
   <g id="line2d_18">
    <path d="M -1 136.499724 
L 2.093036 136.379729 
L 12.636607 136.476494 
L 15.2725 136.314362 
L 60.082679 136.486142 
L 70.62625 136.762076 
L 78.533929 136.399624 
L 86.441607 136.347042 
L 96.985179 136.50631 
L 102.256964 136.74603 
L 107.52875 136.92751 
L 112.800536 137.019164 
L 115.436429 137.00337 
L 123.344107 136.437432 
L 131.251786 136.25318 
L 141.795357 136.198816 
L 157.610714 136.500569 
L 160.246607 135.213901 
L 162.8825 134.661635 
L 165.518393 133.834476 
L 168.154286 133.958725 
L 170.790179 134.84373 
L 173.426071 135.887966 
L 176.061964 139.679474 
L 178.697857 143.204731 
L 181.33375 145.504345 
L 183.969643 147.198638 
L 186.605536 149.340044 
L 189.241429 149.862422 
L 191.877321 148.694653 
L 194.513214 146.247885 
L 197.149107 144.39835 
L 199.785 143.138373 
L 205.056786 142.037405 
L 207.692679 141.751509 
L 210.328571 140.832967 
L 212.964464 139.222283 
L 215.600357 137.938956 
L 218.23625 137.549096 
L 220.872143 137.893204 
L 226.143929 137.293243 
L 228.779821 137.302251 
L 231.415714 137.481477 
L 236.6875 137.149644 
L 239.323393 136.85537 
L 241.959286 136.88414 
L 244.595179 137.094872 
L 247.231071 137.142454 
L 249.866964 136.909003 
L 252.502857 136.947895 
L 255.13875 137.334663 
L 257.774643 137.321585 
L 260.410536 137.156666 
L 263.046429 137.215496 
L 265.682321 137.017233 
L 270.954107 137.469882 
L 273.59 137.10217 
L 276.225893 136.861529 
L 278.861786 136.977469 
L 284.133571 136.824391 
L 286.769464 136.462014 
L 289.405357 136.910923 
L 292.04125 137.475697 
L 294.677143 137.509682 
L 297.313036 137.704976 
L 302.584821 137.635812 
L 305.220714 137.990499 
L 307.856607 137.933237 
L 310.4925 137.460745 
L 313.128393 136.871771 
L 318.400179 136.248945 
L 321.036071 136.143791 
L 323.671964 135.922865 
L 326.307857 136.051318 
L 328.94375 136.015464 
L 331.579643 135.865216 
L 336.851429 136.146239 
L 347.395 136.690979 
L 350.030893 136.975756 
L 352.666786 137.098928 
L 357.938571 136.866999 
L 360.574464 136.747499 
L 363.210357 137.020369 
L 368.482143 136.975762 
L 371.118036 136.811301 
L 376.389821 136.351587 
L 381.661607 136.023393 
L 389.569286 136.198906 
L 392.205179 136.062008 
L 397.476964 136.168868 
L 408.020536 136.669704 
L 413.292321 136.781308 
L 418.564107 136.512789 
L 418.564107 136.512789 
" clip-path="url(#pf94b237e82)" style="fill: none; stroke: #00a22e; stroke-width: 1.5; stroke-linecap: square"/>
   </g>
   <g id="text_15">
    <text style="font: 12px 'serif'; text-anchor: middle" x="236.6875" y="20.8" transform="rotate(-0, 236.6875, 20.8)">Local field potential following simulated puff experiment</text>
   </g>
   <g id="legend_1">
    <g id="patch_3">
     <path d="M 206.951562 243.2 
L 414.2 243.2 
Q 416.2 243.2 416.2 241.2 
L 416.2 168.098437 
Q 416.2 166.098437 414.2 166.098437 
L 206.951562 166.098437 
Q 204.951562 166.098437 204.951562 168.098437 
L 204.951562 241.2 
Q 204.951562 243.2 206.951562 243.2 
z
" style="fill: #ffffff; opacity: 0.8; stroke: #cccccc; stroke-linejoin: miter"/>
    </g>
    <g id="line2d_19">
     <path d="M 208.951562 174.196875 
L 218.951562 174.196875 
L 228.951562 174.196875 
" style="fill: none; stroke: #0c8066; stroke-width: 1.5; stroke-linecap: square"/>
    </g>
    <g id="text_16">
     <text style="font: 10px 'serif'; text-anchor: start" x="236.951562" y="177.696875" transform="rotate(-0, 236.951562, 177.696875)">x=-500$\mu m$; y=-1000$\mu m$</text>
    </g>
    <g id="line2d_20">
     <path d="M 208.951562 189.017187 
L 218.951562 189.017187 
L 228.951562 189.017187 
" style="fill: none; stroke: #6ebbd5; stroke-width: 1.5; stroke-linecap: square"/>
    </g>
    <g id="text_17">
     <text style="font: 10px 'serif'; text-anchor: start" x="236.951562" y="192.517187" transform="rotate(-0, 236.951562, 192.517187)">x=-200$\mu m$; y=-1000$\mu m$</text>
    </g>
    <g id="line2d_21">
     <path d="M 208.951562 203.8375 
L 218.951562 203.8375 
L 228.951562 203.8375 
" style="fill: none; stroke: #b46b3f; stroke-width: 1.5; stroke-linecap: square"/>
    </g>
    <g id="text_18">
     <text style="font: 10px 'serif'; text-anchor: start" x="236.951562" y="207.3375" transform="rotate(-0, 236.951562, 207.3375)">x=-700$\mu m$; y=-1000$\mu m$</text>
    </g>
    <g id="line2d_22">
     <path d="M 208.951562 218.657812 
L 218.951562 218.657812 
L 228.951562 218.657812 
" style="fill: none; stroke: #cccccc; stroke-width: 1.5; stroke-linecap: square"/>
    </g>
    <g id="text_19">
     <text style="font: 10px 'serif'; text-anchor: start" x="236.951562" y="222.157812" transform="rotate(-0, 236.951562, 222.157812)">x=-500$\mu m$; y=-1300$\mu m$</text>
    </g>
    <g id="line2d_23">
     <path d="M 208.951562 233.478125 
L 218.951562 233.478125 
L 228.951562 233.478125 
" style="fill: none; stroke: #00a22e; stroke-width: 1.5; stroke-linecap: square"/>
    </g>
    <g id="text_20">
     <text style="font: 10px 'serif'; text-anchor: start" x="236.951562" y="236.978125" transform="rotate(-0, 236.951562, 236.978125)">x=-500$\mu m$; y=-700$\mu m$</text>
    </g>
   </g>
  </g>
 </g>
 <defs>
  <clipPath id="pf94b237e82">
   <rect x="52.175" y="26.8" width="369.025" height="221.4"/>
  </clipPath>
 </defs>
</svg>
