<?xml version="1.0" encoding="utf-8" standalone="no"?>
<!DOCTYPE svg PUBLIC "-//W3C//DTD SVG 1.1//EN"
  "http://www.w3.org/Graphics/SVG/1.1/DTD/svg11.dtd">
<svg xmlns:xlink="http://www.w3.org/1999/xlink" width="432pt" height="288pt" viewBox="0 0 432 288" xmlns="http://www.w3.org/2000/svg" version="1.1">
 <metadata>
  <rdf:RDF xmlns:dc="http://purl.org/dc/elements/1.1/" xmlns:cc="http://creativecommons.org/ns#" xmlns:rdf="http://www.w3.org/1999/02/22-rdf-syntax-ns#">
   <cc:Work>
    <dc:type rdf:resource="http://purl.org/dc/dcmitype/StillImage"/>
    <dc:date>2022-05-12T13:12:51.569947</dc:date>
    <dc:format>image/svg+xml</dc:format>
    <dc:creator>
     <cc:Agent>
      <dc:title>Matplotlib v3.5.1, https://matplotlib.org/</dc:title>
     </cc:Agent>
    </dc:creator>
   </cc:Work>
  </rdf:RDF>
 </metadata>
 <defs>
  <style type="text/css">*{stroke-linejoin: round; stroke-linecap: butt}</style>
 </defs>
 <g id="figure_1">
  <g id="patch_1">
   <path d="M 0 288 
L 432 288 
L 432 0 
L 0 0 
L 0 288 
z
" style="fill: none"/>
  </g>
  <g id="axes_1">
   <g id="patch_2">
    <path d="M 47.05 248.075 
L 421.2 248.075 
L 421.2 26.8 
L 47.05 26.8 
z
" style="fill: #ffffff"/>
   </g>
   <g id="matplotlib.axis_1">
    <g id="xtick_1">
     <g id="line2d_1">
      <defs>
       <path id="me3f4410fb6" d="M 0 0 
L 0 3.5 
" style="stroke: #000000; stroke-width: 0.8"/>
      </defs>
      <g>
       <use xlink:href="#me3f4410fb6" x="64.056818" y="248.075" style="stroke: #000000; stroke-width: 0.8"/>
      </g>
     </g>
     <g id="text_1">
      <text style="font: 10px 'serif'; text-anchor: middle" x="64.056818" y="262.673438" transform="rotate(-0, 64.056818, 262.673438)">−500</text>
     </g>
    </g>
    <g id="xtick_2">
     <g id="line2d_2">
      <g>
       <use xlink:href="#me3f4410fb6" x="132.111313" y="248.075" style="stroke: #000000; stroke-width: 0.8"/>
      </g>
     </g>
     <g id="text_2">
      <text style="font: 10px 'serif'; text-anchor: middle" x="132.111313" y="262.673438" transform="rotate(-0, 132.111313, 262.673438)">0</text>
     </g>
    </g>
    <g id="xtick_3">
     <g id="line2d_3">
      <g>
       <use xlink:href="#me3f4410fb6" x="200.165807" y="248.075" style="stroke: #000000; stroke-width: 0.8"/>
      </g>
     </g>
     <g id="text_3">
      <text style="font: 10px 'serif'; text-anchor: middle" x="200.165807" y="262.673438" transform="rotate(-0, 200.165807, 262.673438)">500</text>
     </g>
    </g>
    <g id="xtick_4">
     <g id="line2d_4">
      <g>
       <use xlink:href="#me3f4410fb6" x="268.220302" y="248.075" style="stroke: #000000; stroke-width: 0.8"/>
      </g>
     </g>
     <g id="text_4">
      <text style="font: 10px 'serif'; text-anchor: middle" x="268.220302" y="262.673438" transform="rotate(-0, 268.220302, 262.673438)">1000</text>
     </g>
    </g>
    <g id="xtick_5">
     <g id="line2d_5">
      <g>
       <use xlink:href="#me3f4410fb6" x="336.274796" y="248.075" style="stroke: #000000; stroke-width: 0.8"/>
      </g>
     </g>
     <g id="text_5">
      <text style="font: 10px 'serif'; text-anchor: middle" x="336.274796" y="262.673438" transform="rotate(-0, 336.274796, 262.673438)">1500</text>
     </g>
    </g>
    <g id="xtick_6">
     <g id="line2d_6">
      <g>
       <use xlink:href="#me3f4410fb6" x="404.329291" y="248.075" style="stroke: #000000; stroke-width: 0.8"/>
      </g>
     </g>
     <g id="text_6">
      <text style="font: 10px 'serif'; text-anchor: middle" x="404.329291" y="262.673438" transform="rotate(-0, 404.329291, 262.673438)">2000</text>
     </g>
    </g>
    <g id="text_7">
     <text style="font: 10px 'serif'; text-anchor: middle" x="234.125" y="276.351562" transform="rotate(-0, 234.125, 276.351562)">Spike offset (ms)</text>
    </g>
   </g>
   <g id="matplotlib.axis_2">
    <g id="ytick_1">
     <g id="line2d_7">
      <defs>
       <path id="m600457ad66" d="M 0 0 
L -3.5 0 
" style="stroke: #000000; stroke-width: 0.8"/>
      </defs>
      <g>
       <use xlink:href="#m600457ad66" x="47.05" y="234.446119" style="stroke: #000000; stroke-width: 0.8"/>
      </g>
     </g>
     <g id="text_8">
      <text style="font: 10px 'serif'; text-anchor: end" x="40.05" y="238.245338" transform="rotate(-0, 40.05, 238.245338)">0.4</text>
     </g>
    </g>
    <g id="ytick_2">
     <g id="line2d_8">
      <g>
       <use xlink:href="#m600457ad66" x="47.05" y="205.765144" style="stroke: #000000; stroke-width: 0.8"/>
      </g>
     </g>
     <g id="text_9">
      <text style="font: 10px 'serif'; text-anchor: end" x="40.05" y="209.564363" transform="rotate(-0, 40.05, 209.564363)">0.6</text>
     </g>
    </g>
    <g id="ytick_3">
     <g id="line2d_9">
      <g>
       <use xlink:href="#m600457ad66" x="47.05" y="177.084169" style="stroke: #000000; stroke-width: 0.8"/>
      </g>
     </g>
     <g id="text_10">
      <text style="font: 10px 'serif'; text-anchor: end" x="40.05" y="180.883387" transform="rotate(-0, 40.05, 180.883387)">0.8</text>
     </g>
    </g>
    <g id="ytick_4">
     <g id="line2d_10">
      <g>
       <use xlink:href="#m600457ad66" x="47.05" y="148.403193" style="stroke: #000000; stroke-width: 0.8"/>
      </g>
     </g>
     <g id="text_11">
      <text style="font: 10px 'serif'; text-anchor: end" x="40.05" y="152.202412" transform="rotate(-0, 40.05, 152.202412)">1.0</text>
     </g>
    </g>
    <g id="ytick_5">
     <g id="line2d_11">
      <g>
       <use xlink:href="#m600457ad66" x="47.05" y="119.722218" style="stroke: #000000; stroke-width: 0.8"/>
      </g>
     </g>
     <g id="text_12">
      <text style="font: 10px 'serif'; text-anchor: end" x="40.05" y="123.521437" transform="rotate(-0, 40.05, 123.521437)">1.2</text>
     </g>
    </g>
    <g id="ytick_6">
     <g id="line2d_12">
      <g>
       <use xlink:href="#m600457ad66" x="47.05" y="91.041243" style="stroke: #000000; stroke-width: 0.8"/>
      </g>
     </g>
     <g id="text_13">
      <text style="font: 10px 'serif'; text-anchor: end" x="40.05" y="94.840462" transform="rotate(-0, 40.05, 94.840462)">1.4</text>
     </g>
    </g>
    <g id="ytick_7">
     <g id="line2d_13">
      <g>
       <use xlink:href="#m600457ad66" x="47.05" y="62.360268" style="stroke: #000000; stroke-width: 0.8"/>
      </g>
     </g>
     <g id="text_14">
      <text style="font: 10px 'serif'; text-anchor: end" x="40.05" y="66.159486" transform="rotate(-0, 40.05, 66.159486)">1.6</text>
     </g>
    </g>
    <g id="ytick_8">
     <g id="line2d_14">
      <g>
       <use xlink:href="#m600457ad66" x="47.05" y="33.679292" style="stroke: #000000; stroke-width: 0.8"/>
      </g>
     </g>
     <g id="text_15">
      <text style="font: 10px 'serif'; text-anchor: end" x="40.05" y="37.478511" transform="rotate(-0, 40.05, 37.478511)">1.8</text>
     </g>
    </g>
    <g id="text_16">
     <text style="font: 10px 'serif'; text-anchor: middle" x="17.925" y="137.4375" transform="rotate(-90, 17.925, 137.4375)">Differential phase entropy (nits)</text>
    </g>
   </g>
   <g id="line2d_15">
    <path d="M 64.056818 37.067563 
L 65.009581 37.077872 
L 70.862268 37.034625 
L 71.542813 36.997228 
L 75.081646 37.01179 
L 76.442736 37.04585 
L 83.656513 37.469987 
L 87.603673 37.386471 
L 91.414725 37.898159 
L 92.639706 38.23896 
L 94.545232 38.40927 
L 95.770213 38.265488 
L 97.539629 37.908431 
L 99.036828 37.71433 
L 100.670136 37.688927 
L 102.439553 37.939197 
L 105.842278 39.107113 
L 106.795041 39.221781 
L 108.428349 39.14108 
L 110.469983 38.6342 
L 113.328272 38.20687 
L 115.506016 38.286772 
L 118.636523 38.885013 
L 124.761427 40.534662 
L 125.986408 40.612959 
L 127.619716 40.540576 
L 128.43637 40.68366 
L 128.844697 41.170964 
L 129.116915 41.81054 
L 129.525242 43.621625 
L 130.069678 47.424063 
L 130.341896 50.399989 
L 130.750223 57.384416 
L 131.15855 68.2342 
L 131.702986 89.879933 
L 133.88073 170.395947 
L 134.833492 196.470921 
L 135.786255 216.441791 
L 136.4668 227.096519 
L 137.147345 234.32594 
L 137.555672 236.847949 
L 137.963999 237.973102 
L 138.100108 238.017045 
L 138.236217 237.851404 
L 138.644544 236.486583 
L 139.052871 233.721538 
L 139.597307 228.30837 
L 140.413961 217.606515 
L 142.727814 187.050298 
L 143.544468 179.44952 
L 144.361122 173.746625 
L 145.041667 170.476365 
L 145.722212 168.363831 
L 146.266648 167.386479 
L 146.674975 167.032209 
L 147.083302 167.057804 
L 147.491628 167.345921 
L 148.036064 168.045038 
L 148.716609 169.38727 
L 149.94159 172.115147 
L 150.486026 172.87758 
L 150.894353 173.083584 
L 151.166571 172.996564 
L 151.438789 172.679134 
L 151.847116 171.662401 
L 152.391552 169.433068 
L 153.072097 165.358805 
L 153.888751 159.222415 
L 155.930386 143.341312 
L 156.74704 138.548188 
L 157.563694 134.932076 
L 158.244239 132.73857 
L 158.788675 131.430225 
L 159.333111 130.532474 
L 159.877546 129.981336 
L 160.421982 129.712267 
L 161.238636 129.636095 
L 162.463617 129.663518 
L 163.008053 129.367765 
L 163.552489 128.782417 
L 164.096925 127.775966 
L 164.641361 126.296006 
L 165.321906 123.61512 
L 166.13856 119.549696 
L 169.269067 102.498948 
L 170.085721 99.625125 
L 170.766266 97.958061 
L 171.446811 96.872754 
L 172.127355 96.215365 
L 173.080118 95.871902 
L 174.16899 95.851027 
L 174.577317 95.81658 
L 175.257862 95.653448 
L 175.802298 95.304977 
L 176.482843 94.436981 
L 177.435606 92.468648 
L 178.25226 89.89765 
L 179.61335 84.526418 
L 181.518876 77.003488 
L 182.471639 74.309063 
L 183.288293 72.725323 
L 184.104947 71.85159 
L 184.785491 71.563267 
L 185.193818 71.478384 
L 186.146581 71.670154 
L 187.779889 72.279672 
L 188.868761 72.17371 
L 189.549306 71.75914 
L 190.36596 70.710567 
L 191.590941 68.171296 
L 192.271486 66.358325 
L 194.040903 61.645071 
L 194.857557 59.901867 
L 195.674211 58.597045 
L 196.354756 57.8943 
L 197.171409 57.465878 
L 197.988063 57.474669 
L 198.668608 57.749606 
L 200.165807 58.65064 
L 201.254679 59.271787 
L 201.935224 59.388457 
L 202.615769 59.242746 
L 203.704641 58.360274 
L 204.793513 56.829463 
L 207.651802 52.375679 
L 208.196238 51.844691 
L 208.876783 51.469689 
L 209.829545 51.342475 
L 210.782308 51.53644 
L 211.87118 52.098169 
L 214.59336 53.802436 
L 215.273905 53.862877 
L 215.95445 53.621405 
L 216.907213 52.78279 
L 220.446047 48.069414 
L 221.534919 47.106844 
L 222.079354 46.807264 
L 222.896008 46.617874 
L 223.848771 46.662417 
L 224.665425 46.842022 
L 225.754297 47.140152 
L 227.523714 47.26208 
L 228.204259 47.043421 
L 229.157022 46.403833 
L 230.382003 45.096992 
L 231.606984 43.639037 
L 232.831965 42.429422 
L 234.193054 41.563899 
L 236.09858 41.098411 
L 237.867997 41.03063 
L 239.365196 40.900042 
L 240.998504 40.382078 
L 242.495703 39.642076 
L 243.312357 39.204384 
L 245.081774 38.474773 
L 246.442864 38.163823 
L 247.803953 38.003109 
L 250.253915 37.99966 
L 252.159441 38.028587 
L 254.473294 37.8465 
L 255.834384 37.71702 
L 258.420455 37.530223 
L 261.278743 37.335124 
L 264.681468 37.297523 
L 270.398046 37.038723 
L 271.486917 37.019136 
L 284.825598 36.900438 
L 287.683887 36.980736 
L 292.311593 37.006887 
L 294.489337 36.998201 
L 297.619843 37.124083 
L 299.117042 37.155523 
L 303.064203 37.045159 
L 304.697511 37.10513 
L 314.089031 36.916056 
L 316.675102 36.882546 
L 319.6695 36.903286 
L 328.380475 37.190587 
L 330.013783 37.228226 
L 335.594251 37.424282 
L 337.227559 37.41321 
L 344.441336 37.233127 
L 346.210752 37.340726 
L 347.163515 37.366019 
L 348.388496 37.512523 
L 351.110676 37.555901 
L 352.743984 37.46361 
L 357.507799 37.527042 
L 362.135504 38.019771 
L 363.904921 37.860596 
L 375.610294 37.365721 
L 377.379711 37.213982 
L 382.551853 37.153231 
L 386.635122 37.316886 
L 392.079482 37.149038 
L 395.890533 37.310248 
L 398.340495 37.387951 
L 402.968201 37.299054 
L 404.193182 37.35844 
L 404.193182 37.35844 
" clip-path="url(#p6d86f2429d)" style="fill: none; stroke: #6ebbd5; stroke-width: 1.5; stroke-linecap: square"/>
   </g>
   <g id="line2d_16">
    <path d="M 64.056818 36.992501 
L 75.8983 36.950761 
L 77.531608 36.926716 
L 80.798224 36.933106 
L 81.750987 36.950238 
L 85.970365 36.937216 
L 86.923128 36.930776 
L 88.148109 36.918483 
L 88.692545 36.926993 
L 95.225777 36.98677 
L 95.770213 37.001678 
L 96.859085 37.047019 
L 98.220174 37.027083 
L 99.581264 36.967907 
L 112.103291 37.114045 
L 115.778234 37.036682 
L 122.039248 36.962981 
L 123.944773 36.988662 
L 127.483607 37.099619 
L 127.891934 37.060581 
L 128.572479 36.980103 
L 129.253024 37.101999 
L 129.525242 37.283334 
L 130.069678 38.359465 
L 130.478005 39.662005 
L 130.886332 41.902031 
L 131.430768 46.227083 
L 132.111313 53.733215 
L 133.472403 78.172506 
L 135.377928 116.421494 
L 136.330691 129.007922 
L 137.147345 137.734377 
L 137.691781 140.840875 
L 137.963999 141.656267 
L 138.236217 141.954155 
L 138.372326 141.910943 
L 138.644544 141.49251 
L 139.052871 139.8852 
L 139.461198 137.235255 
L 140.005634 132.471107 
L 140.958397 121.244138 
L 142.591705 100.951744 
L 143.408359 92.919423 
L 144.088904 87.698672 
L 144.769449 83.727373 
L 145.586103 80.151735 
L 146.402757 77.729865 
L 147.083302 76.473259 
L 147.899955 75.621742 
L 148.444391 75.434152 
L 148.852718 75.405628 
L 149.669372 75.585887 
L 150.349917 75.849635 
L 151.30268 75.817015 
L 151.983225 75.307515 
L 152.527661 74.446122 
L 153.072097 73.12434 
L 153.888751 70.236596 
L 155.113732 64.265638 
L 156.610931 56.837798 
L 157.563694 53.264058 
L 158.380348 50.992684 
L 159.197002 49.321607 
L 160.149764 48.059171 
L 160.830309 47.479555 
L 161.783072 47.032225 
L 163.008053 46.867195 
L 165.321906 46.631333 
L 166.410778 45.841595 
L 167.635759 44.32563 
L 170.766266 39.826782 
L 172.399573 38.675709 
L 173.488445 38.292328 
L 174.985644 38.042269 
L 176.89117 38.046432 
L 178.116151 38.106603 
L 179.477241 37.988611 
L 182.471639 37.370751 
L 184.9216 36.969462 
L 188.052107 36.944517 
L 190.36596 36.944241 
L 191.72705 36.935943 
L 195.538102 36.939986 
L 208.876783 36.943591 
L 209.693436 36.945935 
L 213.23227 37.017346 
L 213.912815 36.98658 
L 216.771104 37.062319 
L 218.404412 37.03801 
L 219.221066 37.03752 
L 228.612586 37.031509 
L 232.015311 37.10096 
L 232.831965 37.081548 
L 234.873599 37.03204 
L 236.779125 37.018225 
L 238.276324 37.035564 
L 239.501305 37.020477 
L 241.951267 36.95218 
L 243.992902 36.963034 
L 245.762319 36.940911 
L 249.165043 36.959673 
L 250.253915 36.994814 
L 252.159441 36.947267 
L 258.556564 37.028934 
L 259.917653 36.982418 
L 282.647855 37.038588 
L 283.464509 37.00042 
L 284.825598 36.982109 
L 287.956105 36.996153 
L 291.903266 37.054192 
L 293.672683 37.065585 
L 295.033773 37.049873 
L 295.850427 37.021484 
L 297.755952 36.983113 
L 298.708715 36.980797 
L 299.525369 36.972244 
L 301.839222 36.922831 
L 304.289184 36.97476 
L 316.538993 36.971747 
L 317.627865 37.026991 
L 322.527788 36.875915 
L 323.888878 36.897404 
L 343.8969 37.026658 
L 344.849663 37.024548 
L 353.016202 36.980329 
L 359.821651 37.065684 
L 360.502196 37.029013 
L 372.752005 37.10983 
L 373.704768 37.078225 
L 374.657531 37.078387 
L 376.426948 37.107783 
L 378.196365 37.0746 
L 383.776833 37.060524 
L 384.593487 37.022171 
L 404.193182 37.05637 
L 404.193182 37.05637 
" clip-path="url(#p6d86f2429d)" style="fill: none; stroke: #0c8066; stroke-width: 1.5; stroke-linecap: square"/>
   </g>
   <g id="text_17">
    <text style="font: 12px 'serif'; text-anchor: middle" x="234.125" y="20.8" transform="rotate(-0, 234.125, 20.8)">Effect of a single depolarizing spike on phase entropy</text>
   </g>
   <g id="legend_1">
    <g id="patch_3">
     <path d="M 189.05 243.075 
L 414.2 243.075 
Q 416.2 243.075 416.2 241.075 
L 416.2 212.1625 
Q 416.2 210.1625 414.2 210.1625 
L 189.05 210.1625 
Q 187.05 210.1625 187.05 212.1625 
L 187.05 241.075 
Q 187.05 243.075 189.05 243.075 
z
" style="fill: #ffffff; opacity: 0.8; stroke: #cccccc; stroke-linejoin: miter"/>
    </g>
    <g id="line2d_17">
     <path d="M 191.05 218.260938 
L 201.05 218.260938 
L 211.05 218.260938 
" style="fill: none; stroke: #6ebbd5; stroke-width: 1.5; stroke-linecap: square"/>
    </g>
    <g id="text_18">
     <text style="font: 10px 'serif'; text-anchor: start" x="219.05" y="221.760938" transform="rotate(-0, 219.05, 221.760938)">$g_{\mathrm{gap}}=10^{-2}\mu S$</text>
    </g>
    <g id="line2d_18">
     <path d="M 191.05 233.217188 
L 201.05 233.217188 
L 211.05 233.217188 
" style="fill: none; stroke: #0c8066; stroke-width: 1.5; stroke-linecap: square"/>
    </g>
    <g id="text_19">
     <text style="font: 10px 'serif'; text-anchor: start" x="219.05" y="236.717188" transform="rotate(-0, 219.05, 236.717188)">$g_{\mathrm{gap}}=10^{-3}\mu S$</text>
    </g>
   </g>
  </g>
 </g>
 <defs>
  <clipPath id="p6d86f2429d">
   <rect x="47.05" y="26.8" width="374.15" height="221.275"/>
  </clipPath>
 </defs>
</svg>
