<?xml version="1.0" encoding="utf-8" standalone="no"?>
<!DOCTYPE svg PUBLIC "-//W3C//DTD SVG 1.1//EN"
  "http://www.w3.org/Graphics/SVG/1.1/DTD/svg11.dtd">
<svg xmlns:xlink="http://www.w3.org/1999/xlink" width="432pt" height="288pt" viewBox="0 0 432 288" xmlns="http://www.w3.org/2000/svg" version="1.1">
 <metadata>
  <rdf:RDF xmlns:dc="http://purl.org/dc/elements/1.1/" xmlns:cc="http://creativecommons.org/ns#" xmlns:rdf="http://www.w3.org/1999/02/22-rdf-syntax-ns#">
   <cc:Work>
    <dc:type rdf:resource="http://purl.org/dc/dcmitype/StillImage"/>
    <dc:date>2022-08-13T16:48:18.978845</dc:date>
    <dc:format>image/svg+xml</dc:format>
    <dc:creator>
     <cc:Agent>
      <dc:title>Matplotlib v3.5.2, https://matplotlib.org/</dc:title>
     </cc:Agent>
    </dc:creator>
   </cc:Work>
  </rdf:RDF>
 </metadata>
 <defs>
  <style type="text/css">*{stroke-linejoin: round; stroke-linecap: butt}</style>
 </defs>
 <g id="figure_1">
  <g id="patch_1">
   <path d="M 0 288 
L 432 288 
L 432 0 
L 0 0 
L 0 288 
z
" style="fill: none"/>
  </g>
  <g id="axes_1">
   <g id="patch_2">
    <path d="M 54 252 
L 388.8 252 
L 388.8 34.56 
L 54 34.56 
z
" style="fill: #ffffff"/>
   </g>
   <g id="PolyCollection_1">
    <path d="M 129.712758 251.783191 
L 89.887242 251.783191 
L 88.500399 251.55014 
L 87.213283 251.317089 
L 86.045541 251.084038 
L 85.012704 250.850987 
L 84.125676 250.617936 
L 83.390513 250.384885 
L 82.808521 250.151834 
L 82.376637 249.918783 
L 82.088061 249.685733 
L 81.93308 249.452682 
L 81.9 249.219631 
L 81.976102 248.98658 
L 82.14855 248.753529 
L 82.40516 248.520478 
L 82.734988 248.287427 
L 83.128683 248.054376 
L 83.578606 247.821325 
L 84.07872 247.588274 
L 84.62429 247.355223 
L 85.211448 247.122172 
L 85.836695 246.889121 
L 86.496399 246.65607 
L 87.186383 246.423019 
L 87.901625 246.189968 
L 88.636139 245.956917 
L 89.383032 245.723866 
L 90.134734 245.490815 
L 90.883362 245.257764 
L 91.621185 245.024713 
L 92.341099 244.791662 
L 93.037088 244.558611 
L 93.704573 244.32556 
L 94.340635 244.092509 
L 94.944076 243.859458 
L 95.515306 243.626407 
L 96.056093 243.393356 
L 96.569193 243.160305 
L 97.057917 242.927254 
L 97.525691 242.694204 
L 97.975655 242.461153 
L 98.410355 242.228102 
L 98.831548 241.995051 
L 99.240138 241.762 
L 99.636239 241.528949 
L 100.019346 241.295898 
L 100.388578 241.062847 
L 100.742955 240.829796 
L 101.08168 240.596745 
L 101.404366 240.363694 
L 101.711213 240.130643 
L 102.003093 239.897592 
L 102.28155 239.664541 
L 102.548726 239.43149 
L 102.807217 239.198439 
L 103.059896 238.965388 
L 103.309706 238.732337 
L 103.559468 238.499286 
L 103.811699 238.266235 
L 104.068471 238.033184 
L 104.33131 237.800133 
L 104.601131 237.567082 
L 104.878222 237.334031 
L 105.16225 237.10098 
L 105.452305 236.867929 
L 105.746962 236.634878 
L 106.04435 236.401827 
L 106.342246 236.168776 
L 106.63816 235.935725 
L 106.929436 235.702674 
L 107.213351 235.469624 
L 107.487209 235.236573 
L 107.748434 235.003522 
L 107.994656 234.770471 
L 108.223785 234.53742 
L 108.434064 234.304369 
L 108.624114 234.071318 
L 108.792954 233.838267 
L 108.940005 233.605216 
L 109.065079 233.372165 
L 109.168351 233.139114 
L 109.250328 232.906063 
L 109.311813 232.673012 
L 109.353869 232.439961 
L 109.377789 232.20691 
L 109.385072 231.973859 
L 109.377408 231.740808 
L 109.35666 231.507757 
L 109.324861 231.274706 
L 109.284194 231.041655 
L 109.236977 230.808604 
L 109.185628 230.575553 
L 109.132625 230.342502 
L 109.080441 230.109451 
L 109.031477 229.8764 
L 108.987978 229.643349 
L 108.951945 229.410298 
L 108.925056 229.177247 
L 108.908589 228.944196 
L 108.903367 228.711145 
L 110.696633 228.711145 
L 110.696633 228.711145 
L 110.691411 228.944196 
L 110.674944 229.177247 
L 110.648055 229.410298 
L 110.612022 229.643349 
L 110.568523 229.8764 
L 110.519559 230.109451 
L 110.467375 230.342502 
L 110.414372 230.575553 
L 110.363023 230.808604 
L 110.315806 231.041655 
L 110.275139 231.274706 
L 110.24334 231.507757 
L 110.222592 231.740808 
L 110.214928 231.973859 
L 110.222211 232.20691 
L 110.246131 232.439961 
L 110.288187 232.673012 
L 110.349672 232.906063 
L 110.431649 233.139114 
L 110.534921 233.372165 
L 110.659995 233.605216 
L 110.807046 233.838267 
L 110.975886 234.071318 
L 111.165936 234.304369 
L 111.376215 234.53742 
L 111.605344 234.770471 
L 111.851566 235.003522 
L 112.112791 235.236573 
L 112.386649 235.469624 
L 112.670564 235.702674 
L 112.96184 235.935725 
L 113.257754 236.168776 
L 113.55565 236.401827 
L 113.853038 236.634878 
L 114.147695 236.867929 
L 114.43775 237.10098 
L 114.721778 237.334031 
L 114.998869 237.567082 
L 115.26869 237.800133 
L 115.531529 238.033184 
L 115.788301 238.266235 
L 116.040532 238.499286 
L 116.290294 238.732337 
L 116.540104 238.965388 
L 116.792783 239.198439 
L 117.051274 239.43149 
L 117.31845 239.664541 
L 117.596907 239.897592 
L 117.888787 240.130643 
L 118.195634 240.363694 
L 118.51832 240.596745 
L 118.857045 240.829796 
L 119.211422 241.062847 
L 119.580654 241.295898 
L 119.963761 241.528949 
L 120.359862 241.762 
L 120.768452 241.995051 
L 121.189645 242.228102 
L 121.624345 242.461153 
L 122.074309 242.694204 
L 122.542083 242.927254 
L 123.030807 243.160305 
L 123.543907 243.393356 
L 124.084694 243.626407 
L 124.655924 243.859458 
L 125.259365 244.092509 
L 125.895427 244.32556 
L 126.562912 244.558611 
L 127.258901 244.791662 
L 127.978815 245.024713 
L 128.716638 245.257764 
L 129.465266 245.490815 
L 130.216968 245.723866 
L 130.963861 245.956917 
L 131.698375 246.189968 
L 132.413617 246.423019 
L 133.103601 246.65607 
L 133.763305 246.889121 
L 134.388552 247.122172 
L 134.97571 247.355223 
L 135.52128 247.588274 
L 136.021394 247.821325 
L 136.471317 248.054376 
L 136.865012 248.287427 
L 137.19484 248.520478 
L 137.45145 248.753529 
L 137.623898 248.98658 
L 137.7 249.219631 
L 137.66692 249.452682 
L 137.511939 249.685733 
L 137.223363 249.918783 
L 136.791479 250.151834 
L 136.209487 250.384885 
L 135.474324 250.617936 
L 134.587296 250.850987 
L 133.554459 251.084038 
L 132.386717 251.317089 
L 131.099601 251.55014 
L 129.712758 251.783191 
z
" clip-path="url(#p7980ff1392)" style="fill: #6ebbd5; fill-opacity: 0.3"/>
   </g>
   <g id="PolyCollection_2">
    <path d="M 236.326246 250.63103 
L 206.473754 250.63103 
L 205.21359 249.932398 
L 203.964925 249.233765 
L 202.742385 248.535133 
L 201.560164 247.8365 
L 200.431593 247.137868 
L 199.368729 246.439235 
L 198.381994 245.740603 
L 197.479894 245.04197 
L 196.668816 244.343338 
L 195.95292 243.644705 
L 195.334143 242.946073 
L 194.812291 242.24744 
L 194.385234 241.548808 
L 194.049173 240.850175 
L 193.798974 240.151543 
L 193.628537 239.45291 
L 193.531177 238.754278 
L 193.5 238.055645 
L 193.528239 237.357013 
L 193.609538 236.65838 
L 193.738171 235.959748 
L 193.909185 235.261115 
L 194.118464 234.562483 
L 194.36273 233.86385 
L 194.639479 233.165218 
L 194.946875 232.466585 
L 195.283611 231.767953 
L 195.648771 231.06932 
L 196.041681 230.370688 
L 196.46179 229.672055 
L 196.908574 228.973423 
L 197.38146 228.27479 
L 197.879796 227.576158 
L 198.402832 226.877525 
L 198.949727 226.178893 
L 199.519569 225.48026 
L 200.111391 224.781628 
L 200.724191 224.082995 
L 201.356939 223.384363 
L 202.008571 222.68573 
L 202.677969 221.987098 
L 203.363934 221.288465 
L 204.065141 220.589833 
L 204.780097 219.8912 
L 205.507099 219.192568 
L 206.244187 218.493935 
L 206.989119 217.795303 
L 207.739348 217.09667 
L 208.492023 216.398038 
L 209.243993 215.699405 
L 209.991847 215.000773 
L 210.731947 214.30214 
L 211.460499 213.603508 
L 212.173619 212.904875 
L 212.867419 212.206243 
L 213.5381 211.50761 
L 214.182047 210.808978 
L 214.795928 210.110345 
L 215.376788 209.411713 
L 215.922136 208.71308 
L 216.430017 208.014448 
L 216.899073 207.315815 
L 217.328574 206.617183 
L 217.718432 205.91855 
L 218.069181 205.219918 
L 218.381937 204.521285 
L 218.658324 203.822653 
L 218.900377 203.12402 
L 219.11043 202.425388 
L 219.290987 201.726755 
L 219.444592 201.028123 
L 219.573698 200.32949 
L 219.680555 199.630858 
L 219.767119 198.932225 
L 219.83498 198.233593 
L 219.88534 197.53496 
L 219.919015 196.836328 
L 219.936479 196.137695 
L 219.937944 195.439063 
L 219.923466 194.74043 
L 219.893074 194.041798 
L 219.846907 193.343165 
L 219.785358 192.644532 
L 219.709196 191.9459 
L 219.619672 191.247267 
L 219.518595 190.548635 
L 219.408355 189.850002 
L 219.291917 189.15137 
L 219.172755 188.452737 
L 219.054748 187.754105 
L 218.942036 187.055472 
L 218.838846 186.35684 
L 218.749299 185.658207 
L 218.677208 184.959575 
L 218.625895 184.260942 
L 218.598017 183.56231 
L 218.595431 182.863677 
L 218.619105 182.165045 
L 218.669076 181.466412 
L 224.130924 181.466412 
L 224.130924 181.466412 
L 224.180895 182.165045 
L 224.204569 182.863677 
L 224.201983 183.56231 
L 224.174105 184.260942 
L 224.122792 184.959575 
L 224.050701 185.658207 
L 223.961154 186.35684 
L 223.857964 187.055472 
L 223.745252 187.754105 
L 223.627245 188.452737 
L 223.508083 189.15137 
L 223.391645 189.850002 
L 223.281405 190.548635 
L 223.180328 191.247267 
L 223.090804 191.9459 
L 223.014642 192.644532 
L 222.953093 193.343165 
L 222.906926 194.041798 
L 222.876534 194.74043 
L 222.862056 195.439063 
L 222.863521 196.137695 
L 222.880985 196.836328 
L 222.91466 197.53496 
L 222.96502 198.233593 
L 223.032881 198.932225 
L 223.119445 199.630858 
L 223.226302 200.32949 
L 223.355408 201.028123 
L 223.509013 201.726755 
L 223.68957 202.425388 
L 223.899623 203.12402 
L 224.141676 203.822653 
L 224.418063 204.521285 
L 224.730819 205.219918 
L 225.081568 205.91855 
L 225.471426 206.617183 
L 225.900927 207.315815 
L 226.369983 208.014448 
L 226.877864 208.71308 
L 227.423212 209.411713 
L 228.004072 210.110345 
L 228.617953 210.808978 
L 229.2619 211.50761 
L 229.932581 212.206243 
L 230.626381 212.904875 
L 231.339501 213.603508 
L 232.068053 214.30214 
L 232.808153 215.000773 
L 233.556007 215.699405 
L 234.307977 216.398038 
L 235.060652 217.09667 
L 235.810881 217.795303 
L 236.555813 218.493935 
L 237.292901 219.192568 
L 238.019903 219.8912 
L 238.734859 220.589833 
L 239.436066 221.288465 
L 240.122031 221.987098 
L 240.791429 222.68573 
L 241.443061 223.384363 
L 242.075809 224.082995 
L 242.688609 224.781628 
L 243.280431 225.48026 
L 243.850273 226.178893 
L 244.397168 226.877525 
L 244.920204 227.576158 
L 245.41854 228.27479 
L 245.891426 228.973423 
L 246.33821 229.672055 
L 246.758319 230.370688 
L 247.151229 231.06932 
L 247.516389 231.767953 
L 247.853125 232.466585 
L 248.160521 233.165218 
L 248.43727 233.86385 
L 248.681536 234.562483 
L 248.890815 235.261115 
L 249.061829 235.959748 
L 249.190462 236.65838 
L 249.271761 237.357013 
L 249.3 238.055645 
L 249.268823 238.754278 
L 249.171463 239.45291 
L 249.001026 240.151543 
L 248.750827 240.850175 
L 248.414766 241.548808 
L 247.987709 242.24744 
L 247.465857 242.946073 
L 246.84708 243.644705 
L 246.131184 244.343338 
L 245.320106 245.04197 
L 244.418006 245.740603 
L 243.431271 246.439235 
L 242.368407 247.137868 
L 241.239836 247.8365 
L 240.057615 248.535133 
L 238.835075 249.233765 
L 237.58641 249.932398 
L 236.326246 250.63103 
z
" clip-path="url(#p7980ff1392)" style="fill: #6ebbd5; fill-opacity: 0.3"/>
   </g>
   <g id="PolyCollection_3">
    <path d="M 349.381153 250.818033 
L 316.618847 250.818033 
L 314.667606 249.091264 
L 312.7809 247.364495 
L 311.012962 245.637726 
L 309.414528 243.910957 
L 308.029627 242.184188 
L 306.892827 240.457419 
L 306.02722 238.73065 
L 305.443309 237.003881 
L 305.138904 235.277112 
L 305.1 233.550343 
L 305.302516 231.823574 
L 305.714694 230.096805 
L 306.299885 228.370036 
L 307.019429 226.643267 
L 307.835348 224.916498 
L 308.712617 223.189729 
L 309.620848 221.46296 
L 310.535307 219.73619 
L 311.437284 218.009421 
L 312.313904 216.282652 
L 313.15752 214.555883 
L 313.964863 212.829114 
L 314.736105 211.102345 
L 315.473967 209.375576 
L 316.182933 207.648807 
L 316.868619 205.922038 
L 317.537253 204.195269 
L 318.195242 202.4685 
L 318.848776 200.741731 
L 319.503431 199.014962 
L 320.163791 197.288193 
L 320.833087 195.561424 
L 321.512906 193.834655 
L 322.20303 192.107886 
L 322.901411 190.381117 
L 323.604324 188.654348 
L 324.306668 186.927579 
L 325.002388 185.20081 
L 325.684964 183.474041 
L 326.347902 181.747272 
L 326.98519 180.020503 
L 327.591665 178.293734 
L 328.163263 176.566965 
L 328.697157 174.840196 
L 329.191773 173.113427 
L 329.646703 171.386658 
L 330.062536 169.659889 
L 330.440634 167.93312 
L 330.782887 166.206351 
L 331.091471 164.479582 
L 331.368635 162.752813 
L 331.61655 161.026044 
L 331.837211 159.299275 
L 332.032411 157.572506 
L 332.203765 155.845737 
L 332.352772 154.118968 
L 332.480894 152.392199 
L 332.589626 150.66543 
L 332.680551 148.938661 
L 332.755356 147.211892 
L 332.815826 145.485123 
L 332.863801 143.758354 
L 332.901121 142.031585 
L 332.929565 140.304816 
L 332.950793 138.578047 
L 332.966297 136.851278 
L 332.977373 135.124509 
L 332.985107 133.39774 
L 332.99038 131.670971 
L 332.993879 129.944202 
L 332.99612 128.217433 
L 332.997471 126.490663 
L 332.998176 124.763894 
L 332.99837 123.037125 
L 332.998092 121.310356 
L 332.997293 119.583587 
L 332.995827 117.856818 
L 332.993445 116.130049 
L 332.989785 114.40328 
L 332.984353 112.676511 
L 332.976517 110.949742 
L 332.965503 109.222973 
L 332.950417 107.496204 
L 332.930281 105.769435 
L 332.904097 104.042666 
L 332.870949 102.315897 
L 332.830119 100.589128 
L 332.781236 98.862359 
L 332.724414 97.13559 
L 332.660385 95.408821 
L 332.590582 93.682052 
L 332.517167 91.955283 
L 332.442974 90.228514 
L 332.371358 88.501745 
L 332.305965 86.774976 
L 332.250437 85.048207 
L 332.208074 83.321438 
L 332.181515 81.594669 
L 332.172466 79.8679 
L 333.827534 79.8679 
L 333.827534 79.8679 
L 333.818485 81.594669 
L 333.791926 83.321438 
L 333.749563 85.048207 
L 333.694035 86.774976 
L 333.628642 88.501745 
L 333.557026 90.228514 
L 333.482833 91.955283 
L 333.409418 93.682052 
L 333.339615 95.408821 
L 333.275586 97.13559 
L 333.218764 98.862359 
L 333.169881 100.589128 
L 333.129051 102.315897 
L 333.095903 104.042666 
L 333.069719 105.769435 
L 333.049583 107.496204 
L 333.034497 109.222973 
L 333.023483 110.949742 
L 333.015647 112.676511 
L 333.010215 114.40328 
L 333.006555 116.130049 
L 333.004173 117.856818 
L 333.002707 119.583587 
L 333.001908 121.310356 
L 333.00163 123.037125 
L 333.001824 124.763894 
L 333.002529 126.490663 
L 333.00388 128.217433 
L 333.006121 129.944202 
L 333.00962 131.670971 
L 333.014893 133.39774 
L 333.022627 135.124509 
L 333.033703 136.851278 
L 333.049207 138.578047 
L 333.070435 140.304816 
L 333.098879 142.031585 
L 333.136199 143.758354 
L 333.184174 145.485123 
L 333.244644 147.211892 
L 333.319449 148.938661 
L 333.410374 150.66543 
L 333.519106 152.392199 
L 333.647228 154.118968 
L 333.796235 155.845737 
L 333.967589 157.572506 
L 334.162789 159.299275 
L 334.38345 161.026044 
L 334.631365 162.752813 
L 334.908529 164.479582 
L 335.217113 166.206351 
L 335.559366 167.93312 
L 335.937464 169.659889 
L 336.353297 171.386658 
L 336.808227 173.113427 
L 337.302843 174.840196 
L 337.836737 176.566965 
L 338.408335 178.293734 
L 339.01481 180.020503 
L 339.652098 181.747272 
L 340.315036 183.474041 
L 340.997612 185.20081 
L 341.693332 186.927579 
L 342.395676 188.654348 
L 343.098589 190.381117 
L 343.79697 192.107886 
L 344.487094 193.834655 
L 345.166913 195.561424 
L 345.836209 197.288193 
L 346.496569 199.014962 
L 347.151224 200.741731 
L 347.804758 202.4685 
L 348.462747 204.195269 
L 349.131381 205.922038 
L 349.817067 207.648807 
L 350.526033 209.375576 
L 351.263895 211.102345 
L 352.035137 212.829114 
L 352.84248 214.555883 
L 353.686096 216.282652 
L 354.562716 218.009421 
L 355.464693 219.73619 
L 356.379152 221.46296 
L 357.287383 223.189729 
L 358.164652 224.916498 
L 358.980571 226.643267 
L 359.700115 228.370036 
L 360.285306 230.096805 
L 360.697484 231.823574 
L 360.9 233.550343 
L 360.861096 235.277112 
L 360.556691 237.003881 
L 359.97278 238.73065 
L 359.107173 240.457419 
L 357.970373 242.184188 
L 356.585472 243.910957 
L 354.987038 245.637726 
L 353.2191 247.364495 
L 351.332394 249.091264 
L 349.381153 250.818033 
z
" clip-path="url(#p7980ff1392)" style="fill: #6ebbd5; fill-opacity: 0.3"/>
   </g>
   <g id="matplotlib.axis_1">
    <g id="xtick_1">
     <g id="line2d_1">
      <defs>
       <path id="m33694f9b6c" d="M 0 0 
L 0 3.5 
" style="stroke: #000000; stroke-width: 0.8"/>
      </defs>
      <g>
       <use xlink:href="#m33694f9b6c" x="109.8" y="252" style="stroke: #000000; stroke-width: 0.8"/>
      </g>
     </g>
     <g id="text_1">
      <text style="font: 10px 'serif'; text-anchor: middle" x="109.8" y="266.598437" transform="rotate(-0, 109.8, 266.598437)">$10^{-3}]$</text>
     </g>
    </g>
    <g id="xtick_2">
     <g id="line2d_2">
      <g>
       <use xlink:href="#m33694f9b6c" x="221.4" y="252" style="stroke: #000000; stroke-width: 0.8"/>
      </g>
     </g>
     <g id="text_2">
      <text style="font: 10px 'serif'; text-anchor: middle" x="221.4" y="266.598437" transform="rotate(-0, 221.4, 266.598437)">$10^{-2}]$</text>
     </g>
    </g>
    <g id="xtick_3">
     <g id="line2d_3">
      <g>
       <use xlink:href="#m33694f9b6c" x="333" y="252" style="stroke: #000000; stroke-width: 0.8"/>
      </g>
     </g>
     <g id="text_3">
      <text style="font: 10px 'serif'; text-anchor: middle" x="333" y="266.598437" transform="rotate(-0, 333, 266.598437)">$10^{-1}]$</text>
     </g>
    </g>
    <g id="text_4">
     <text style="font: 10px 'serif'; text-anchor: middle" x="221.4" y="280.276563" transform="rotate(-0, 221.4, 280.276563)">Gap junction conductance ($\mu S$)</text>
    </g>
   </g>
   <g id="matplotlib.axis_2">
    <g id="ytick_1">
     <g id="line2d_4">
      <defs>
       <path id="mf080c7dbbe" d="M 0 0 
L -3.5 0 
" style="stroke: #000000; stroke-width: 0.8"/>
      </defs>
      <g>
       <use xlink:href="#mf080c7dbbe" x="54" y="252" style="stroke: #000000; stroke-width: 0.8"/>
      </g>
     </g>
     <g id="text_5">
      <text style="font: 10px 'serif'; text-anchor: end" x="47" y="255.799219" transform="rotate(-0, 47, 255.799219)">0%</text>
     </g>
    </g>
    <g id="ytick_2">
     <g id="line2d_5">
      <g>
       <use xlink:href="#mf080c7dbbe" x="54" y="208.512" style="stroke: #000000; stroke-width: 0.8"/>
      </g>
     </g>
     <g id="text_6">
      <text style="font: 10px 'serif'; text-anchor: end" x="47" y="212.311219" transform="rotate(-0, 47, 212.311219)">10%</text>
     </g>
    </g>
    <g id="ytick_3">
     <g id="line2d_6">
      <g>
       <use xlink:href="#mf080c7dbbe" x="54" y="165.024" style="stroke: #000000; stroke-width: 0.8"/>
      </g>
     </g>
     <g id="text_7">
      <text style="font: 10px 'serif'; text-anchor: end" x="47" y="168.823219" transform="rotate(-0, 47, 168.823219)">20%</text>
     </g>
    </g>
    <g id="ytick_4">
     <g id="line2d_7">
      <g>
       <use xlink:href="#mf080c7dbbe" x="54" y="121.536" style="stroke: #000000; stroke-width: 0.8"/>
      </g>
     </g>
     <g id="text_8">
      <text style="font: 10px 'serif'; text-anchor: end" x="47" y="125.335219" transform="rotate(-0, 47, 125.335219)">30%</text>
     </g>
    </g>
    <g id="ytick_5">
     <g id="line2d_8">
      <g>
       <use xlink:href="#mf080c7dbbe" x="54" y="78.048" style="stroke: #000000; stroke-width: 0.8"/>
      </g>
     </g>
     <g id="text_9">
      <text style="font: 10px 'serif'; text-anchor: end" x="47" y="81.847219" transform="rotate(-0, 47, 81.847219)">40%</text>
     </g>
    </g>
    <g id="ytick_6">
     <g id="line2d_9">
      <g>
       <use xlink:href="#mf080c7dbbe" x="54" y="34.56" style="stroke: #000000; stroke-width: 0.8"/>
      </g>
     </g>
     <g id="text_10">
      <text style="font: 10px 'serif'; text-anchor: end" x="47" y="38.359219" transform="rotate(-0, 47, 38.359219)">50%</text>
     </g>
    </g>
    <g id="text_11">
     <text style="font: 10px 'serif'; text-anchor: middle" x="18.551562" y="143.28" transform="rotate(-90, 18.551562, 143.28)">Clustering coefficient</text>
    </g>
   </g>
   <g id="line2d_10">
    <path d="M 93.06 250.128387 
L 126.54 250.128387 
L 126.54 244.157121 
L 93.06 244.157121 
L 93.06 250.128387 
" clip-path="url(#p7980ff1392)" style="fill: none; stroke: #000000; stroke-linecap: square"/>
   </g>
   <g id="line2d_11">
    <path d="M 109.8 250.128387 
L 109.8 251.783191 
" clip-path="url(#p7980ff1392)" style="fill: none; stroke: #000000; stroke-linecap: square"/>
   </g>
   <g id="line2d_12">
    <path d="M 109.8 244.157121 
L 109.8 236.297397 
" clip-path="url(#p7980ff1392)" style="fill: none; stroke: #000000; stroke-linecap: square"/>
   </g>
   <g id="line2d_13">
    <path d="M 101.43 251.783191 
L 118.17 251.783191 
" clip-path="url(#p7980ff1392)" style="fill: none; stroke: #000000; stroke-linecap: square"/>
   </g>
   <g id="line2d_14">
    <path d="M 101.43 236.297397 
L 118.17 236.297397 
" clip-path="url(#p7980ff1392)" style="fill: none; stroke: #000000; stroke-linecap: square"/>
   </g>
   <g id="line2d_15">
    <defs>
     <path id="m26cdfe7862" d="M 0 3 
C 0.795609 3 1.55874 2.683901 2.12132 2.12132 
C 2.683901 1.55874 3 0.795609 3 0 
C 3 -0.795609 2.683901 -1.55874 2.12132 -2.12132 
C 1.55874 -2.683901 0.795609 -3 0 -3 
C -0.795609 -3 -1.55874 -2.683901 -2.12132 -2.12132 
C -2.683901 -1.55874 -3 -0.795609 -3 0 
C -3 0.795609 -2.683901 1.55874 -2.12132 2.12132 
C -1.55874 2.683901 -0.795609 3 0 3 
z
" style="stroke: #000000"/>
    </defs>
    <g clip-path="url(#p7980ff1392)">
     <use xlink:href="#m26cdfe7862" x="109.8" y="228.711145" style="fill-opacity: 0; stroke: #000000"/>
    </g>
   </g>
   <g id="line2d_16">
    <path d="M 204.66 242.033275 
L 238.14 242.033275 
L 238.14 223.895934 
L 204.66 223.895934 
L 204.66 242.033275 
" clip-path="url(#p7980ff1392)" style="fill: none; stroke: #000000; stroke-linecap: square"/>
   </g>
   <g id="line2d_17">
    <path d="M 221.4 242.033275 
L 221.4 250.63103 
" clip-path="url(#p7980ff1392)" style="fill: none; stroke: #000000; stroke-linecap: square"/>
   </g>
   <g id="line2d_18">
    <path d="M 221.4 223.895934 
L 221.4 198.853192 
" clip-path="url(#p7980ff1392)" style="fill: none; stroke: #000000; stroke-linecap: square"/>
   </g>
   <g id="line2d_19">
    <path d="M 213.03 250.63103 
L 229.77 250.63103 
" clip-path="url(#p7980ff1392)" style="fill: none; stroke: #000000; stroke-linecap: square"/>
   </g>
   <g id="line2d_20">
    <path d="M 213.03 198.853192 
L 229.77 198.853192 
" clip-path="url(#p7980ff1392)" style="fill: none; stroke: #000000; stroke-linecap: square"/>
   </g>
   <g id="line2d_21">
    <g clip-path="url(#p7980ff1392)">
     <use xlink:href="#m26cdfe7862" x="221.4" y="183.312781" style="fill-opacity: 0; stroke: #000000"/>
     <use xlink:href="#m26cdfe7862" x="221.4" y="183.564995" style="fill-opacity: 0; stroke: #000000"/>
     <use xlink:href="#m26cdfe7862" x="221.4" y="181.466412" style="fill-opacity: 0; stroke: #000000"/>
    </g>
   </g>
   <g id="line2d_22">
    <path d="M 316.26 239.286524 
L 349.74 239.286524 
L 349.74 207.486659 
L 316.26 207.486659 
L 316.26 239.286524 
" clip-path="url(#p7980ff1392)" style="fill: none; stroke: #000000; stroke-linecap: square"/>
   </g>
   <g id="line2d_23">
    <path d="M 333 239.286524 
L 333 250.818033 
" clip-path="url(#p7980ff1392)" style="fill: none; stroke: #000000; stroke-linecap: square"/>
   </g>
   <g id="line2d_24">
    <path d="M 333 207.486659 
L 333 166.57345 
" clip-path="url(#p7980ff1392)" style="fill: none; stroke: #000000; stroke-linecap: square"/>
   </g>
   <g id="line2d_25">
    <path d="M 324.63 250.818033 
L 341.37 250.818033 
" clip-path="url(#p7980ff1392)" style="fill: none; stroke: #000000; stroke-linecap: square"/>
   </g>
   <g id="line2d_26">
    <path d="M 324.63 166.57345 
L 341.37 166.57345 
" clip-path="url(#p7980ff1392)" style="fill: none; stroke: #000000; stroke-linecap: square"/>
   </g>
   <g id="line2d_27">
    <g clip-path="url(#p7980ff1392)">
     <use xlink:href="#m26cdfe7862" x="333" y="79.8679" style="fill-opacity: 0; stroke: #000000"/>
    </g>
   </g>
   <g id="line2d_28">
    <path d="M 93.06 247.159842 
L 126.54 247.159842 
" clip-path="url(#p7980ff1392)" style="fill: none; stroke: #6ebbd5; stroke-linecap: square"/>
   </g>
   <g id="line2d_29">
    <path d="M 204.66 232.434399 
L 238.14 232.434399 
" clip-path="url(#p7980ff1392)" style="fill: none; stroke: #6ebbd5; stroke-linecap: square"/>
   </g>
   <g id="line2d_30">
    <path d="M 316.26 227.452433 
L 349.74 227.452433 
" clip-path="url(#p7980ff1392)" style="fill: none; stroke: #6ebbd5; stroke-linecap: square"/>
   </g>
  </g>
 </g>
 <defs>
  <clipPath id="p7980ff1392">
   <rect x="54" y="34.56" width="334.8" height="217.44"/>
  </clipPath>
 </defs>
</svg>
